<svg version="1.1" xmlns="http://www.w3.org/2000/svg" viewBox="-43.952687192539194 -8.519087107235453 82.73424506533681 17.03812755037936" fill="none" stroke="black" stroke-width="0.6%" vector-effect="non-scaling-stroke">
    <path d="M 3.74163 -4.42065 A 1 0.64822 85.57134 0 0 3.17193 -4.81841" />
    <path d="M 37.78156 4.1406 C 37.78 4.14 37.78 4.13 37.78087 4.13105 C 37.78 4.12 37.78 4.12 37.77467 4.10937 C 37.77 4.1 37.77 4.09 37.76185 4.08635 C 37.76 4.08 37.75 4.07 37.74227 4.06199 C 37.73 4.05 37.73 4.05 37.71575 4.03632 C 37.71 4.03 37.69 4.02 37.68213 4.00936 C 37.67 4 37.66 3.99 37.64124 3.98113 C 37.63 3.97 37.61 3.96 37.59291 3.95166 C 37.58 3.94 37.56 3.93 37.53696 3.92097 C 37.52 3.91 37.5 3.9 37.48332 3.89397 C 37.46 3.88 37.44 3.88 37.42387 3.8661 C 37.4 3.86 37.38 3.85 37.35855 3.83739 C 37.34 3.83 37.31 3.82 37.28727 3.8079 C 37.26 3.8 37.24 3.79 37.21001 3.77766 C 37.18 3.77 37.16 3.76 37.12673 3.74673 C 37.1 3.74 37.07 3.73 37.0374 3.71516 C 37.01 3.7 36.97 3.69 36.94202 3.68298 C 36.91 3.67 36.88 3.66 36.84061 3.65026 C 36.81 3.64 36.77 3.63 36.73318 3.61705 C 36.7 3.61 36.66 3.59 36.61977 3.58339 C 36.58 3.57 36.54 3.56 36.50043 3.54934 C 36.46 3.54 36.42 3.53 36.37521 3.51495 C 36.33 3.5 36.29 3.49 36.2442 3.48027 C 36.2 3.47 36.15 3.46 36.10747 3.44536 C 36.06 3.43 36.01 3.42 35.96513 3.41026 L 35.96513 3.92225" />
    <path d="M 35.68682 3.34489 L 35.70671 3.34949 L 35.7266 3.35411 L 35.74649 3.35873 L 35.76637 3.36337 L 35.78626 3.36801 L 35.80614 3.37267 L 35.82602 3.37733 L 35.8459 3.38201 L 35.86578 3.38669 L 35.88565 3.39139 L 35.90552 3.39609 L 35.9254 3.40081 L 35.94527 3.40553 L 35.96513 3.41026" />
    <path d="M 22.78072 2.40036 A 75 56.70589 96.01496 0 1 30.63983 2.50662 A 75 56.70589 96.01496 0 1 35.68682 3.34489 L 35.68682 3.85624 L 35.70671 3.86089 L 35.7266 3.86555 L 35.74649 3.87022 L 35.76638 3.8749 L 35.78626 3.87959 L 35.80614 3.88429 L 35.82602 3.889 L 35.8459 3.89372 L 35.86578 3.89845 L 35.88565 3.90319 L 35.90552 3.90794 L 35.9254 3.9127 L 35.94527 3.91747 L 35.96513 3.92225" />
    <path d="M 36.22693 -0.76912 C 36.27 -0.79 36.31 -0.81 36.34717 -0.82545 C 36.39 -0.84 36.42 -0.86 36.46255 -0.88204 C 36.5 -0.9 36.54 -0.92 36.57303 -0.9388 C 36.61 -0.96 36.64 -0.98 36.67857 -0.99568 C 36.71 -1.01 36.75 -1.03 36.77914 -1.05259 C 36.81 -1.07 36.84 -1.09 36.87473 -1.10946 C 36.91 -1.13 36.94 -1.15 36.96532 -1.16622 C 36.99 -1.19 37.02 -1.2 37.05092 -1.22279 C 37.08 -1.24 37.11 -1.26 37.13152 -1.27911 C 37.16 -1.3 37.18 -1.32 37.20713 -1.33509 C 37.23 -1.35 37.26 -1.37 37.27778 -1.39068 C 37.3 -1.41 37.32 -1.43 37.34349 -1.44579 C 37.36 -1.46 37.38 -1.48 37.4043 -1.50036 C 37.42 -1.52 37.44 -1.54 37.46026 -1.55433 C 37.48 -1.57 37.5 -1.59 37.51141 -1.60762 C 37.53 -1.63 37.54 -1.64 37.55782 -1.66017 C 37.58 -1.68 37.59 -1.7 37.60905 -1.72445 C 37.62 -1.75 37.64 -1.77 37.65332 -1.78754 C 37.67 -1.81 37.68 -1.83 37.69077 -1.8494 C 37.7 -1.87 37.71 -1.89 37.72155 -1.90995 C 37.73 -1.93 37.74 -1.95 37.74582 -1.96916 C 37.75 -1.99 37.76 -2.01 37.76371 -2.02698 C 37.77 -2.05 37.77 -2.06 37.77539 -2.08335 C 37.78 -2.1 37.78 -2.12 37.78098 -2.13825 C 37.78 -2.15 37.78 -2.15 37.78156 -2.16198" />
    <path d="M -0.65261 -6.5186 C -0.7 -6.49 -0.75 -6.46 -0.7994 -6.43546 C -0.85 -6.41 -0.89 -6.38 -0.93908 -6.35343 C -0.98 -6.33 -1.03 -6.3 -1.07158 -6.27261 C -1.11 -6.25 -1.16 -6.22 -1.19679 -6.19308 C -1.24 -6.17 -1.28 -6.14 -1.31466 -6.11491 C -1.35 -6.09 -1.39 -6.06 -1.42514 -6.03818 C -1.46 -6.01 -1.5 -5.99 -1.52818 -5.96295 C -1.56 -5.94 -1.59 -5.91 -1.62377 -5.88929 C -1.65 -5.87 -1.68 -5.84 -1.71189 -5.81726 C -1.74 -5.79 -1.77 -5.77 -1.79257 -5.7469 C -1.82 -5.72 -1.84 -5.7 -1.86582 -5.67827 C -1.89 -5.66 -1.91 -5.63 -1.93168 -5.61141 C -1.95 -5.59 -1.97 -5.57 -1.99021 -5.54636 C -2.01 -5.52 -2.03 -5.5 -2.04149 -5.48315 C -2.06 -5.46 -2.07 -5.44 -2.0856 -5.42182 C -2.1 -5.4 -2.11 -5.38 -2.12266 -5.36239" />
    <path d="M -0.65261 -6.5186 L -0.61397 -6.53866 L -0.57534 -6.55876 L -0.53672 -6.57889 L -0.49811 -6.59907 L -0.4595 -6.61929 L -0.42091 -6.63955 L -0.38233 -6.65984 L -0.34375 -6.68018 L -0.30519 -6.70055 L -0.26663 -6.72097 L -0.22808 -6.74142 L -0.18954 -6.76191 L -0.15101 -6.78244 L -0.1125 -6.80301 L -0.1125 -7.32636 L -1.41425 -7.46352 C -1.47 -7.47 -1.53 -7.47 -1.58959 -7.47934 C -1.65 -7.48 -1.71 -7.49 -1.77345 -7.49074 C -1.84 -7.49 -1.9 -7.5 -1.96564 -7.49771 C -2.03 -7.5 -2.1 -7.5 -2.16599 -7.50023 C -2.3 -7.5 -2.44 -7.5 -2.59051 -7.49184 C -2.66 -7.49 -2.74 -7.49 -2.81434 -7.48091 C -2.89 -7.48 -2.97 -7.47 -3.04565 -7.46547 C -3.12 -7.46 -3.2 -7.45 -3.28426 -7.44551 C -3.37 -7.44 -3.45 -7.43 -3.53001 -7.42101 C -3.61 -7.41 -3.7 -7.4 -3.78269 -7.39198 C -3.87 -7.38 -3.95 -7.37 -4.04211 -7.35841 C -4.13 -7.35 -4.22 -7.33 -4.30805 -7.3203 C -4.35 -7.31 -4.4 -7.31 -4.44339 -7.29954 C -4.49 -7.29 -4.53 -7.29 -4.58028 -7.27765 C -4.63 -7.27 -4.67 -7.26 -4.71867 -7.25462 C -4.77 -7.25 -4.81 -7.24 -4.85855 -7.23047 C -4.91 -7.22 -4.95 -7.21 -4.99986 -7.20518 C -5.05 -7.2 -5.09 -7.19 -5.14258 -7.17877 C -5.21 -7.17 -5.27 -7.15 -5.33822 -7.14117 C -5.4 -7.13 -5.47 -7.12 -5.53625 -7.10151 C -5.6 -7.09 -5.67 -7.07 -5.73654 -7.05982 C -5.8 -7.05 -5.87 -7.03 -5.93894 -7.0161 C -6.01 -7 -6.07 -6.99 -6.14327 -6.97038 C -6.21 -6.95 -6.28 -6.94 -6.34938 -6.92268 C -6.42 -6.91 -6.49 -6.89 -6.55709 -6.87303 C -6.63 -6.86 -6.7 -6.84 -6.76619 -6.82147 C -6.88 -6.79 -7 -6.76 -7.12442 -6.72946 C -7.24 -6.7 -7.36 -6.67 -7.48537 -6.63208 C -7.73 -6.57 -7.97 -6.5 -8.20639 -6.42324 C -8.68 -6.28 -9.15 -6.12 -9.58089 -5.96568" />
    <path d="M 35.68682 -0.54329 A 75 56.70589 96.01496 0 1 22.78072 2.40036 A 75 56.70589 96.01496 0 1 14.9216 2.29411 L -26.93232 -2.11597" />
    <path d="M 36.22693 -0.76912 L 36.1884 -0.75273 L 36.14986 -0.73639 L 36.11131 -0.72009 L 36.07275 -0.70382 L 36.03419 -0.68759 L 35.99562 -0.6714 L 35.95704 -0.65525 L 35.91846 -0.63914 L 35.87987 -0.62307 L 35.84127 -0.60704 L 35.80267 -0.59104 L 35.76406 -0.57508 L 35.72545 -0.55917 L 35.68682 -0.54329 L 35.68682 -1.05465 A 74.5 56.32785 96.01496 0 1 14.974 1.79686 A 74.5 56.32785 96.01496 0 1 9.87461 0.94449 L 9.85362 0.93972 L 9.83263 0.93495 L 9.81164 0.93016 L 9.79065 0.92537 L 9.76967 0.92056 L 9.74869 0.91575 L 9.72771 0.91092 L 9.70673 0.90608 L 9.68575 0.90124 L 9.66477 0.89638 L 9.6438 0.89152 L 9.62283 0.88664 L 9.60186 0.88176 L 9.58089 0.87686" />
    <path d="M -34.49534 0.10487 A 75 56.70589 276.01496 0 0 -35.68682 0.54329 L -35.70671 0.55118 L -35.7266 0.55907 L -35.74649 0.56698 L -35.76637 0.5749 L -35.78626 0.58282 L -35.80614 0.59076 L -35.82602 0.5987 L -35.8459 0.60666 L -35.86578 0.61462 L -35.88565 0.6226 L -35.90552 0.63058 L -35.9254 0.63858 L -35.94526 0.64658 L -35.96513 0.65459" />
    <path d="M 26.57454 2.8961 L 25.42239 2.7747" />
    <path d="M 34.4332 4.42392 C 34.4 4.41 34.36 4.4 34.32177 4.38962 C 34.28 4.38 34.25 4.37 34.20895 4.35554 C 34.17 4.34 34.13 4.33 34.09482 4.3217 C 34.06 4.31 34.02 4.3 33.97948 4.28813 C 33.94 4.28 33.9 4.27 33.863 4.25483 C 33.82 4.24 33.78 4.23 33.74548 4.22184 C 33.71 4.21 33.67 4.2 33.62701 4.18915 C 33.59 4.18 33.55 4.17 33.50769 4.1568 C 33.43 4.14 33.35 4.11 33.26687 4.09315 C 33.19 4.07 33.11 4.05 33.02378 4.03101 C 32.94 4.01 32.86 3.99 32.7792 3.97048 C 32.7 3.95 32.62 3.93 32.53395 3.91166 C 32.48 3.9 32.43 3.89 32.37164 3.87371 C 32.32 3.86 32.26 3.85 32.20944 3.83654 C 32.16 3.82 32.1 3.81 32.0475 3.80014 C 31.99 3.79 31.94 3.78 31.88596 3.76452 C 31.83 3.75 31.78 3.74 31.72495 3.72968 C 31.67 3.72 31.62 3.71 31.56461 3.69562 C 31.51 3.68 31.46 3.67 31.40508 3.66234 C 31.35 3.65 31.3 3.64 31.24647 3.62985 C 31.18 3.62 31.11 3.6 31.04553 3.58949 C 30.98 3.58 30.91 3.56 30.84647 3.55037 C 30.78 3.54 30.71 3.52 30.64943 3.51248 C 30.58 3.5 30.52 3.49 30.45458 3.4758 C 30.39 3.46 30.33 3.45 30.26204 3.44029 C 30.2 3.43 30.13 3.42 30.07195 3.40595 C 30.01 3.39 29.95 3.38 29.88445 3.37274 C 29.82 3.36 29.76 3.35 29.69963 3.34066 C 29.06 3.23 28.48 3.14 27.95501 3.06823 C 27.43 2.99 26.97 2.94 26.57454 2.8961" />
    <path d="M 34.4332 4.42392 L 34.47624 4.43777 L 34.51928 4.45167 L 34.5623 4.46561 L 34.60532 4.47959 L 34.64832 4.49361 L 34.69132 4.50767 L 34.7343 4.52178 L 34.77728 4.53592 L 34.82024 4.55011 L 34.86319 4.56433 L 34.90613 4.5786 L 34.94907 4.59291 L 34.99199 4.60726 L 35.0349 4.62165" />
    <path d="M 36.33665 4.75882 L 35.0349 4.62165" />
    <path d="M 36.33665 4.75882 C 36.39 4.76 36.45 4.77 36.50008 4.77502 C 36.55 4.78 36.6 4.78 36.6549 4.78827 C 36.71 4.79 36.75 4.8 36.80093 4.79857 C 36.85 4.8 36.89 4.8 36.93794 4.8059 C 36.98 4.81 37.02 4.81 37.06573 4.81024 C 37.11 4.81 37.15 4.81 37.18405 4.8116 C 37.22 4.81 37.26 4.81 37.29265 4.80995 C 37.33 4.81 37.36 4.81 37.39126 4.80531 C 37.42 4.8 37.45 4.8 37.47958 4.79766 C 37.51 4.79 37.53 4.79 37.55732 4.78701 C 37.58 4.78 37.6 4.78 37.62414 4.77337 C 37.63 4.77 37.64 4.77 37.65334 4.76543 C 37.66 4.76 37.67 4.76 37.67969 4.75674 C 37.69 4.75 37.7 4.75 37.70313 4.74731 C 37.71 4.74 37.72 4.74 37.72361 4.73713 C 37.73 4.73 37.74 4.73 37.74109 4.72622 C 37.75 4.72 37.75 4.72 37.75551 4.71457 C 37.76 4.71 37.76 4.71 37.76682 4.70218 C 37.77 4.7 37.77 4.69 37.77497 4.68907 C 37.78 4.68 37.78 4.68 37.7799 4.67522 C 37.78 4.67 37.78 4.67 37.78156 4.66065 C 37.78 4.66 37.78 4.65 37.78087 4.65096 C 37.78 4.64 37.78 4.64 37.77467 4.629 C 37.77 4.62 37.77 4.61 37.76185 4.60567 C 37.76 4.6 37.75 4.59 37.74226 4.581 C 37.73 4.57 37.73 4.56 37.71575 4.55501 C 37.71 4.55 37.69 4.54 37.68212 4.52772 C 37.67 4.52 37.66 4.51 37.64123 4.49916 C 37.63 4.49 37.61 4.48 37.5929 4.46934 C 37.58 4.46 37.56 4.45 37.53696 4.4383 C 37.52 4.43 37.5 4.42 37.48331 4.41099 C 37.46 4.4 37.44 4.39 37.42386 4.3828 C 37.4 4.37 37.38 4.36 37.35853 4.35377 C 37.34 4.34 37.31 4.33 37.28725 4.32395 C 37.26 4.31 37.24 4.3 37.20999 4.29339 C 37.18 4.28 37.16 4.27 37.1267 4.26213 C 37.1 4.25 37.07 4.24 37.03737 4.23021 C 37.01 4.22 36.97 4.21 36.94199 4.1977 C 36.91 4.19 36.88 4.18 36.84058 4.16464 C 36.81 4.15 36.77 4.14 36.73315 4.13108 C 36.7 4.12 36.66 4.11 36.61975 4.09708 C 36.58 4.09 36.54 4.07 36.50041 4.06268 C 36.46 4.05 36.42 4.04 36.3752 4.02795 C 36.33 4.02 36.29 4 36.24419 3.99293 C 36.2 3.98 36.15 3.97 36.10747 3.95768 C 36.06 3.95 36.01 3.93 35.96513 3.92225" />
    <path d="M 9.87461 5.34402 A 75 56.70589 96.01496 0 1 22.78072 2.40036" />
    <path d="M 9.87461 5.85538 A 74.5 56.32785 96.01496 0 1 30.58744 3.00387 A 74.5 56.32785 96.01496 0 1 35.68682 3.85624" />
    <path d="M 9.87461 5.34402 L 9.87461 5.85538" />
    <path d="M 36.22693 -1.28174 C 36.27 -1.3 36.31 -1.32 36.34717 -1.33838 C 36.39 -1.36 36.42 -1.38 36.46254 -1.39528 C 36.5 -1.41 36.54 -1.43 36.57301 -1.45235 C 36.61 -1.47 36.64 -1.49 36.67854 -1.50954 C 36.71 -1.53 36.75 -1.55 36.77911 -1.56676 C 36.81 -1.59 36.84 -1.6 36.8747 -1.62394 C 36.91 -1.64 36.94 -1.66 36.9653 -1.68101 C 36.99 -1.7 37.02 -1.72 37.05089 -1.73789 C 37.08 -1.76 37.11 -1.78 37.13149 -1.79451 C 37.16 -1.81 37.18 -1.83 37.2071 -1.85079 C 37.23 -1.87 37.26 -1.89 37.27775 -1.90668 C 37.3 -1.93 37.32 -1.94 37.34347 -1.96209 C 37.36 -1.98 37.38 -2 37.40428 -2.01696 C 37.42 -2.04 37.44 -2.05 37.46024 -2.07121 C 37.48 -2.09 37.5 -2.11 37.5114 -2.12479 C 37.53 -2.14 37.54 -2.16 37.55782 -2.17763 C 37.58 -2.2 37.59 -2.22 37.60905 -2.24224 C 37.62 -2.26 37.64 -2.28 37.65331 -2.30566 C 37.67 -2.33 37.68 -2.35 37.69076 -2.36783 C 37.7 -2.39 37.71 -2.41 37.72155 -2.42871 C 37.73 -2.45 37.74 -2.47 37.74581 -2.48822 C 37.75 -2.51 37.76 -2.53 37.76371 -2.54633 C 37.77 -2.57 37.77 -2.58 37.77539 -2.603 C 37.78 -2.62 37.78 -2.64 37.78098 -2.65818 C 37.78 -2.67 37.78 -2.67 37.78156 -2.68203 C 37.78 -2.7 37.78 -2.71 37.7799 -2.72208 C 37.78 -2.74 37.78 -2.75 37.77497 -2.76124 C 37.77 -2.77 37.77 -2.79 37.76682 -2.7995 C 37.76 -2.81 37.76 -2.82 37.75551 -2.83686 C 37.75 -2.85 37.75 -2.86 37.74109 -2.8733 C 37.74 -2.89 37.73 -2.9 37.72361 -2.90881 C 37.72 -2.92 37.71 -2.93 37.70313 -2.94339 C 37.7 -2.95 37.69 -2.97 37.67969 -2.97703 C 37.67 -2.99 37.66 -3 37.65334 -3.00971 C 37.64 -3.02 37.63 -3.03 37.62414 -3.04144 C 37.61 -3.05 37.6 -3.06 37.59211 -3.0722 C 37.58 -3.08 37.57 -3.09 37.55732 -3.10199 C 37.53 -3.12 37.51 -3.14 37.47958 -3.15862 C 37.45 -3.18 37.42 -3.19 37.39126 -3.21128 C 37.36 -3.23 37.33 -3.24 37.29265 -3.25995 C 37.26 -3.28 37.22 -3.29 37.18405 -3.30457 C 37.15 -3.32 37.11 -3.33 37.06573 -3.34511 C 37.02 -3.36 36.98 -3.37 36.93794 -3.38156 C 36.89 -3.39 36.85 -3.4 36.80093 -3.41387 C 36.75 -3.42 36.71 -3.43 36.6549 -3.44203 C 36.6 -3.45 36.55 -3.46 36.50008 -3.466 C 36.45 -3.47 36.39 -3.48 36.33665 -3.48578 L 35.0349 -3.62294 L 35.01393 -3.61273 L 34.99297 -3.60253 L 34.972 -3.59234 L 34.95103 -3.58216 L 34.93005 -3.57199 L 34.90908 -3.56183 L 34.8881 -3.55168 L 34.86712 -3.54154 L 34.84613 -3.53142 L 34.82515 -3.5213 L 34.80416 -3.51119 L 34.78317 -3.50109 L 34.76217 -3.491 L 34.74117 -3.48092" />
    <path d="M 36.22693 -0.76912 L 36.22693 -1.28174 L 36.1884 -1.26526 L 36.14986 -1.24883 L 36.11131 -1.23243 L 36.07275 -1.21607 L 36.03419 -1.19975 L 35.99562 -1.18348 L 35.95705 -1.16723 L 35.91846 -1.15103 L 35.87987 -1.13487 L 35.84128 -1.11875 L 35.80267 -1.10266 L 35.76406 -1.08662 L 35.72545 -1.07061 L 35.68682 -1.05465" />
    <path d="M 26.57454 -2.01479 C 26.62 -2.01 26.68 -2 26.72823 -2.00025 C 26.78 -2 26.83 -1.99 26.88856 -1.98833 C 26.94 -1.98 27 -1.98 27.0554 -1.97904 C 27.11 -1.98 27.17 -1.97 27.22865 -1.97242 C 27.29 -1.97 27.35 -1.97 27.4082 -1.96851 C 27.47 -1.97 27.53 -1.97 27.59396 -1.96734 C 27.66 -1.97 27.72 -1.97 27.78582 -1.96897 C 27.85 -1.97 27.92 -1.97 27.98368 -1.97345 C 28.05 -1.98 28.12 -1.98 28.18744 -1.98085 C 28.26 -1.98 28.33 -1.99 28.39699 -1.99123 C 28.47 -2 28.54 -2 28.61222 -2.00468 C 28.68 -2.01 28.76 -2.02 28.83301 -2.02128 C 28.91 -2.03 28.98 -2.03 29.05926 -2.04112 C 29.14 -2.05 29.21 -2.06 29.29081 -2.06431 C 29.37 -2.07 29.45 -2.08 29.52754 -2.09094 C 29.61 -2.1 29.69 -2.11 29.7693 -2.12114 C 29.83 -2.13 29.89 -2.14 29.95195 -2.14594 C 30.01 -2.15 30.08 -2.16 30.13718 -2.17282 C 30.2 -2.18 30.26 -2.19 30.32485 -2.20182 C 30.39 -2.21 30.45 -2.22 30.51486 -2.233 C 30.58 -2.24 30.64 -2.25 30.70707 -2.26641 C 30.77 -2.28 30.84 -2.29 30.90133 -2.30208 C 30.97 -2.31 31.03 -2.33 31.09752 -2.34009 C 31.16 -2.35 31.23 -2.37 31.29547 -2.38047 C 31.35 -2.39 31.41 -2.4 31.46077 -2.41578 C 31.52 -2.43 31.57 -2.44 31.62704 -2.45277 C 31.68 -2.47 31.74 -2.48 31.79413 -2.49147 C 31.85 -2.5 31.91 -2.52 31.96189 -2.53189 C 32.19 -2.59 32.41 -2.65 32.63635 -2.71096 C 33.37 -2.92 34.11 -3.18 34.74117 -3.48092" />
    <path d="M 26.57454 -2.01479 L -0.76233 -4.89523" />
    <path d="M -0.65261 -7.04019 C -0.69 -7.02 -0.72 -7 -0.74844 -6.98592 C -0.78 -6.97 -0.81 -6.95 -0.84131 -6.93211 C -0.87 -6.91 -0.9 -6.9 -0.9312 -6.87878 C -0.96 -6.86 -0.99 -6.84 -1.01808 -6.82596 C -1.05 -6.81 -1.07 -6.79 -1.10192 -6.77366 C -1.13 -6.76 -1.16 -6.74 -1.18271 -6.72191 C -1.21 -6.7 -1.24 -6.69 -1.26042 -6.67074 C -1.29 -6.65 -1.31 -6.64 -1.33505 -6.62016 C -1.36 -6.6 -1.38 -6.59 -1.40657 -6.57019 C -1.43 -6.55 -1.45 -6.54 -1.47498 -6.52085 C -1.5 -6.5 -1.52 -6.49 -1.54027 -6.47216 C -1.56 -6.46 -1.58 -6.44 -1.60243 -6.42414 C -1.62 -6.41 -1.64 -6.39 -1.66147 -6.37679 C -1.68 -6.36 -1.7 -6.35 -1.71738 -6.33015 C -1.74 -6.31 -1.75 -6.3 -1.77017 -6.28421 C -1.79 -6.27 -1.8 -6.25 -1.81983 -6.23899 C -1.84 -6.22 -1.85 -6.21 -1.86639 -6.19451 C -1.88 -6.18 -1.9 -6.17 -1.90985 -6.15078 C -1.92 -6.14 -1.94 -6.12 -1.95023 -6.1078 C -1.96 -6.09 -1.98 -6.08 -1.98754 -6.06559 C -2 -6.05 -2.01 -6.04 -2.02181 -6.02417 C -2.03 -6.01 -2.04 -6 -2.05305 -5.98353 C -2.06 -5.97 -2.07 -5.96 -2.0813 -5.94368 C -2.09 -5.93 -2.1 -5.92 -2.10658 -5.90464 C -2.11 -5.89 -2.12 -5.88 -2.12893 -5.8664 C -2.14 -5.85 -2.14 -5.84 -2.14838 -5.82898 C -2.15 -5.82 -2.16 -5.8 -2.16498 -5.79238 C -2.17 -5.78 -2.17 -5.77 -2.17876 -5.75661 C -2.2 -5.71 -2.2 -5.66 -2.20666 -5.62184 C -2.21 -5.61 -2.21 -5.61 -2.20723 -5.60047 C -2.21 -5.59 -2.21 -5.58 -2.20556 -5.56462 C -2.2 -5.55 -2.2 -5.54 -2.20059 -5.52975 C -2.2 -5.52 -2.2 -5.51 -2.19238 -5.49586 C -2.19 -5.48 -2.19 -5.47 -2.18099 -5.46294 C -2.18 -5.45 -2.17 -5.44 -2.16648 -5.43096 C -2.16 -5.42 -2.16 -5.41 -2.1489 -5.39992 C -2.14 -5.39 -2.14 -5.38 -2.1283 -5.36982 C -2.12 -5.36 -2.11 -5.35 -2.10475 -5.34063 C -2.1 -5.33 -2.09 -5.32 -2.07828 -5.31234 C -2.07 -5.3 -2.06 -5.29 -2.04895 -5.28496 C -2.04 -5.28 -2.03 -5.27 -2.01681 -5.25846 C -2.01 -5.25 -1.99 -5.24 -1.9819 -5.23284 C -1.97 -5.22 -1.96 -5.22 -1.94426 -5.20809 C -1.93 -5.2 -1.92 -5.19 -1.90395 -5.1842 C -1.89 -5.18 -1.88 -5.17 -1.861 -5.16117 C -1.85 -5.15 -1.83 -5.15 -1.81546 -5.13898 C -1.8 -5.13 -1.78 -5.12 -1.76736 -5.11763 C -1.75 -5.11 -1.73 -5.1 -1.71675 -5.09712 C -1.7 -5.09 -1.68 -5.08 -1.66365 -5.07744 C -1.65 -5.07 -1.63 -5.06 -1.60811 -5.05858 C -1.59 -5.05 -1.57 -5.05 -1.55016 -5.04053 C -1.53 -5.03 -1.51 -5.03 -1.48983 -5.02331 C -1.45 -5.01 -1.41 -5 -1.36217 -4.99128 C -1.32 -4.98 -1.27 -4.97 -1.22538 -4.96246 C -1.18 -4.95 -1.13 -4.94 -1.07967 -4.93686 C -1.03 -4.93 -0.98 -4.92 -0.92526 -4.91444 C -0.87 -4.91 -0.82 -4.9 -0.76233 -4.89523" />
    <path d="M -0.65261 -6.5186 L -0.65261 -7.04019 L -0.61397 -7.06037 L -0.57534 -7.0806 L -0.53671 -7.10086 L -0.4981 -7.12116 L -0.4595 -7.1415 L -0.42091 -7.16188 L -0.38232 -7.1823 L -0.34375 -7.20276 L -0.30518 -7.22326 L -0.26663 -7.2438 L -0.22808 -7.26438 L -0.18954 -7.285 L -0.15101 -7.30566 L -0.1125 -7.32636" />
    <path d="M -9.87461 -5.85538 L -9.85362 -5.86319 L -9.83263 -5.87102 L -9.81164 -5.87885 L -9.79065 -5.88669 L -9.76967 -5.89455 L -9.74869 -5.90241 L -9.72771 -5.91029 L -9.70673 -5.91817 L -9.68575 -5.92606 L -9.66477 -5.93397 L -9.6438 -5.94188 L -9.62283 -5.9498 L -9.60186 -5.95774 L -9.58089 -5.96568" />
    <path d="M -35.68682 -3.34489 A 75 56.70589 276.01496 0 0 -30.63983 -2.50662" />
    <path d="M -25.42238 -2.7747 A 74.5 56.32785 276.01496 0 0 -9.87461 -5.85538" />
    <path d="M 14.9216 2.29411 A 75 56.70589 96.01496 0 1 9.87461 1.45584 L 9.85362 1.45112 L 9.83263 1.44639 L 9.81164 1.44165 L 9.79066 1.4369 L 9.76967 1.43214 L 9.74869 1.42737 L 9.72771 1.42259 L 9.70673 1.4178 L 9.68575 1.413 L 9.66477 1.40818 L 9.6438 1.40336 L 9.62283 1.39853 L 9.60186 1.39369 L 9.58089 1.38884 L 9.58089 0.87686" />
    <path d="M 9.87461 1.45584 L 9.87461 0.94449" />
    <path d="M 9.27291 5.56336 C 9.17 5.6 9.07 5.63 8.96389 5.66854 C 8.86 5.7 8.75 5.74 8.64771 5.77163 C 8.54 5.81 8.43 5.84 8.32602 5.87218 C 8.27 5.89 8.22 5.91 8.16361 5.92137 C 8.11 5.94 8.05 5.95 8.00043 5.96977 C 7.95 5.99 7.89 6 7.83669 6.01733 C 7.78 6.03 7.73 6.05 7.67259 6.06399 C 7.62 6.08 7.56 6.09 7.50832 6.10971 C 7.45 6.12 7.4 6.14 7.34408 6.15444 C 7.29 6.17 7.23 6.18 7.18008 6.19814 C 7.13 6.21 7.07 6.23 7.0165 6.24077 C 6.96 6.25 6.91 6.27 6.85354 6.28228 C 6.8 6.3 6.75 6.31 6.6914 6.32264 C 6.62 6.34 6.56 6.36 6.49103 6.3712 C 6.42 6.39 6.36 6.4 6.29201 6.41799 C 6.23 6.43 6.16 6.45 6.09453 6.46298 C 6.03 6.48 5.96 6.49 5.89872 6.50615 C 5.83 6.52 5.77 6.53 5.70474 6.54747 C 5.64 6.56 5.58 6.57 5.51273 6.58694 C 5.45 6.6 5.39 6.61 5.32281 6.62454 C 5.26 6.64 5.2 6.65 5.13512 6.66024 C 5.09 6.67 5.04 6.68 4.99267 6.68636 C 4.95 6.69 4.9 6.7 4.85162 6.71135 C 4.8 6.72 4.76 6.73 4.71202 6.73522 C 4.67 6.74 4.62 6.75 4.5739 6.75797 C 4.53 6.77 4.48 6.77 4.43729 6.7796 C 4.39 6.79 4.35 6.79 4.30222 6.8001 C 4.21 6.81 4.12 6.83 4.03682 6.83773 C 3.69 6.88 3.36 6.92 3.04242 6.94323 C 2.42 6.99 1.87 6.99 1.41425 6.94018 L 1.41425 7.46352 L 0.1125 7.32636" />
    <path d="M 1.41425 6.94018 L 0.1125 6.80301 L 0.1125 7.32636" />
    <path d="M 0.1125 6.80301 L 0.13236 6.79275 L 0.15223 6.7825 L 0.17209 6.77226 L 0.19197 6.76203 L 0.21184 6.75181 L 0.23171 6.74159 L 0.25159 6.73139 L 0.27147 6.7212 L 0.29136 6.71102 L 0.31124 6.70085 L 0.33113 6.69068 L 0.35102 6.68053 L 0.37091 6.67039 L 0.39081 6.66026" />
    <path d="M 0.76233 4.38387 C 0.81 4.39 0.86 4.39 0.90926 4.401 C 0.96 4.41 1 4.41 1.04932 4.42071 C 1.09 4.43 1.14 4.44 1.18236 4.44298 C 1.23 4.45 1.27 4.46 1.30824 4.46783 C 1.35 4.48 1.39 4.49 1.4268 4.49526 C 1.47 4.5 1.5 4.51 1.53787 4.52528 C 1.57 4.54 1.61 4.55 1.64128 4.55792 C 1.67 4.57 1.71 4.58 1.73682 4.59321 C 1.77 4.61 1.8 4.62 1.82429 4.63116 C 1.85 4.64 1.88 4.66 1.90346 4.67182 C 1.93 4.69 1.95 4.7 1.97411 4.71523 C 2 4.73 2.02 4.75 2.03599 4.76144 C 2.06 4.78 2.07 4.79 2.08882 4.81049 C 2.1 4.83 2.12 4.84 2.13233 4.86245 C 2.15 4.88 2.16 4.9 2.16622 4.91737 C 2.18 4.94 2.18 4.96 2.19018 4.97531 C 2.2 4.99 2.2 5.01 2.20293 5.02971 C 2.21 5.05 2.21 5.07 2.20723 5.08662 C 2.21 5.11 2.21 5.13 2.2013 5.15592 C 2.2 5.18 2.19 5.2 2.18326 5.22871 C 2.18 5.25 2.17 5.28 2.15271 5.30505 C 2.14 5.33 2.13 5.36 2.10926 5.38498 C 2.1 5.4 2.09 5.42 2.07725 5.43408 C 2.07 5.45 2.05 5.47 2.04048 5.48446 C 2.03 5.5 2.01 5.52 1.9989 5.53611 C 1.98 5.55 1.97 5.57 1.95244 5.58904 C 1.94 5.61 1.92 5.62 1.90105 5.64321 C 1.88 5.66 1.86 5.68 1.84466 5.69863 C 1.83 5.72 1.8 5.74 1.78324 5.75529 C 1.76 5.77 1.74 5.79 1.71674 5.81316 C 1.7 5.83 1.68 5.85 1.65859 5.86135 C 1.64 5.88 1.62 5.89 1.597 5.91034 C 1.58 5.93 1.55 5.94 1.53198 5.96009 C 1.51 5.98 1.49 5.99 1.46355 6.01059 C 1.44 6.03 1.42 6.04 1.39172 6.06178 C 1.37 6.08 1.34 6.1 1.31653 6.11364 C 1.29 6.13 1.26 6.15 1.23801 6.16613 C 1.21 6.18 1.18 6.2 1.15621 6.21922 C 1.13 6.24 1.1 6.25 1.07118 6.27286 C 1.04 6.29 1.01 6.31 0.98297 6.32701 C 0.95 6.35 0.92 6.36 0.89165 6.38163 C 0.86 6.4 0.83 6.42 0.79727 6.43668 C 0.77 6.46 0.73 6.47 0.69992 6.49212 C 0.67 6.51 0.63 6.53 0.59967 6.54789 C 0.57 6.57 0.53 6.59 0.4966 6.60395 C 0.46 6.62 0.43 6.64 0.39081 6.66026" />
    <path d="M 0.76233 4.38387 L -26.57454 1.50344 L -26.57454 2.01479" />
    <path d="M -34.4332 2.82167 C -34.39 2.8 -34.35 2.79 -34.31146 2.77042 C -34.27 2.75 -34.23 2.74 -34.18831 2.72009 C -34.11 2.69 -34.02 2.65 -33.93815 2.62225 C -33.85 2.59 -33.77 2.56 -33.68345 2.52826 C -33.6 2.5 -33.51 2.47 -33.42497 2.43825 C -33.34 2.41 -33.25 2.38 -33.16345 2.3523 C -33.08 2.32 -32.99 2.3 -32.89964 2.27048 C -32.81 2.24 -32.72 2.22 -32.63429 2.19285 C -32.55 2.17 -32.46 2.14 -32.36813 2.11944 C -32.28 2.1 -32.19 2.07 -32.10189 2.05028 C -32.01 2.03 -31.92 2.01 -31.83629 1.98536 C -31.75 1.96 -31.66 1.94 -31.57206 1.92467 C -31.48 1.91 -31.4 1.89 -31.30988 1.86818 C -31.27 1.86 -31.22 1.85 -31.17979 1.84151 C -31.14 1.83 -31.09 1.82 -31.05047 1.81586 C -31.01 1.81 -30.96 1.8 -30.922 1.79124 C -30.88 1.78 -30.84 1.78 -30.79448 1.76764 C -30.75 1.76 -30.71 1.75 -30.66797 1.74505 C -30.63 1.74 -30.58 1.73 -30.54257 1.72345 C -30.5 1.72 -30.46 1.71 -30.41836 1.70284 C -30.38 1.7 -30.34 1.69 -30.2954 1.68321 C -30.25 1.68 -30.2 1.67 -30.15238 1.66133 C -30.1 1.65 -30.06 1.65 -30.01081 1.64068 C -29.96 1.63 -29.92 1.63 -29.87074 1.62125 C -29.82 1.61 -29.78 1.61 -29.73219 1.60301 C -29.69 1.6 -29.64 1.59 -29.59519 1.58593 C -29.55 1.58 -29.5 1.58 -29.45979 1.57 C -29.37 1.56 -29.28 1.55 -29.19386 1.54149 C -28.84 1.51 -28.51 1.48 -28.199 1.46938 C -27.57 1.44 -27.03 1.46 -26.57454 1.50344" />
    <path d="M -34.4332 2.82167 L -34.47624 2.84126 L -34.51928 2.8609 L -34.5623 2.88057 L -34.60532 2.90028 L -34.64832 2.92004 L -34.69131 2.93983 L -34.7343 2.95966 L -34.77727 2.97953 L -34.82023 2.99945 L -34.86319 3.0194 L -34.90613 3.03939 L -34.94906 3.05942 L -34.99199 3.07949 L -35.0349 3.09959 L -35.0349 3.62294 L -36.33665 3.48578 C -36.39 3.48 -36.45 3.47 -36.50008 3.466 C -36.55 3.46 -36.6 3.45 -36.6549 3.44203 C -36.71 3.43 -36.75 3.42 -36.80093 3.41387 C -36.85 3.4 -36.89 3.39 -36.93794 3.38156 C -36.98 3.37 -37.02 3.36 -37.06573 3.34511 C -37.11 3.33 -37.15 3.32 -37.18405 3.30457 C -37.22 3.29 -37.26 3.28 -37.29265 3.25995 C -37.33 3.24 -37.36 3.23 -37.39126 3.21128 C -37.42 3.19 -37.45 3.18 -37.47958 3.15862 C -37.51 3.14 -37.53 3.12 -37.55732 3.10199 C -37.57 3.09 -37.58 3.08 -37.59211 3.0722 C -37.6 3.06 -37.61 3.05 -37.62414 3.04144 C -37.63 3.03 -37.64 3.02 -37.65334 3.00971 C -37.66 3 -37.67 2.99 -37.67969 2.97703 C -37.69 2.97 -37.7 2.95 -37.70313 2.94339 C -37.71 2.93 -37.72 2.92 -37.72361 2.90881 C -37.73 2.9 -37.74 2.89 -37.74109 2.8733 C -37.75 2.86 -37.75 2.85 -37.75551 2.83686 C -37.76 2.82 -37.76 2.81 -37.76682 2.7995 C -37.77 2.79 -37.77 2.77 -37.77497 2.76124 C -37.78 2.75 -37.78 2.74 -37.7799 2.72208 C -37.78 2.71 -37.78 2.7 -37.78156 2.68203 L -37.78156 2.16198 C -37.78 2.15 -37.78 2.14 -37.78087 2.13608 C -37.78 2.12 -37.78 2.1 -37.77467 2.07882 C -37.77 2.06 -37.77 2.04 -37.76185 2.01995 C -37.76 2 -37.75 1.98 -37.74227 1.95952 C -37.73 1.94 -37.73 1.92 -37.71575 1.89759 C -37.71 1.88 -37.69 1.86 -37.68213 1.83421 C -37.67 1.81 -37.66 1.79 -37.64124 1.76944 C -37.63 1.75 -37.61 1.73 -37.59291 1.70335 C -37.58 1.68 -37.56 1.66 -37.53696 1.63599 C -37.52 1.62 -37.5 1.6 -37.48332 1.57783 C -37.46 1.56 -37.44 1.54 -37.42387 1.51879 C -37.4 1.5 -37.38 1.48 -37.35855 1.45895 C -37.34 1.44 -37.31 1.42 -37.28727 1.39842 C -37.26 1.38 -37.24 1.36 -37.21001 1.33729 C -37.18 1.32 -37.16 1.3 -37.12672 1.27567 C -37.1 1.26 -37.07 1.23 -37.0374 1.21365 C -37.01 1.19 -36.97 1.17 -36.94202 1.15133 C -36.91 1.13 -36.88 1.11 -36.84061 1.08882 C -36.81 1.07 -36.77 1.05 -36.73318 1.02623 C -36.7 1.01 -36.66 0.98 -36.61977 0.96366 C -36.58 0.94 -36.54 0.92 -36.50043 0.9012 C -36.46 0.88 -36.42 0.86 -36.37521 0.83896 C -36.33 0.82 -36.29 0.8 -36.2442 0.77705 C -36.2 0.76 -36.15 0.74 -36.10747 0.71556 C -36.06 0.7 -36.01 0.67 -35.96513 0.65459" />
    <path d="M -35.0349 3.09959 L -36.33665 2.96243 L -36.33665 3.48578" />
    <path d="M -36.33665 2.96243 C -36.39 2.96 -36.45 2.95 -36.50006 2.94267 C -36.55 2.94 -36.6 2.93 -36.65487 2.91874 C -36.71 2.91 -36.75 2.9 -36.80088 2.89065 C -36.85 2.88 -36.89 2.87 -36.93789 2.85844 C -36.98 2.85 -37.02 2.83 -37.06567 2.82212 C -37.11 2.81 -37.15 2.8 -37.18398 2.78172 C -37.22 2.77 -37.26 2.75 -37.29258 2.73727 C -37.33 2.72 -37.36 2.71 -37.39119 2.68881 C -37.42 2.67 -37.45 2.65 -37.47952 2.63637 C -37.51 2.62 -37.53 2.6 -37.55727 2.57999 C -37.57 2.57 -37.58 2.56 -37.59207 2.55033 C -37.6 2.54 -37.61 2.53 -37.6241 2.51971 C -37.63 2.51 -37.64 2.5 -37.65331 2.48813 C -37.66 2.48 -37.67 2.47 -37.67966 2.4556 C -37.69 2.44 -37.7 2.43 -37.7031 2.42212 C -37.71 2.41 -37.72 2.4 -37.72359 2.3877 C -37.73 2.38 -37.74 2.36 -37.74107 2.35235 C -37.75 2.34 -37.75 2.33 -37.7555 2.31608 C -37.76 2.3 -37.76 2.29 -37.76681 2.2789 C -37.77 2.27 -37.77 2.25 -37.77497 2.24081 C -37.78 2.23 -37.78 2.21 -37.7799 2.20184 C -37.78 2.19 -37.78 2.18 -37.78156 2.16198" />
    <path d="M -22.15339 -1.61242 C -22.19 -1.61 -22.24 -1.6 -22.27642 -1.59363 C -22.32 -1.59 -22.36 -1.58 -22.39928 -1.57455 C -22.44 -1.57 -22.48 -1.56 -22.52204 -1.55516 C -22.56 -1.55 -22.6 -1.54 -22.64475 -1.53547 C -22.69 -1.53 -22.73 -1.52 -22.76748 -1.51546 C -22.81 -1.51 -22.85 -1.5 -22.89028 -1.49513 C -22.93 -1.49 -22.97 -1.48 -23.0132 -1.47447 C -23.05 -1.47 -23.1 -1.46 -23.13629 -1.45348 C -23.18 -1.45 -23.22 -1.44 -23.25959 -1.43215 C -23.3 -1.42 -23.34 -1.42 -23.38313 -1.41048 C -23.42 -1.4 -23.47 -1.4 -23.50695 -1.38847 C -23.55 -1.38 -23.59 -1.37 -23.63108 -1.3661 C -23.67 -1.36 -23.71 -1.35 -23.75554 -1.34338 C -23.8 -1.34 -23.84 -1.33 -23.88034 -1.32031 C -23.92 -1.31 -23.96 -1.3 -24.0055 -1.29689 C -24.05 -1.29 -24.09 -1.28 -24.13104 -1.27312 C -24.17 -1.27 -24.21 -1.26 -24.25695 -1.24899 C -24.3 -1.24 -24.34 -1.23 -24.38323 -1.22452 C -24.43 -1.22 -24.47 -1.21 -24.50988 -1.19972 C -24.55 -1.19 -24.59 -1.18 -24.63689 -1.17457 C -24.68 -1.17 -24.72 -1.16 -24.76423 -1.14911 C -24.81 -1.14 -24.85 -1.13 -24.8919 -1.12332 C -24.93 -1.11 -24.98 -1.11 -25.01985 -1.09724 C -25.06 -1.09 -25.11 -1.08 -25.14806 -1.07086 C -25.19 -1.06 -25.23 -1.05 -25.27649 -1.04422 C -25.32 -1.04 -25.36 -1.03 -25.40509 -1.01732 C -25.45 -1.01 -25.49 -1 -25.5338 -0.99018 C -25.58 -0.98 -25.62 -0.97 -25.66258 -0.96284 C -25.83 -0.93 -26.01 -0.89 -26.17682 -0.85198 C -26.97 -0.69 -27.81 -0.46 -28.68355 -0.34524" />
    <path d="M 9.27291 5.56336 L 9.31584 5.54744 L 9.35878 5.53156 L 9.40172 5.51572 L 9.44468 5.49991 L 9.48764 5.48415 L 9.5306 5.46842 L 9.57358 5.45274 L 9.61656 5.43709 L 9.65955 5.42148 L 9.70255 5.40591 L 9.74555 5.39038 L 9.78857 5.37489 L 9.83159 5.35943 L 9.87461 5.34402" />
    <path d="M 9.27291 6.07598 L 9.31584 6.05997 L 9.35878 6.04399 L 9.40172 6.02806 L 9.44467 6.01217 L 9.48763 5.99631 L 9.5306 5.98049 L 9.57358 5.96472 L 9.61656 5.94898 L 9.65955 5.93328 L 9.70255 5.91762 L 9.74555 5.902 L 9.78856 5.88642 L 9.83158 5.87088 L 9.87461 5.85538" />
    <path d="M 9.27291 6.07598 C 9.17 6.11 9.07 6.15 8.96391 6.18178 C 8.86 6.22 8.75 6.25 8.64775 6.28549 C 8.54 6.32 8.43 6.35 8.32606 6.38667 C 8.27 6.4 8.22 6.42 8.16366 6.43617 C 8.11 6.45 8.05 6.47 8.00049 6.48487 C 7.95 6.5 7.89 6.52 7.83675 6.53273 C 7.78 6.55 7.73 6.56 7.67265 6.5797 C 7.62 6.6 7.56 6.61 7.50838 6.62572 C 7.45 6.64 7.4 6.66 7.34413 6.67075 C 7.29 6.69 7.23 6.7 7.18012 6.71474 C 7.13 6.73 7.07 6.74 7.01653 6.75766 C 6.96 6.77 6.91 6.79 6.85356 6.79945 C 6.8 6.81 6.75 6.83 6.6914 6.84009 C 6.62 6.86 6.56 6.87 6.49104 6.88899 C 6.42 6.9 6.36 6.92 6.29204 6.93611 C 6.23 6.95 6.16 6.97 6.09456 6.98142 C 6.03 7 5.96 7.01 5.89876 7.0249 C 5.83 7.04 5.77 7.05 5.70478 7.06654 C 5.64 7.08 5.58 7.09 5.51276 7.1063 C 5.45 7.12 5.39 7.13 5.32283 7.14418 C 5.26 7.16 5.2 7.17 5.13512 7.18017 C 5.09 7.19 5.04 7.2 4.9927 7.20648 C 4.95 7.22 4.9 7.22 4.85168 7.23167 C 4.8 7.24 4.76 7.25 4.71211 7.25573 C 4.67 7.26 4.62 7.27 4.574 7.27867 C 4.53 7.29 4.48 7.29 4.43741 7.30047 C 4.39 7.31 4.35 7.31 4.30235 7.32115 C 4.21 7.33 4.12 7.35 4.03698 7.35911 C 3.69 7.41 3.36 7.44 3.04259 7.4657 C 2.42 7.51 1.87 7.51 1.41425 7.46352" />
    <path d="M 0.76233 4.89523 C 0.81 4.9 0.85 4.9 0.88909 4.90981 C 0.93 4.91 0.97 4.92 1.01077 4.9263 C 1.05 4.93 1.09 4.94 1.1273 4.94471 C 1.17 4.95 1.2 4.96 1.23858 4.96503 C 1.27 4.97 1.31 4.98 1.34452 4.98726 C 1.38 4.99 1.41 5 1.445 5.01142 C 1.48 5.02 1.51 5.03 1.53993 5.03751 C 1.57 5.05 1.6 5.06 1.62919 5.06554 C 1.66 5.08 1.69 5.09 1.71265 5.09554 C 1.74 5.11 1.77 5.12 1.79018 5.12752 C 1.82 5.14 1.84 5.15 1.86165 5.16149 C 1.88 5.17 1.91 5.19 1.9269 5.1975 C 1.95 5.21 1.97 5.22 1.9858 5.23556 C 2 5.25 2.02 5.26 2.03817 5.27571 C 2.05 5.29 2.07 5.3 2.08385 5.31797 C 2.1 5.33 2.11 5.35 2.12266 5.36239" />
    <path d="M 0.76233 4.89523 L -26.57454 2.01479" />
    <path d="M -34.4332 3.34326 C -34.39 3.33 -34.35 3.31 -34.31152 3.29172 C -34.27 3.27 -34.23 3.26 -34.18843 3.24109 C -34.11 3.21 -34.02 3.17 -33.93837 3.14266 C -33.85 3.11 -33.77 3.08 -33.68376 3.04809 C -33.6 3.02 -33.51 2.99 -33.42535 2.95752 C -33.34 2.93 -33.25 2.9 -33.16389 2.87102 C -33.08 2.84 -32.99 2.82 -32.90012 2.78866 C -32.81 2.76 -32.72 2.74 -32.63479 2.71052 C -32.55 2.69 -32.46 2.66 -32.36862 2.63661 C -32.28 2.61 -32.19 2.59 -32.10237 2.56697 C -32.01 2.54 -31.93 2.52 -31.83674 2.50159 C -31.75 2.48 -31.66 2.46 -31.57246 2.44046 C -31.48 2.42 -31.4 2.4 -31.31023 2.38356 C -31.27 2.37 -31.22 2.37 -31.1801 2.35669 C -31.14 2.35 -31.09 2.34 -31.05074 2.33085 C -31.01 2.32 -30.96 2.31 -30.92224 2.30604 C -30.88 2.3 -30.84 2.29 -30.79467 2.28225 C -30.75 2.27 -30.71 2.27 -30.66812 2.25948 C -30.63 2.25 -30.58 2.24 -30.54267 2.23772 C -30.5 2.23 -30.46 2.22 -30.41841 2.21694 C -30.38 2.21 -30.34 2.2 -30.2954 2.19715 C -30.25 2.19 -30.2 2.18 -30.1524 2.1751 C -30.1 2.17 -30.06 2.16 -30.01085 2.1543 C -29.96 2.15 -29.92 2.14 -29.87079 2.13471 C -29.82 2.13 -29.78 2.12 -29.73226 2.11632 C -29.69 2.11 -29.64 2.1 -29.59528 2.0991 C -29.55 2.09 -29.5 2.09 -29.45988 2.08303 C -29.37 2.07 -29.28 2.06 -29.19397 2.05426 C -28.84 2.02 -28.51 2 -28.19911 1.98135 C -27.57 1.95 -27.03 1.97 -26.57454 2.01479" />
    <path d="M -34.4332 3.34326 L -34.47624 3.36298 L -34.51928 3.38274 L -34.5623 3.40254 L -34.60532 3.42237 L -34.64832 3.44225 L -34.69132 3.46217 L -34.7343 3.48213 L -34.77728 3.50212 L -34.82024 3.52216 L -34.86319 3.54224 L -34.90613 3.56235 L -34.94906 3.58251 L -34.99199 3.6027 L -35.0349 3.62294" />
    <path d="M 9.27291 5.56336 L 9.27291 6.07598" />
    <path d="M 1.41425 -0.78107 C 1.47 -0.78 1.53 -0.77 1.58959 -0.76153 C 1.65 -0.75 1.71 -0.75 1.77345 -0.73898 C 1.84 -0.73 1.9 -0.72 1.96564 -0.71344 C 2.03 -0.7 2.1 -0.69 2.16599 -0.68493 C 2.23 -0.67 2.3 -0.66 2.37434 -0.65349 C 2.45 -0.64 2.52 -0.63 2.59051 -0.61915 C 2.66 -0.61 2.74 -0.59 2.81434 -0.58196 C 2.89 -0.57 2.97 -0.56 3.04565 -0.54196 C 3.12 -0.53 3.2 -0.51 3.28426 -0.4992 C 3.37 -0.48 3.45 -0.47 3.53001 -0.45373 C 3.61 -0.44 3.7 -0.42 3.78269 -0.40562 C 3.87 -0.39 3.95 -0.37 4.04211 -0.35494 C 4.13 -0.34 4.22 -0.32 4.30805 -0.30176 C 4.35 -0.29 4.4 -0.28 4.44339 -0.27427 C 4.49 -0.27 4.53 -0.26 4.58028 -0.24618 C 4.63 -0.24 4.67 -0.23 4.71867 -0.21752 C 4.77 -0.21 4.81 -0.2 4.85855 -0.18829 C 4.91 -0.18 4.95 -0.17 4.99986 -0.15851 C 5.05 -0.15 5.09 -0.14 5.14258 -0.12819 C 5.21 -0.11 5.27 -0.1 5.33822 -0.08627 C 5.4 -0.07 5.47 -0.06 5.53625 -0.04343 C 5.6 -0.03 5.67 -0.01 5.73654 0.00028 C 5.8 0.01 5.87 0.03 5.93894 0.0448 C 6.01 0.06 6.07 0.07 6.14327 0.09008 C 6.21 0.11 6.28 0.12 6.34938 0.13606 C 6.42 0.15 6.49 0.17 6.55709 0.18267 C 6.63 0.2 6.7 0.21 6.76619 0.22984 C 7 0.28 7.24 0.34 7.48537 0.39366 C 7.73 0.45 7.97 0.5 8.20639 0.55951 C 8.68 0.67 9.15 0.78 9.58089 0.87686" />
    <path d="M 1.41425 -0.78107 L 0.1125 -0.91823" />
    <path d="M 1.30317 0.03469 C 1.26 0.03 1.22 0.03 1.17833 0.02445 C 1.14 0.02 1.09 0.02 1.04649 0.01263 C 1 0.01 0.96 0 0.90778 -0.00075 C 0.86 -0.01 0.81 -0.01 0.76233 -0.01566 L -26.57454 -2.8961 C -26.62 -2.9 -26.68 -2.91 -26.72823 -2.91271 C -26.78 -2.92 -26.83 -2.92 -26.88856 -2.93087 C -26.94 -2.94 -27 -2.94 -27.0554 -2.95057 C -27.11 -2.96 -27.17 -2.96 -27.22865 -2.9718 C -27.29 -2.98 -27.35 -2.99 -27.4082 -2.99457 C -27.47 -3 -27.53 -3.01 -27.59396 -3.0189 C -27.66 -3.03 -27.72 -3.04 -27.78582 -3.04478 C -27.85 -3.05 -27.92 -3.06 -27.98368 -3.07226 C -28.05 -3.08 -28.12 -3.09 -28.18744 -3.10133 C -28.26 -3.11 -28.33 -3.12 -28.39699 -3.13204 C -28.47 -3.14 -28.54 -3.15 -28.61222 -3.16442 C -28.68 -3.18 -28.76 -3.19 -28.83301 -3.19849 C -28.91 -3.21 -28.98 -3.22 -29.05925 -3.23431 C -29.14 -3.25 -29.21 -3.26 -29.29081 -3.27191 C -29.37 -3.28 -29.45 -3.3 -29.52754 -3.31135 C -29.61 -3.32 -29.69 -3.34 -29.7693 -3.35268 C -29.83 -3.36 -29.89 -3.37 -29.95195 -3.38462 C -30.01 -3.4 -30.08 -3.41 -30.13718 -3.41765 C -30.2 -3.43 -30.26 -3.44 -30.32485 -3.45179 C -30.39 -3.46 -30.45 -3.48 -30.51486 -3.48706 C -30.58 -3.5 -30.64 -3.51 -30.70707 -3.52348 C -30.77 -3.54 -30.84 -3.55 -30.90133 -3.56107 C -30.97 -3.57 -31.03 -3.59 -31.09752 -3.59984 C -31.16 -3.61 -31.23 -3.63 -31.29547 -3.63982 C -31.35 -3.65 -31.41 -3.66 -31.46077 -3.67389 C -31.52 -3.69 -31.57 -3.7 -31.62704 -3.70881 C -31.68 -3.72 -31.74 -3.73 -31.79413 -3.74457 C -31.85 -3.76 -31.91 -3.77 -31.96188 -3.78118 C -32.19 -3.83 -32.41 -3.88 -32.63635 -3.936 C -33.37 -4.11 -34.11 -4.31 -34.74117 -4.52231" />
    <path d="M -35.0349 -4.62165 L -35.01393 -4.61449 L -34.99297 -4.60734 L -34.972 -4.6002 L -34.95103 -4.59306 L -34.93005 -4.58594 L -34.90908 -4.57883 L -34.8881 -4.57173 L -34.86712 -4.56464 L -34.84613 -4.55756 L -34.82515 -4.55049 L -34.80416 -4.54343 L -34.78317 -4.53638 L -34.76217 -4.52934 L -34.74117 -4.52231" />
    <path d="M -35.0349 -4.62165 L -36.33665 -4.75882" />
    <path d="M -37.78156 -4.66065 C -37.78 -4.67 -37.78 -4.67 -37.7799 -4.67522 C -37.78 -4.68 -37.78 -4.68 -37.77497 -4.68907 C -37.77 -4.69 -37.77 -4.7 -37.76682 -4.70218 C -37.76 -4.71 -37.76 -4.71 -37.75551 -4.71457 C -37.75 -4.72 -37.75 -4.72 -37.74109 -4.72622 C -37.74 -4.73 -37.73 -4.73 -37.72361 -4.73713 C -37.72 -4.74 -37.71 -4.74 -37.70313 -4.74731 C -37.7 -4.75 -37.69 -4.75 -37.67969 -4.75674 C -37.67 -4.76 -37.66 -4.76 -37.65334 -4.76543 C -37.64 -4.77 -37.63 -4.77 -37.62413 -4.77337 C -37.6 -4.78 -37.58 -4.78 -37.55732 -4.78701 C -37.53 -4.79 -37.51 -4.79 -37.47958 -4.79766 C -37.45 -4.8 -37.42 -4.8 -37.39126 -4.80531 C -37.36 -4.81 -37.33 -4.81 -37.29265 -4.80995 C -37.26 -4.81 -37.22 -4.81 -37.18405 -4.8116 C -37.15 -4.81 -37.11 -4.81 -37.06573 -4.81024 C -37.02 -4.81 -36.98 -4.81 -36.93794 -4.8059 C -36.89 -4.8 -36.85 -4.8 -36.80093 -4.79857 C -36.75 -4.8 -36.71 -4.79 -36.6549 -4.78827 C -36.6 -4.78 -36.55 -4.78 -36.50008 -4.77502 C -36.45 -4.77 -36.39 -4.76 -36.33665 -4.75882" />
    <path d="M -18.96265 -2.49602 C -18.91 -2.5 -18.86 -2.5 -18.81114 -2.50804 C -18.76 -2.51 -18.71 -2.52 -18.66085 -2.52052 C -18.61 -2.52 -18.56 -2.53 -18.51165 -2.53348 C -18.46 -2.54 -18.41 -2.54 -18.36343 -2.5469 C -18.31 -2.55 -18.27 -2.56 -18.21606 -2.5608 C -18.17 -2.57 -18.12 -2.57 -18.06942 -2.57518 C -18.02 -2.58 -17.97 -2.59 -17.9234 -2.59004 C -17.87 -2.6 -17.83 -2.6 -17.77791 -2.60539 C -17.73 -2.61 -17.68 -2.62 -17.63284 -2.62124 C -17.58 -2.63 -17.54 -2.63 -17.48811 -2.63761 C -17.44 -2.64 -17.39 -2.65 -17.34364 -2.65449 C -17.3 -2.66 -17.25 -2.67 -17.19937 -2.6719 C -17.15 -2.68 -17.1 -2.68 -17.05523 -2.68985 C -17.01 -2.7 -16.96 -2.7 -16.91119 -2.70836 C -16.86 -2.71 -16.82 -2.72 -16.76721 -2.72742 C -16.72 -2.73 -16.67 -2.74 -16.62327 -2.74704 C -16.58 -2.75 -16.53 -2.76 -16.47937 -2.76725 C -16.43 -2.77 -16.38 -2.78 -16.33552 -2.78803 C -16.29 -2.8 -16.24 -2.8 -16.19174 -2.8094 C -16.14 -2.82 -16.1 -2.82 -16.04808 -2.83136 C -16 -2.84 -15.95 -2.85 -15.90458 -2.85391 C -15.86 -2.86 -15.81 -2.87 -15.76133 -2.87704 C -15.71 -2.88 -15.67 -2.89 -15.61842 -2.90076 C -15.57 -2.91 -15.52 -2.92 -15.47597 -2.92504 C -15.45 -2.93 -15.43 -2.93 -15.40495 -2.9374 C -15.38 -2.94 -15.36 -2.95 -15.3341 -2.94989 C -15.29 -2.96 -15.24 -2.97 -15.19296 -2.97528 C -15.1 -2.99 -15.01 -3.01 -14.91363 -3.02759 C -14.73 -3.06 -14.55 -3.1 -14.37313 -3.13736 C -13.9 -3.25 -12.72 -3.49 -13.108 -3.55754" />
    <path d="M -21.63839 -2.37598 C -21.58 -2.38 -21.53 -2.38 -21.46856 -2.37849 C -21.41 -2.38 -21.36 -2.38 -21.29937 -2.38167 C -21.24 -2.38 -21.19 -2.38 -21.13081 -2.38551 C -21.07 -2.39 -21.02 -2.39 -20.96284 -2.39001 C -20.91 -2.39 -20.85 -2.39 -20.7954 -2.39517 C -20.74 -2.4 -20.68 -2.4 -20.62842 -2.40099 C -20.57 -2.4 -20.52 -2.41 -20.46184 -2.40746 C -20.41 -2.41 -20.35 -2.41 -20.29555 -2.41459 C -20.24 -2.42 -20.18 -2.42 -20.12946 -2.42238 C -20.07 -2.43 -20.02 -2.43 -19.96346 -2.43083 C -19.91 -2.43 -19.85 -2.44 -19.79745 -2.43995 C -19.74 -2.44 -19.69 -2.45 -19.63129 -2.44975 C -19.58 -2.45 -19.52 -2.46 -19.46486 -2.46024 C -19.41 -2.46 -19.35 -2.47 -19.29803 -2.47143 C -19.24 -2.48 -19.19 -2.48 -19.13067 -2.48335 C -19.07 -2.49 -19.02 -2.49 -18.96265 -2.49602" />
    <path d="M -28.83799 -2.33927 C -28.84 -2.34 -28.84 -2.34 -28.8362 -2.33932 C -28.84 -2.34 -28.83 -2.34 -28.83344 -2.33924 C -28.83 -2.34 -28.83 -2.34 -28.82963 -2.33902 C -28.83 -2.34 -28.83 -2.34 -28.82472 -2.33866 C -28.82 -2.34 -28.82 -2.34 -28.81866 -2.33815 C -28.82 -2.34 -28.81 -2.34 -28.81142 -2.33748 C -28.81 -2.34 -28.81 -2.34 -28.80298 -2.33664 C -28.8 -2.34 -28.8 -2.34 -28.79333 -2.33565 C -28.79 -2.34 -28.79 -2.34 -28.78497 -2.33475 C -28.78 -2.33 -28.78 -2.33 -28.77596 -2.33377 C -28.77 -2.33 -28.77 -2.33 -28.76633 -2.3327 C -28.76 -2.33 -28.76 -2.33 -28.75613 -2.33154 C -28.75 -2.33 -28.75 -2.33 -28.74541 -2.33031 C -28.74 -2.33 -28.74 -2.33 -28.73422 -2.32901 C -28.73 -2.33 -28.73 -2.33 -28.72262 -2.32765 C -28.72 -2.33 -28.71 -2.33 -28.71068 -2.32624 C -28.71 -2.33 -28.7 -2.33 -28.69765 -2.32469 C -28.69 -2.32 -28.69 -2.32 -28.68433 -2.32309 C -28.68 -2.32 -28.68 -2.32 -28.67076 -2.32145 C -28.67 -2.32 -28.66 -2.32 -28.65698 -2.31978 C -28.65 -2.32 -28.65 -2.32 -28.64302 -2.31808 C -28.64 -2.32 -28.63 -2.32 -28.6289 -2.31635 C -28.62 -2.32 -28.62 -2.32 -28.61465 -2.3146 C -28.61 -2.31 -28.61 -2.31 -28.6003 -2.31283 C -28.6 -2.31 -28.59 -2.31 -28.58587 -2.31105 C -28.58 -2.31 -28.58 -2.31 -28.57137 -2.30926 C -28.56 -2.31 -28.55 -2.31 -28.54222 -2.30564 C -28.52 -2.3 -28.5 -2.3 -28.48356 -2.29833 C -28.31 -2.28 -28.13 -2.25 -27.96433 -2.23387 C -27.61 -2.19 -27.27 -2.15 -26.93232 -2.11597" />
    <path d="M -36.22693 -3.47579 L -36.1884 -3.46618 L -36.14986 -3.45661 L -36.11131 -3.44708 L -36.07275 -3.43759 L -36.03419 -3.42814 L -35.99562 -3.41873 L -35.95704 -3.40936 L -35.91846 -3.40003 L -35.87987 -3.39074 L -35.84127 -3.38149 L -35.80267 -3.37228 L -35.76406 -3.36311 L -35.72545 -3.35398 L -35.68682 -3.34489" />
    <path d="M -36.22693 -3.47579 C -36.26 -3.48 -36.29 -3.49 -36.32514 -3.50154 C -36.36 -3.51 -36.39 -3.52 -36.42001 -3.5271 C -36.45 -3.54 -36.48 -3.54 -36.51155 -3.55245 C -36.54 -3.56 -36.57 -3.57 -36.59975 -3.57758 C -36.63 -3.59 -36.66 -3.59 -36.68463 -3.60247 C -36.71 -3.61 -36.74 -3.62 -36.76618 -3.6271 C -36.79 -3.64 -36.82 -3.64 -36.84441 -3.65146 C -36.87 -3.66 -36.89 -3.67 -36.91934 -3.67554 C -36.94 -3.68 -36.97 -3.69 -36.99097 -3.69931 C -37.01 -3.71 -37.04 -3.72 -37.05933 -3.72277 C -37.08 -3.73 -37.1 -3.74 -37.12441 -3.7459 C -37.15 -3.75 -37.17 -3.76 -37.18624 -3.76868 C -37.21 -3.78 -37.23 -3.78 -37.24484 -3.79109 C -37.26 -3.8 -37.28 -3.81 -37.30023 -3.81314 C -37.32 -3.82 -37.34 -3.83 -37.35242 -3.83479 C -37.37 -3.84 -37.39 -3.85 -37.40145 -3.85604 C -37.42 -3.86 -37.43 -3.87 -37.44733 -3.87687 C -37.46 -3.88 -37.48 -3.89 -37.4901 -3.89728 C -37.5 -3.9 -37.52 -3.91 -37.52979 -3.91724 C -37.54 -3.92 -37.55 -3.93 -37.56641 -3.93675 C -37.58 -3.94 -37.59 -3.95 -37.60002 -3.95579 C -37.61 -3.96 -37.62 -3.97 -37.63063 -3.97436 C -37.64 -3.98 -37.65 -3.99 -37.65829 -3.99244 C -37.67 -4 -37.68 -4 -37.68303 -4.01003 C -37.69 -4.02 -37.7 -4.02 -37.70489 -4.0271 C -37.71 -4.03 -37.72 -4.04 -37.72392 -4.04367 C -37.73 -4.05 -37.74 -4.05 -37.74015 -4.05971 C -37.75 -4.06 -37.75 -4.07 -37.75363 -4.07522 C -37.77 -4.1 -37.78 -4.11 -37.78098 -4.13185 C -37.78 -4.13 -37.78 -4.14 -37.78156 -4.1406 C -37.78 -4.15 -37.78 -4.15 -37.7799 -4.15498 C -37.78 -4.16 -37.78 -4.16 -37.77497 -4.16863 C -37.77 -4.17 -37.77 -4.18 -37.76681 -4.18157 C -37.76 -4.19 -37.76 -4.19 -37.7555 -4.19377 C -37.75 -4.2 -37.75 -4.2 -37.74107 -4.20525 C -37.74 -4.21 -37.73 -4.21 -37.72359 -4.21599 C -37.72 -4.22 -37.71 -4.22 -37.7031 -4.226 C -37.7 -4.23 -37.69 -4.23 -37.67966 -4.23528 C -37.67 -4.24 -37.66 -4.24 -37.65331 -4.24381 C -37.64 -4.25 -37.63 -4.25 -37.62409 -4.25161 C -37.61 -4.25 -37.6 -4.26 -37.59207 -4.25867 C -37.58 -4.26 -37.57 -4.26 -37.55727 -4.26498 C -37.53 -4.27 -37.51 -4.27 -37.47952 -4.27538 C -37.45 -4.28 -37.42 -4.28 -37.39119 -4.2828 C -37.36 -4.28 -37.33 -4.29 -37.29258 -4.28725 C -37.26 -4.29 -37.22 -4.29 -37.18398 -4.28872 C -37.15 -4.29 -37.11 -4.29 -37.06567 -4.28722 C -37.02 -4.29 -36.98 -4.28 -36.93788 -4.28276 C -36.89 -4.28 -36.85 -4.28 -36.80088 -4.27534 C -36.75 -4.27 -36.71 -4.27 -36.65487 -4.26498 C -36.6 -4.26 -36.55 -4.26 -36.50006 -4.25168 C -36.45 -4.25 -36.39 -4.24 -36.33665 -4.23547 L -36.33665 -4.75882" />
    <path d="M -35.0349 -4.09831 L -36.33665 -4.23547" />
    <path d="M -35.0349 -4.09831 L -35.01393 -4.09121 L -34.99297 -4.08412 L -34.972 -4.07704 L -34.95103 -4.06997 L -34.93005 -4.06291 L -34.90908 -4.05587 L -34.8881 -4.04883 L -34.86712 -4.0418 L -34.84613 -4.03478 L -34.82515 -4.02778 L -34.80416 -4.02078 L -34.78316 -4.01379 L -34.76217 -4.00682 L -34.74117 -3.99985 L -34.74117 -4.52231" />
    <path d="M -26.57454 -2.38474 C -26.62 -2.39 -26.68 -2.4 -26.72822 -2.40135 C -26.78 -2.41 -26.83 -2.41 -26.88854 -2.41948 C -26.94 -2.43 -27 -2.43 -27.05537 -2.43914 C -27.11 -2.45 -27.17 -2.45 -27.22861 -2.46032 C -27.29 -2.47 -27.35 -2.48 -27.40816 -2.48303 C -27.47 -2.49 -27.53 -2.5 -27.59391 -2.50727 C -27.66 -2.52 -27.72 -2.52 -27.78576 -2.53306 C -27.85 -2.54 -27.92 -2.55 -27.98361 -2.56042 C -28.05 -2.57 -28.12 -2.58 -28.18736 -2.58936 C -28.26 -2.6 -28.33 -2.61 -28.39691 -2.61993 C -28.47 -2.63 -28.54 -2.64 -28.61214 -2.65214 C -28.68 -2.66 -28.76 -2.67 -28.83294 -2.68604 C -28.91 -2.7 -28.98 -2.71 -29.05919 -2.72166 C -29.14 -2.73 -29.21 -2.75 -29.29076 -2.75905 C -29.37 -2.77 -29.45 -2.78 -29.52752 -2.79826 C -29.61 -2.81 -29.69 -2.83 -29.7693 -2.83934 C -29.83 -2.85 -29.89 -2.86 -29.95193 -2.87107 C -30.01 -2.88 -30.07 -2.89 -30.13715 -2.90389 C -30.2 -2.92 -30.26 -2.93 -30.32481 -2.93781 C -30.39 -2.95 -30.45 -2.96 -30.51482 -2.97284 C -30.58 -2.98 -30.64 -3 -30.70703 -3.00901 C -30.77 -3.02 -30.84 -3.03 -30.9013 -3.04634 C -30.97 -3.06 -31.03 -3.07 -31.0975 -3.08484 C -31.16 -3.1 -31.23 -3.11 -31.29547 -3.12454 C -31.35 -3.14 -31.41 -3.15 -31.46075 -3.15836 C -31.52 -3.17 -31.57 -3.18 -31.62701 -3.19301 C -31.68 -3.2 -31.74 -3.22 -31.79409 -3.22851 C -31.85 -3.24 -31.91 -3.25 -31.96184 -3.26484 C -32.19 -3.31 -32.41 -3.37 -32.63635 -3.41847 C -33.37 -3.59 -34.11 -3.79 -34.74117 -3.99985" />
    <path d="M 0.76233 0.4957 L -26.57454 -2.38474 L -26.57454 -2.8961" />
    <path d="M 0.65261 -0.20539 C 0.68 -0.19 0.71 -0.18 0.74054 -0.17386 C 0.77 -0.16 0.8 -0.15 0.82614 -0.14294 C 0.85 -0.13 0.88 -0.12 0.90935 -0.11265 C 0.94 -0.1 0.96 -0.09 0.99013 -0.083 C 1.02 -0.07 1.04 -0.06 1.06844 -0.05401 C 1.09 -0.04 1.12 -0.04 1.14423 -0.02569 C 1.17 -0.02 1.19 -0.01 1.21747 0.00196 C 1.24 0.01 1.27 0.02 1.28813 0.02891 C 1.31 0.04 1.33 0.05 1.35617 0.05517 C 1.38 0.06 1.4 0.07 1.42158 0.08072 C 1.44 0.09 1.46 0.1 1.48433 0.10556 C 1.5 0.11 1.52 0.12 1.5444 0.12968 C 1.56 0.14 1.58 0.15 1.60178 0.15308 C 1.62 0.16 1.64 0.17 1.65646 0.17576 C 1.67 0.18 1.69 0.19 1.70843 0.19771 C 1.73 0.2 1.74 0.21 1.75769 0.21893 C 1.78 0.23 1.8 0.24 1.81875 0.24591 C 1.84 0.25 1.86 0.26 1.87514 0.27165 C 1.89 0.28 1.91 0.29 1.92689 0.29616 C 1.94 0.3 1.96 0.31 1.97406 0.31946 C 1.99 0.33 2 0.33 2.01669 0.34156 C 2.03 0.35 2.04 0.36 2.05483 0.36249 C 2.07 0.37 2.08 0.38 2.08854 0.38227 C 2.1 0.39 2.11 0.39 2.11788 0.40091 C 2.13 0.41 2.15 0.42 2.15749 0.4297 C 2.17 0.44 2.18 0.45 2.18535 0.45548 C 2.19 0.46 2.2 0.47 2.20182 0.47838 C 2.21 0.49 2.21 0.49 2.20723 0.49852 C 2.21 0.51 2.21 0.51 2.20145 0.51673 C 2.2 0.52 2.19 0.53 2.18436 0.53217 C 2.18 0.54 2.17 0.54 2.15809 0.54435 C 2.15 0.55 2.14 0.55 2.12233 0.55426 C 2.11 0.56 2.09 0.56 2.07736 0.56199 C 2.06 0.56 2.04 0.57 2.02346 0.56762 C 2 0.57 1.98 0.57 1.9609 0.57125 C 1.94 0.57 1.91 0.57 1.88992 0.57294 C 1.86 0.57 1.84 0.57 1.81076 0.57276 C 1.78 0.57 1.75 0.57 1.72364 0.57077 C 1.69 0.57 1.66 0.57 1.62876 0.56705 C 1.6 0.57 1.56 0.56 1.52632 0.56162 C 1.49 0.56 1.45 0.56 1.4165 0.55455 C 1.38 0.55 1.34 0.55 1.29948 0.54587 C 1.26 0.54 1.22 0.54 1.1754 0.53562 C 1.13 0.53 1.09 0.53 1.04443 0.52382 C 1 0.52 0.95 0.52 0.9067 0.51051 C 0.86 0.51 0.81 0.5 0.76233 0.4957 L 0.76233 -0.01566" />
    <path d="M 0.65261 -0.20539 L 0.61397 -0.21866 L 0.57534 -0.23197 L 0.53672 -0.24532 L 0.49811 -0.25871 L 0.4595 -0.27215 L 0.42091 -0.28562 L 0.38233 -0.29914 L 0.34375 -0.31269 L 0.30519 -0.32629 L 0.26663 -0.33993 L 0.22808 -0.35361 L 0.18954 -0.36733 L 0.15102 -0.38109 L 0.1125 -0.39489 L 0.1125 -0.91823" />
    <path d="M 1.41425 -0.25772 L 0.1125 -0.39489" />
    <path d="M 1.41425 -0.25772 C 1.47 -0.25 1.53 -0.25 1.58957 -0.2382 C 1.65 -0.23 1.71 -0.22 1.7734 -0.2157 C 1.84 -0.21 1.9 -0.2 1.96557 -0.19022 C 2.03 -0.18 2.1 -0.17 2.1659 -0.16182 C 2.23 -0.15 2.3 -0.14 2.37423 -0.1305 C 2.44 -0.12 2.52 -0.11 2.59038 -0.09632 C 2.66 -0.08 2.74 -0.07 2.81419 -0.05931 C 2.89 -0.05 2.97 -0.03 3.04548 -0.01952 C 3.12 -0.01 3.2 0.01 3.28409 0.02302 C 3.36 0.04 3.45 0.05 3.52983 0.06823 C 3.61 0.08 3.7 0.1 3.78252 0.11605 C 3.87 0.13 3.95 0.15 4.04195 0.16643 C 4.13 0.18 4.22 0.2 4.30791 0.21927 C 4.35 0.23 4.4 0.24 4.44327 0.2466 C 4.49 0.26 4.53 0.27 4.58017 0.2745 C 4.63 0.28 4.67 0.29 4.71859 0.30298 C 4.76 0.31 4.81 0.32 4.85849 0.33202 C 4.91 0.34 4.95 0.35 4.99983 0.36161 C 5.05 0.37 5.09 0.38 5.14258 0.39172 C 5.21 0.41 5.27 0.42 5.3382 0.43336 C 5.4 0.45 5.47 0.46 5.53622 0.4759 C 5.6 0.49 5.67 0.5 5.7365 0.51929 C 5.8 0.53 5.87 0.55 5.93889 0.56349 C 6.01 0.58 6.07 0.59 6.14323 0.60844 C 6.21 0.62 6.28 0.64 6.34935 0.65408 C 6.42 0.67 6.49 0.68 6.55707 0.70035 C 6.63 0.72 6.7 0.73 6.76619 0.74718 C 7 0.8 7.24 0.85 7.48532 0.90971 C 7.73 0.96 7.97 1.02 8.20633 1.07422 C 8.68 1.18 9.15 1.29 9.58089 1.38884" />
    <path d="M -34.4332 2.82167 L -34.4332 3.34326" />
    <path d="M -42.95269 -0.3621 A 1 0.64822 265.57134 0 1 -42.37903 -1.29053 L -28.83799 -2.33927" />
    <path d="M -42.37903 -1.29053 A 1 0.64822 265.57134 0 1 -42.22459 0.7035 L -28.68355 -0.34524" />
    <path d="M -42.22459 0.7035 A 1 0.64822 265.57134 0 1 -42.95269 -0.3621" />
    <path d="M -35.0349 -4.09831 L -35.0349 -4.62165" />
    <path d="M 0.76233 4.38387 L 0.76233 4.89523" />
    <path d="M 1.41425 -0.25772 L 1.41425 -0.78107" />
    <path d="M 1.32459 -4.67533 L 3.17193 -4.81841" />
    <path d="M 30.63983 2.50662 L 26.05363 2.02338" />
    <path d="M 37.78156 4.66065 L 37.78156 4.1406" />
    <path d="M 37.78156 -2.68203 L 37.78156 -2.16198" />
    <path d="M -28.9611 -2.32974 L -30.63983 -2.50662" />
    <path d="M -37.78156 -4.66065 L -37.78156 -4.1406" />
    <path d="M -24.48762 -2.6762 L -13.108 -3.55754" />
</svg>