<svg version="1.1" xmlns="http://www.w3.org/2000/svg" viewBox="-43.79028263329242 -8.468463576115084 87.58056526658471 16.93692715223016" fill="none" stroke="black" stroke-width="0.6%" vector-effect="non-scaling-stroke">
    <path d="M 22.78291 2.33854 A 125 94.52286 95.86056 0 1 10.01943 2.17032 A 125 94.52286 95.86056 0 1 9.87772 2.15563 L 9.86624 2.15443 L 9.85476 2.15322 L 9.84328 2.15202 L 9.8318 2.15081 L 9.82033 2.1496 L 9.80885 2.14839 L 9.79737 2.14718 L 9.7859 2.14596 L 9.77442 2.14475 L 9.76294 2.14353 L 9.75147 2.14231 L 9.73999 2.14109 L 9.72852 2.13986 L 9.71704 2.13864 L 9.71704 1.63577" />
    <path d="M -35.6881 -2.52144 A 125 94.52286 275.86056 0 0 -35.54639 -2.50675" />
    <path d="M -35.9951 -2.5543 L -35.97318 -2.55191 L -35.95125 -2.54952 L -35.92933 -2.54714 L -35.9074 -2.54477 L -35.88547 -2.54241 L -35.86355 -2.54005 L -35.84162 -2.5377 L -35.81969 -2.53535 L -35.79776 -2.53302 L -35.77583 -2.53069 L -35.7539 -2.52837 L -35.73197 -2.52605 L -35.71003 -2.52374 L -35.6881 -2.52144" />
    <path d="M -35.9951 -2.5543 C -36.03 -2.56 -36.06 -2.56 -36.09411 -2.56524 C -36.13 -2.57 -36.16 -2.57 -36.19025 -2.57604 C -36.22 -2.58 -36.25 -2.58 -36.28351 -2.58669 C -36.31 -2.59 -36.34 -2.59 -36.37387 -2.59719 C -36.4 -2.6 -36.43 -2.6 -36.46134 -2.60753 C -36.49 -2.61 -36.52 -2.61 -36.5459 -2.61771 C -36.57 -2.62 -36.6 -2.62 -36.62754 -2.62772 C -36.65 -2.63 -36.68 -2.63 -36.70628 -2.63757" />
    <path d="M -36.78683 -2.78962 C -36.75 -2.79 -36.72 -2.78 -36.68682 -2.78034 C -36.65 -2.78 -36.62 -2.77 -36.58265 -2.77038 C -36.55 -2.77 -36.51 -2.76 -36.47437 -2.75972 C -36.44 -2.76 -36.4 -2.75 -36.36204 -2.74838 L -36.36204 -3.25513" />
    <path d="M -35.01036 -2.60964 L -36.36204 -2.74838" />
    <path d="M -35.01036 -2.60964 C -34.95 -2.6 -34.9 -2.6 -34.83954 -2.59175 C -34.78 -2.59 -34.72 -2.58 -34.66076 -2.57249 C -34.6 -2.57 -34.54 -2.56 -34.47414 -2.55187 C -34.41 -2.54 -34.35 -2.54 -34.27981 -2.52993 C -34.21 -2.52 -34.15 -2.51 -34.07789 -2.50667 C -34.01 -2.5 -33.94 -2.49 -33.86848 -2.48212 C -33.8 -2.47 -33.73 -2.47 -33.65169 -2.4563 C -33.58 -2.45 -33.5 -2.44 -33.42764 -2.42924 C -33.35 -2.42 -33.27 -2.41 -33.19643 -2.40097 C -33.12 -2.39 -33.04 -2.38 -32.95819 -2.37152 C -32.88 -2.36 -32.8 -2.35 -32.71303 -2.34092 C -32.63 -2.33 -32.55 -2.32 -32.4611 -2.30922 C -32.38 -2.3 -32.29 -2.29 -32.20254 -2.27646 C -32.16 -2.27 -32.11 -2.27 -32.07082 -2.2597 C -32.03 -2.25 -31.98 -2.25 -31.93751 -2.2427 C -31.89 -2.24 -31.85 -2.23 -31.80263 -2.22546 C -31.76 -2.22 -31.71 -2.21 -31.6662 -2.20799 C -31.62 -2.2 -31.57 -2.2 -31.52825 -2.1903 C -31.48 -2.18 -31.44 -2.18 -31.38881 -2.1724 C -31.34 -2.17 -31.3 -2.16 -31.25375 -2.15505 C -31.21 -2.15 -31.16 -2.14 -31.11688 -2.13745 C -31.07 -2.13 -31.02 -2.13 -30.97827 -2.11963 C -30.93 -2.11 -30.89 -2.11 -30.83805 -2.1016 C -30.79 -2.1 -30.74 -2.09 -30.69631 -2.08338 C -30.65 -2.08 -30.6 -2.07 -30.55316 -2.065 C -30.51 -2.06 -30.46 -2.05 -30.40871 -2.04647 C -30.36 -2.04 -30.31 -2.03 -30.26306 -2.02782 C -30.07 -2 -29.87 -1.98 -29.67087 -1.95237 C -29.47 -1.93 -29.27 -1.9 -29.06908 -1.87672 C -28.26 -1.78 -27.45 -1.68 -26.73561 -1.60302 L -26.73561 -2.10589" />
    <path d="M -26.57494 -1.58603 L -26.58642 -1.58723 L -26.59789 -1.58843 L -26.60937 -1.58964 L -26.62085 -1.59085 L -26.63233 -1.59206 L -26.6438 -1.59327 L -26.65528 -1.59448 L -26.66676 -1.59569 L -26.67823 -1.59691 L -26.68971 -1.59813 L -26.70118 -1.59935 L -26.71266 -1.60057 L -26.72414 -1.60179 L -26.73561 -1.60302" />
    <path d="M -25.05668 -1.44348 A 125 94.52286 95.86056 0 1 -26.43322 -1.57134 A 125 94.52286 95.86056 0 1 -26.57494 -1.58603 L -26.57494 -2.08878 L -26.58642 -2.08999 L -26.59789 -2.0912 L -26.60937 -2.09241 L -26.62085 -2.09363 L -26.63233 -2.09485 L -26.6438 -2.09607 L -26.65528 -2.09729 L -26.66676 -2.09851 L -26.67823 -2.09973 L -26.68971 -2.10096 L -26.70118 -2.10219 L -26.71266 -2.10342 L -26.72414 -2.10465 L -26.73561 -2.10589" />
    <path d="M -4.9693 0.61837 L -25.05668 -1.44348 L -25.05668 -1.94518 A 124.5 94.14477 95.86056 0 1 -26.38217 -2.06873 A 124.5 94.14477 95.86056 0 1 -26.57494 -2.08878" />
    <path d="M 0.90627 1.2349 A 125 94.52286 95.86056 0 1 0.76455 1.22021" />
    <path d="M 0.45755 1.18735 L 0.47948 1.18975 L 0.5014 1.19213 L 0.52333 1.19451 L 0.54525 1.19689 L 0.56718 1.19925 L 0.58911 1.20161 L 0.61103 1.20396 L 0.63296 1.2063 L 0.65489 1.20864 L 0.67682 1.21097 L 0.69875 1.21329 L 0.72069 1.21561 L 0.74262 1.21791 L 0.76455 1.22021" />
    <path d="M 0.45755 1.18735 C 0.42 1.18 0.39 1.18 0.35854 1.17642 C 0.33 1.17 0.29 1.17 0.2624 1.16562 C 0.23 1.16 0.2 1.16 0.16914 1.15497 C 0.14 1.15 0.11 1.15 0.07878 1.14447 C 0.05 1.14 0.02 1.14 -0.00868 1.13413 C -0.04 1.13 -0.07 1.13 -0.09324 1.12395 C -0.12 1.12 -0.15 1.12 -0.17489 1.11393 C -0.2 1.11 -0.23 1.11 -0.25363 1.10409" />
    <path d="M -0.33418 0.95204 C -0.3 0.96 -0.27 0.96 -0.23416 0.96131 C -0.2 0.96 -0.17 0.97 -0.12999 0.97128 C -0.09 0.97 -0.06 0.98 -0.02172 0.98194 C 0.02 0.99 0.05 0.99 0.09061 0.99328 L 0.09061 0.48653" />
    <path d="M 1.4423 1.13202 L 0.09061 0.99328" />
    <path d="M 1.4423 1.13202 C 1.5 1.14 1.55 1.14 1.61311 1.14991 C 1.67 1.16 1.73 1.16 1.7919 1.16917 C 1.85 1.18 1.92 1.18 1.97851 1.18978 C 2.04 1.2 2.11 1.2 2.17284 1.21173 C 2.24 1.22 2.31 1.23 2.37477 1.23499 C 2.44 1.24 2.51 1.25 2.58418 1.25954 C 2.66 1.27 2.73 1.28 2.80096 1.28535 C 2.87 1.29 2.95 1.3 3.02501 1.31241 C 3.1 1.32 3.18 1.33 3.25622 1.34069 C 3.33 1.35 3.41 1.36 3.49446 1.37014 C 3.58 1.38 3.66 1.39 3.73962 1.40074 C 3.82 1.41 3.91 1.42 3.99155 1.43244 C 4.08 1.44 4.16 1.45 4.25011 1.46519 C 4.29 1.47 4.34 1.48 4.38183 1.48195 C 4.43 1.49 4.47 1.49 4.51514 1.49896 C 4.56 1.5 4.6 1.51 4.65002 1.5162 C 4.7 1.52 4.74 1.53 4.78645 1.53367 C 4.83 1.54 4.88 1.55 4.9244 1.55136 C 4.97 1.56 5.02 1.56 5.06384 1.56926 C 5.11 1.58 5.15 1.58 5.1989 1.58661 C 5.24 1.59 5.29 1.6 5.33578 1.60421 C 5.38 1.61 5.43 1.62 5.47438 1.62203 C 5.52 1.63 5.57 1.63 5.6146 1.64006 C 5.66 1.65 5.71 1.65 5.75634 1.65827 C 5.8 1.66 5.85 1.67 5.89949 1.67666 C 5.95 1.68 6 1.69 6.04395 1.69519 C 6.09 1.7 6.14 1.71 6.18959 1.71384 C 6.38 1.74 6.58 1.76 6.78178 1.78928 C 6.98 1.81 7.18 1.84 7.38357 1.86494 C 8.19 1.97 9 2.06 9.71704 2.13864" />
    <path d="M 9.87772 2.15563 L 9.87772 1.65288 L 9.86624 1.65167 L 9.85476 1.65046 L 9.84328 1.64924 L 9.8318 1.64803 L 9.82033 1.64681 L 9.80885 1.64559 L 9.79737 1.64437 L 9.7859 1.64315 L 9.77442 1.64192 L 9.76294 1.6407 L 9.75147 1.63947 L 9.73999 1.63824 L 9.72852 1.63701 L 9.71704 1.63577" />
    <path d="M 35.6881 -0.29508 A 124.5 94.14477 95.86056 0 1 10.07048 1.67293 A 124.5 94.14477 95.86056 0 1 9.87772 1.65288" />
    <path d="M 35.6881 0.20767 L 35.6881 -0.29508" />
    <path d="M 35.6881 0.20767 A 125 94.52286 95.86056 0 1 22.78291 2.33854 A 125 94.52286 95.86056 0 1 35.54639 2.50675 L 28.09679 1.7421" />
    <path d="M 35.9951 0.1251 L 35.97318 0.13105 L 35.95125 0.13698 L 35.92933 0.14291 L 35.9074 0.14883 L 35.88547 0.15475 L 35.86355 0.16066 L 35.84162 0.16656 L 35.81969 0.17245 L 35.79776 0.17834 L 35.77583 0.18422 L 35.7539 0.19009 L 35.73197 0.19596 L 35.71003 0.20182 L 35.6881 0.20767" />
    <path d="M 35.9951 0.1251 C 36.02 0.12 36.05 0.11 36.07601 0.10187 C 36.1 0.09 36.13 0.09 36.15518 0.07846 C 36.18 0.07 36.21 0.06 36.23258 0.05491 C 36.26 0.05 36.28 0.04 36.30819 0.03122 C 36.33 0.02 36.36 0.02 36.38197 0.00741 C 36.41 0 36.43 -0.01 36.45389 -0.0165 C 36.48 -0.02 36.5 -0.03 36.52394 -0.0405 C 36.55 -0.05 36.57 -0.06 36.59208 -0.06458 C 36.61 -0.07 36.64 -0.08 36.65829 -0.08871 C 36.68 -0.1 36.7 -0.1 36.72257 -0.11288 C 36.74 -0.12 36.76 -0.13 36.78488 -0.13707 C 36.81 -0.15 36.83 -0.15 36.84522 -0.16127 C 36.87 -0.17 36.88 -0.18 36.90358 -0.18546 C 36.92 -0.19 36.94 -0.2 36.95993 -0.20963 C 36.98 -0.22 37 -0.23 37.01429 -0.23375 C 37.03 -0.24 37.05 -0.25 37.06664 -0.25781 C 37.09 -0.27 37.12 -0.28 37.14658 -0.29633 C 37.17 -0.31 37.2 -0.32 37.22138 -0.3346 C 37.25 -0.35 37.27 -0.36 37.2911 -0.37259 C 37.31 -0.39 37.34 -0.4 37.35583 -0.41028 C 37.38 -0.42 37.4 -0.44 37.41563 -0.44762 C 37.43 -0.46 37.45 -0.47 37.47059 -0.48459 C 37.49 -0.5 37.5 -0.51 37.52079 -0.52116 C 37.54 -0.53 37.55 -0.55 37.56629 -0.55729 C 37.58 -0.57 37.59 -0.58 37.60719 -0.59297 C 37.62 -0.6 37.63 -0.62 37.64357 -0.62817 C 37.65 -0.64 37.67 -0.65 37.67551 -0.66285 C 37.69 -0.67 37.69 -0.69 37.7031 -0.69701 C 37.74 -0.74 37.76 -0.79 37.77168 -0.8279 C 37.78 -0.85 37.78 -0.88 37.78246 -0.90153" />
    <path d="M -0.76455 -3.53399 A 125 94.52286 95.86056 0 1 -0.83683 -3.51555" />
    <path d="M -0.45755 -3.61655 L -0.47948 -3.61061 L -0.5014 -3.60467 L -0.52333 -3.59875 L -0.54525 -3.59282 L -0.56718 -3.58691 L -0.58911 -3.581 L -0.61103 -3.5751 L -0.63296 -3.56921 L -0.65489 -3.56332 L -0.67682 -3.55744 L -0.69875 -3.55157 L -0.72069 -3.5457 L -0.74262 -3.53984 L -0.76455 -3.53399 L -0.76455 -4.03674 A 124.5 94.14477 95.86056 0 1 -2.28281 -3.66397" />
    <path d="M -0.45755 -3.61655 C -0.43 -3.62 -0.4 -3.63 -0.37665 -3.63979 C -0.35 -3.65 -0.32 -3.66 -0.29748 -3.66319 C -0.27 -3.67 -0.25 -3.68 -0.22007 -3.68675 C -0.19 -3.69 -0.17 -3.7 -0.14446 -3.71044 C -0.12 -3.72 -0.09 -3.73 -0.07068 -3.73424 C -0.05 -3.74 -0.02 -3.75 0.00124 -3.75816 C 0.02 -3.77 0.05 -3.77 0.07128 -3.78216 C 0.09 -3.79 0.12 -3.8 0.13942 -3.80623 C 0.16 -3.81 0.18 -3.82 0.20564 -3.83036 C 0.23 -3.84 0.25 -3.85 0.26991 -3.85453 C 0.29 -3.86 0.31 -3.87 0.33223 -3.87873 C 0.35 -3.89 0.37 -3.89 0.39257 -3.90293 C 0.41 -3.91 0.43 -3.92 0.45092 -3.92712 C 0.47 -3.94 0.49 -3.94 0.50728 -3.95129 C 0.53 -3.96 0.54 -3.97 0.56164 -3.97541 C 0.58 -3.98 0.6 -3.99 0.61398 -3.99947 C 0.64 -4.01 0.67 -4.03 0.69393 -4.03799 C 0.72 -4.05 0.74 -4.06 0.76872 -4.07626 C 0.79 -4.09 0.82 -4.1 0.83845 -4.11425 C 0.86 -4.13 0.88 -4.14 0.90318 -4.15194 C 0.92 -4.16 0.94 -4.18 0.96298 -4.18928 C 0.98 -4.2 1 -4.21 1.01794 -4.22625 C 1.04 -4.24 1.05 -4.25 1.06813 -4.26281 C 1.08 -4.27 1.1 -4.29 1.11364 -4.29895 C 1.13 -4.31 1.14 -4.32 1.15454 -4.33463 C 1.17 -4.35 1.18 -4.36 1.19092 -4.36982 C 1.2 -4.38 1.21 -4.39 1.22286 -4.40451 C 1.23 -4.42 1.24 -4.43 1.25045 -4.43867 C 1.28 -4.48 1.31 -4.53 1.31903 -4.56956 C 1.33 -4.59 1.33 -4.62 1.32981 -4.64319" />
    <path d="M 27.60725 0.25052 A 124.5 94.14477 95.86056 0 1 10.14728 1.56826 L 10.14379 1.56809 L 10.14029 1.56792 L 10.13679 1.56776 L 10.1333 1.56759 L 10.1298 1.56742 L 10.1263 1.56725 L 10.12281 1.56709 L 10.11931 1.56692 L 10.11581 1.56675 L 10.11232 1.56658 L 10.10882 1.56641 L 10.10533 1.56624 L 10.10183 1.56607 L 10.09833 1.56591" />
    <path d="M 8.75539 1.43069 C 8.74 1.43 8.73 1.43 8.7236 1.42943 C 8.71 1.43 8.7 1.43 8.69384 1.42833 C 8.68 1.43 8.68 1.43 8.66616 1.42738 C 8.66 1.43 8.65 1.43 8.64057 1.4266 C 8.63 1.43 8.62 1.43 8.61708 1.42597 C 8.61 1.43 8.6 1.43 8.5957 1.4255 C 8.59 1.43 8.58 1.43 8.57645 1.42519 C 8.57 1.43 8.56 1.43 8.5593 1.42503 C 8.55 1.43 8.55 1.42 8.54427 1.42502 C 8.54 1.43 8.54 1.43 8.53134 1.42516 C 8.53 1.43 8.52 1.43 8.52048 1.42545 C 8.52 1.43 8.51 1.43 8.51168 1.42588 C 8.51 1.43 8.51 1.43 8.5049 1.42645 C 8.5 1.43 8.5 1.43 8.50011 1.42716 C 8.5 1.43 8.5 1.43 8.49728 1.42799 C 8.5 1.43 8.5 1.43 8.49634 1.42896 C 8.5 1.43 8.5 1.43 8.49738 1.43012 C 8.5 1.43 8.5 1.43 8.50044 1.43141 C 8.5 1.43 8.51 1.43 8.51081 1.43404 C 8.52 1.43 8.52 1.44 8.52721 1.43707 C 8.53 1.44 8.54 1.44 8.54934 1.44047 C 8.56 1.44 8.57 1.44 8.57694 1.44422 C 8.59 1.45 8.6 1.45 8.60975 1.44829 C 8.62 1.45 8.63 1.45 8.64755 1.45267 C 8.66 1.45 8.68 1.46 8.69011 1.45734 C 8.71 1.46 8.72 1.46 8.73721 1.46227 C 8.75 1.46 8.77 1.47 8.79129 1.46772 C 8.81 1.47 8.83 1.47 8.84996 1.47341 C 8.87 1.48 8.89 1.48 8.91299 1.47933 C 8.93 1.48 8.96 1.48 8.98018 1.48545 C 9 1.49 9.03 1.49 9.05129 1.49174 C 9.06 1.49 9.08 1.49 9.08824 1.49494 C 9.1 1.5 9.11 1.5 9.12608 1.49817 C 9.14 1.5 9.15 1.5 9.16477 1.50143 C 9.18 1.5 9.19 1.5 9.20429 1.50472 C 9.22 1.51 9.23 1.51 9.24459 1.50802 C 9.26 1.51 9.27 1.51 9.28564 1.51133 C 9.3 1.51 9.32 1.51 9.3344 1.5152 C 9.35 1.52 9.37 1.52 9.38422 1.51909 C 9.4 1.52 9.42 1.52 9.43496 1.52298 C 9.45 1.52 9.47 1.53 9.48644 1.52685 C 9.5 1.53 9.52 1.53 9.5385 1.53069 C 9.56 1.53 9.57 1.53 9.59098 1.53447 C 9.61 1.54 9.63 1.54 9.64369 1.53819 C 9.66 1.54 9.68 1.54 9.69645 1.54182 C 9.84 1.55 9.98 1.56 10.09833 1.56591" />
    <path d="M 8.75539 1.46413 L 8.75539 1.43069 L 8.76182 1.43097 L 8.76825 1.43126 L 8.77468 1.43154 L 8.78111 1.43183 L 8.78754 1.43211 L 8.79397 1.43239 L 8.8004 1.43267 L 8.80683 1.43295 L 8.81325 1.43324 L 8.81968 1.43351 L 8.82611 1.43379 L 8.83254 1.43407 L 8.83897 1.43435 L 8.8454 1.43463" />
    <path d="M 8.8454 1.47297 L 8.8454 1.43463" />
    <path d="M 26.30537 0.49534 L 26.30537 0.11689 L 26.30887 0.11623 L 26.31236 0.11556 L 26.31586 0.1149 L 26.31936 0.11424 L 26.32285 0.11358 L 26.32635 0.11291 L 26.32985 0.11225 L 26.33334 0.11159 L 26.33684 0.11092 L 26.34033 0.11026 L 26.34383 0.1096 L 26.34733 0.10893 L 26.35082 0.10827 L 26.35432 0.1076" />
    <path d="M 26.30537 0.11689 A 124.5 94.14477 95.86056 0 1 8.8454 1.43463" />
    <path d="M -8.8454 -3.49114 A 124.5 94.14477 95.86056 0 1 -26.30537 -2.1734 L -26.30887 -2.17357 L -26.31236 -2.17373 L -26.31586 -2.1739 L -26.31936 -2.17407 L -26.32285 -2.17424 L -26.32635 -2.1744 L -26.32985 -2.17457 L -26.33334 -2.17474 L -26.33684 -2.17491 L -26.34033 -2.17508 L -26.34383 -2.17525 L -26.34733 -2.17541 L -26.35082 -2.17558 L -26.35432 -2.17575" />
    <path d="M -27.69726 -2.31097 C -27.71 -2.31 -27.72 -2.31 -27.72906 -2.31223 C -27.74 -2.31 -27.75 -2.31 -27.75881 -2.31333 C -27.77 -2.31 -27.78 -2.31 -27.78649 -2.31428 C -27.8 -2.31 -27.8 -2.31 -27.81208 -2.31506 C -27.82 -2.32 -27.83 -2.32 -27.83557 -2.31569 C -27.84 -2.32 -27.85 -2.32 -27.85695 -2.31615 C -27.86 -2.32 -27.87 -2.32 -27.87621 -2.31647 C -27.88 -2.32 -27.89 -2.32 -27.89335 -2.31663 C -27.9 -2.32 -27.9 -2.32 -27.90838 -2.31664 C -27.91 -2.32 -27.92 -2.32 -27.92132 -2.3165 C -27.93 -2.32 -27.93 -2.32 -27.93218 -2.31621 C -27.94 -2.32 -27.94 -2.32 -27.94098 -2.31578 C -27.94 -2.32 -27.95 -2.32 -27.94775 -2.31521 C -27.95 -2.31 -27.95 -2.31 -27.95254 -2.3145 C -27.95 -2.31 -27.95 -2.31 -27.95538 -2.31366 C -27.96 -2.31 -27.96 -2.31 -27.95631 -2.3127 C -27.96 -2.31 -27.96 -2.31 -27.95527 -2.31154 C -27.95 -2.31 -27.95 -2.31 -27.95221 -2.31025 C -27.95 -2.31 -27.95 -2.31 -27.94184 -2.30761 C -27.94 -2.31 -27.93 -2.31 -27.92544 -2.30459 C -27.92 -2.3 -27.91 -2.3 -27.90331 -2.30119 C -27.9 -2.3 -27.89 -2.3 -27.87571 -2.29744 C -27.87 -2.3 -27.85 -2.29 -27.8429 -2.29337 C -27.83 -2.29 -27.82 -2.29 -27.8051 -2.28899 C -27.79 -2.29 -27.78 -2.29 -27.76254 -2.28432 C -27.75 -2.28 -27.73 -2.28 -27.71544 -2.27938 C -27.7 -2.28 -27.68 -2.28 -27.66136 -2.27394 C -27.64 -2.27 -27.62 -2.27 -27.6027 -2.26825 C -27.58 -2.27 -27.56 -2.26 -27.53966 -2.26233 C -27.52 -2.26 -27.5 -2.26 -27.47247 -2.25621 C -27.45 -2.25 -27.43 -2.25 -27.40137 -2.24992 C -27.39 -2.25 -27.38 -2.25 -27.36442 -2.24672 C -27.35 -2.25 -27.34 -2.24 -27.32658 -2.24349 C -27.31 -2.24 -27.3 -2.24 -27.28788 -2.24023 C -27.27 -2.24 -27.26 -2.24 -27.24836 -2.23694 C -27.24 -2.24 -27.22 -2.23 -27.20806 -2.23364 C -27.19 -2.23 -27.18 -2.23 -27.16701 -2.23033 C -27.15 -2.23 -27.13 -2.23 -27.11826 -2.22645 C -27.1 -2.23 -27.09 -2.22 -27.06843 -2.22256 C -27.05 -2.22 -27.03 -2.22 -27.0177 -2.21868 C -27 -2.22 -26.98 -2.22 -26.96621 -2.2148 C -26.95 -2.21 -26.93 -2.21 -26.91415 -2.21097 C -26.9 -2.21 -26.88 -2.21 -26.86168 -2.20718 C -26.84 -2.21 -26.83 -2.2 -26.80897 -2.20347 C -26.79 -2.2 -26.77 -2.2 -26.7562 -2.19983 C -26.62 -2.19 -26.48 -2.18 -26.35432 -2.17575" />
    <path d="M -27.69726 -2.27753 L -27.69726 -2.31097 L -27.69083 -2.31068 L -27.6844 -2.3104 L -27.67797 -2.31011 L -27.67154 -2.30983 L -27.66512 -2.30955 L -27.65869 -2.30927 L -27.65226 -2.30898 L -27.64583 -2.3087 L -27.6394 -2.30842 L -27.63297 -2.30814 L -27.62654 -2.30786 L -27.62011 -2.30759 L -27.61368 -2.30731 L -27.60725 -2.30703" />
    <path d="M -27.60725 -2.26869 L -27.60725 -2.30703" />
    <path d="M -10.14728 -3.24631 L -10.14728 -3.62477 L -10.14379 -3.62543 L -10.14029 -3.62609 L -10.13679 -3.62676 L -10.1333 -3.62742 L -10.1298 -3.62808 L -10.1263 -3.62874 L -10.12281 -3.62941 L -10.11931 -3.63007 L -10.11581 -3.63073 L -10.11232 -3.6314 L -10.10882 -3.63206 L -10.10533 -3.63273 L -10.10183 -3.63339 L -10.09833 -3.63405" />
    <path d="M -10.14728 -3.62477 A 124.5 94.14477 95.86056 0 1 -27.60725 -2.30703" />
    <path d="M -31.68364 -2.71603 A 124.5 94.14477 275.86056 0 0 -9.87772 -4.97215 L -9.86624 -4.97504 L -9.85476 -4.97792 L -9.84328 -4.98081 L -9.8318 -4.9837 L -9.82033 -4.98659 L -9.80885 -4.98948 L -9.79737 -4.99237 L -9.7859 -4.99527 L -9.77442 -4.99816 L -9.76294 -5.00106 L -9.75147 -5.00396 L -9.73999 -5.00686 L -9.72852 -5.00977 L -9.71704 -5.01267" />
    <path d="M -37.1407 -3.32609 C -37.11 -3.32 -37.09 -3.32 -37.05824 -3.31966 C -37.03 -3.32 -37 -3.32 -36.97139 -3.31252 C -36.94 -3.31 -36.91 -3.31 -36.88023 -3.30468 C -36.85 -3.3 -36.82 -3.3 -36.78483 -3.29615 C -36.75 -3.29 -36.72 -3.29 -36.68525 -3.28692 C -36.65 -3.28 -36.62 -3.28 -36.58156 -3.27701 C -36.55 -3.27 -36.51 -3.27 -36.47381 -3.26641 C -36.44 -3.26 -36.4 -3.26 -36.36204 -3.25513" />
    <path d="M -35.01036 -2.60964 L -35.01036 -3.11639 C -34.95 -3.11 -34.9 -3.1 -34.83954 -3.09849 C -34.78 -3.09 -34.72 -3.09 -34.66075 -3.07921 C -34.6 -3.07 -34.54 -3.07 -34.47413 -3.05858 C -34.41 -3.05 -34.35 -3.04 -34.2798 -3.0366 C -34.21 -3.03 -34.15 -3.02 -34.07787 -3.0133 C -34.01 -3.01 -33.94 -3 -33.86845 -2.98871 C -33.8 -2.98 -33.73 -2.97 -33.65166 -2.96283 C -33.58 -2.95 -33.5 -2.94 -33.42761 -2.93571 C -33.35 -2.93 -33.27 -2.92 -33.1964 -2.90736 C -33.12 -2.9 -33.04 -2.89 -32.95816 -2.87783 C -32.88 -2.87 -32.8 -2.86 -32.713 -2.84714 C -32.63 -2.84 -32.55 -2.83 -32.46107 -2.81535 C -32.38 -2.8 -32.29 -2.79 -32.20251 -2.78249 C -32.16 -2.78 -32.11 -2.77 -32.0708 -2.76567 C -32.03 -2.76 -31.98 -2.75 -31.93749 -2.74861 C -31.89 -2.74 -31.85 -2.74 -31.80261 -2.73131 C -31.76 -2.73 -31.71 -2.72 -31.66619 -2.71378 C -31.62 -2.71 -31.57 -2.7 -31.52825 -2.69603 C -31.48 -2.69 -31.44 -2.68 -31.38881 -2.67806 C -31.34 -2.67 -31.3 -2.67 -31.25375 -2.66064 C -31.21 -2.65 -31.16 -2.65 -31.11686 -2.64298 C -31.07 -2.64 -31.02 -2.63 -30.97825 -2.62508 C -30.93 -2.62 -30.89 -2.61 -30.83802 -2.60698 C -30.79 -2.6 -30.74 -2.59 -30.69627 -2.5887 C -30.65 -2.58 -30.6 -2.58 -30.55312 -2.57024 C -30.51 -2.56 -30.46 -2.56 -30.40866 -2.55163 C -30.36 -2.55 -30.31 -2.54 -30.26301 -2.5329 C -30.07 -2.51 -29.87 -2.48 -29.67081 -2.45712 C -29.47 -2.43 -29.27 -2.41 -29.06902 -2.38112 C -28.26 -2.28 -27.45 -2.18 -26.73561 -2.10589" />
    <path d="M -35.01036 -3.11639 L -36.36204 -3.25513" />
    <path d="M -4.61594 0.15294 L -25.05668 -1.94518" />
    <path d="M -0.68804 0.41557 C -0.66 0.42 -0.63 0.42 -0.60558 0.422 C -0.58 0.42 -0.55 0.43 -0.51874 0.42914 C -0.49 0.43 -0.46 0.43 -0.42758 0.43697 C -0.4 0.44 -0.36 0.44 -0.33218 0.44551 C -0.3 0.45 -0.27 0.45 -0.2326 0.45474 C -0.2 0.46 -0.16 0.46 -0.12891 0.46465 C -0.09 0.47 -0.06 0.47 -0.02115 0.47525 C 0.02 0.48 0.05 0.48 0.09061 0.48653" />
    <path d="M 1.4423 1.13202 L 1.4423 0.62527 C 1.5 0.63 1.55 0.64 1.61312 0.64317 C 1.67 0.65 1.73 0.66 1.7919 0.66245 C 1.85 0.67 1.92 0.68 1.97852 0.68308 C 2.04 0.69 2.11 0.7 2.17286 0.70506 C 2.24 0.71 2.31 0.72 2.37479 0.72835 C 2.44 0.74 2.51 0.74 2.5842 0.75295 C 2.66 0.76 2.73 0.77 2.80099 0.77882 C 2.87 0.79 2.95 0.8 3.02505 0.80595 C 3.1 0.82 3.18 0.82 3.25625 0.83429 C 3.33 0.84 3.41 0.85 3.4945 0.86383 C 3.58 0.87 3.66 0.88 3.73965 0.89451 C 3.82 0.9 3.91 0.92 3.99158 0.92631 C 4.08 0.94 4.16 0.95 4.25014 0.95917 C 4.29 0.96 4.34 0.97 4.38185 0.97599 C 4.43 0.98 4.47 0.99 4.51516 0.99305 C 4.56 1 4.6 1 4.65004 1.01035 C 4.7 1.02 4.74 1.02 4.78646 1.02788 C 4.83 1.03 4.88 1.04 4.92441 1.04563 C 4.97 1.05 5.02 1.06 5.06384 1.0636 C 5.11 1.07 5.15 1.08 5.19891 1.08102 C 5.24 1.09 5.29 1.09 5.33579 1.09868 C 5.38 1.1 5.43 1.11 5.4744 1.11657 C 5.52 1.12 5.57 1.13 5.61463 1.13467 C 5.66 1.14 5.71 1.15 5.75638 1.15296 C 5.8 1.16 5.85 1.17 5.89953 1.17142 C 5.95 1.18 6 1.18 6.04399 1.19003 C 6.09 1.2 6.14 1.2 6.18964 1.20876 C 6.38 1.23 6.58 1.26 6.78184 1.28453 C 6.98 1.31 7.18 1.34 7.38363 1.36054 C 8.19 1.46 9 1.56 9.71704 1.63577" />
    <path d="M 1.4423 0.62527 L 0.09061 0.48653" />
    <path d="M 35.9951 -0.37788 L 35.97318 -0.37192 L 35.95125 -0.36597 L 35.92933 -0.36002 L 35.9074 -0.35408 L 35.88547 -0.34815 L 35.86355 -0.34223 L 35.84162 -0.33631 L 35.81969 -0.3304 L 35.79776 -0.32449 L 35.77583 -0.3186 L 35.7539 -0.31271 L 35.73197 -0.30683 L 35.71003 -0.30095 L 35.6881 -0.29508" />
    <path d="M 35.9951 -0.37788 C 36.02 -0.39 36.05 -0.39 36.07601 -0.40119 C 36.1 -0.41 36.13 -0.42 36.15518 -0.42465 C 36.18 -0.43 36.21 -0.44 36.23258 -0.44827 C 36.26 -0.46 36.28 -0.46 36.30819 -0.47203 C 36.33 -0.48 36.36 -0.49 36.38197 -0.4959 C 36.41 -0.5 36.43 -0.51 36.45389 -0.51988 C 36.48 -0.53 36.5 -0.54 36.52393 -0.54395 C 36.55 -0.55 36.57 -0.56 36.59208 -0.56809 C 36.61 -0.58 36.64 -0.58 36.65829 -0.59229 C 36.68 -0.6 36.7 -0.61 36.72257 -0.61653 C 36.74 -0.62 36.76 -0.63 36.78488 -0.64079 C 36.81 -0.65 36.83 -0.66 36.84522 -0.66505 C 36.87 -0.67 36.88 -0.68 36.90357 -0.68931 C 36.92 -0.7 36.94 -0.71 36.95993 -0.71354 C 36.98 -0.72 37 -0.73 37.01429 -0.73773 C 37.03 -0.75 37.05 -0.75 37.06664 -0.76185 C 37.09 -0.77 37.12 -0.79 37.14658 -0.80047 C 37.17 -0.81 37.2 -0.83 37.22137 -0.83884 C 37.25 -0.85 37.27 -0.86 37.2911 -0.87694 C 37.31 -0.89 37.34 -0.9 37.35582 -0.91472 C 37.38 -0.93 37.4 -0.94 37.41563 -0.95216 C 37.43 -0.96 37.45 -0.98 37.47059 -0.98922 C 37.49 -1 37.5 -1.01 37.52078 -1.02588 C 37.54 -1.04 37.55 -1.05 37.56629 -1.06211 C 37.58 -1.07 37.59 -1.09 37.60719 -1.09788 C 37.62 -1.11 37.63 -1.12 37.64357 -1.13316 C 37.65 -1.14 37.67 -1.16 37.67551 -1.16794 C 37.69 -1.18 37.69 -1.19 37.7031 -1.20218 C 37.74 -1.25 37.76 -1.29 37.77168 -1.33339 C 37.78 -1.36 37.78 -1.38 37.78246 -1.40719 L 37.78246 -0.90153" />
    <path d="M 37.78246 -1.40719 C 37.78 -1.42 37.78 -1.43 37.7808 -1.4355 C 37.78 -1.44 37.78 -1.45 37.77587 -1.46323 C 37.77 -1.47 37.77 -1.48 37.76773 -1.49038 C 37.76 -1.5 37.76 -1.51 37.75645 -1.51695 C 37.75 -1.53 37.75 -1.53 37.74209 -1.54293 C 37.74 -1.55 37.73 -1.56 37.7247 -1.56832 C 37.72 -1.58 37.71 -1.58 37.70434 -1.5931 C 37.7 -1.6 37.69 -1.61 37.68107 -1.61729 C 37.67 -1.63 37.66 -1.63 37.65494 -1.64086 C 37.65 -1.65 37.64 -1.66 37.626 -1.66383 C 37.62 -1.67 37.61 -1.68 37.59431 -1.68619 C 37.58 -1.69 37.57 -1.7 37.5599 -1.70793 C 37.55 -1.72 37.54 -1.72 37.52283 -1.72905 C 37.51 -1.74 37.5 -1.74 37.48314 -1.74955 C 37.47 -1.76 37.46 -1.76 37.44087 -1.76942 C 37.43 -1.78 37.41 -1.78 37.39607 -1.78867 C 37.38 -1.79 37.36 -1.8 37.34877 -1.8073 C 37.33 -1.81 37.32 -1.82 37.29901 -1.82529 C 37.28 -1.83 37.26 -1.84 37.24683 -1.84265 C 37.23 -1.85 37.21 -1.85 37.19227 -1.85938 C 37.17 -1.86 37.15 -1.87 37.13535 -1.87548 C 37.12 -1.88 37.1 -1.89 37.07611 -1.89094 C 37.06 -1.9 37.04 -1.9 37.01458 -1.90576 C 36.99 -1.91 36.97 -1.92 36.95078 -1.91994 C 36.93 -1.92 36.91 -1.93 36.88476 -1.93348 C 36.86 -1.94 36.84 -1.94 36.81652 -1.94638 C 36.79 -1.95 36.77 -1.95 36.7461 -1.95864 C 36.72 -1.96 36.7 -1.97 36.67353 -1.97025 C 36.62 -1.98 36.57 -1.98 36.52198 -1.99152 C 36.47 -2 36.42 -2 36.36204 -2.01019 L 35.01036 -2.14894 C 34.95 -2.15 34.9 -2.16 34.83954 -2.16421 C 34.78 -2.17 34.72 -2.17 34.66075 -2.17682 C 34.6 -2.18 34.54 -2.18 34.47413 -2.18676 C 34.41 -2.19 34.35 -2.19 34.2798 -2.19401 C 34.21 -2.2 34.15 -2.2 34.07787 -2.19855 C 34.01 -2.2 33.94 -2.2 33.86845 -2.20035 C 33.8 -2.2 33.73 -2.2 33.65166 -2.19939 C 33.58 -2.2 33.5 -2.2 33.42761 -2.19565 C 33.35 -2.19 33.27 -2.19 33.1964 -2.1891 C 33.12 -2.19 33.04 -2.18 32.95816 -2.1797 C 32.88 -2.18 32.8 -2.17 32.713 -2.16744 C 32.63 -2.16 32.55 -2.16 32.46107 -2.15227 C 32.38 -2.15 32.29 -2.14 32.20251 -2.13418 C 32.16 -2.13 32.11 -2.13 32.0708 -2.12402 C 32.03 -2.12 31.98 -2.12 31.93749 -2.11313 C 31.89 -2.11 31.85 -2.11 31.80261 -2.10148 C 31.76 -2.1 31.71 -2.09 31.66619 -2.08908 C 31.62 -2.08 31.57 -2.08 31.52825 -2.07593 C 31.48 -2.07 31.44 -2.07 31.38881 -2.06201 C 31.34 -2.06 31.3 -2.05 31.25375 -2.04796 C 31.21 -2.04 31.16 -2.04 31.11686 -2.03314 C 31.07 -2.03 31.02 -2.02 30.97825 -2.01757 C 30.93 -2.01 30.89 -2.01 30.83802 -2.00123 C 30.79 -2 30.74 -1.99 30.69627 -1.98414 C 30.65 -1.98 30.6 -1.97 30.55312 -1.96628 C 30.51 -1.96 30.46 -1.95 30.40866 -1.94768 C 30.36 -1.94 30.31 -1.93 30.26301 -1.92833 C 30.07 -1.9 29.87 -1.87 29.67081 -1.84358 C 29.47 -1.81 29.27 -1.78 29.06902 -1.74759 C 28.26 -1.61 27.45 -1.45 26.73561 -1.27102" />
    <path d="M 26.57494 -1.2305 L 26.58642 -1.23338 L 26.59789 -1.23626 L 26.60937 -1.23915 L 26.62085 -1.24204 L 26.63233 -1.24493 L 26.6438 -1.24782 L 26.65528 -1.25071 L 26.66676 -1.25361 L 26.67823 -1.2565 L 26.68971 -1.2594 L 26.70118 -1.2623 L 26.71266 -1.26521 L 26.72414 -1.26811 L 26.73561 -1.27102" />
    <path d="M 26.57494 -1.2305 A 124.5 94.14477 95.86056 0 1 25.05668 -0.85773 L -2.28281 -3.66397" />
    <path d="M -0.45755 -4.11954 L -0.47948 -4.11358 L -0.5014 -4.10763 L -0.52333 -4.10168 L -0.54525 -4.09574 L -0.56718 -4.08981 L -0.58911 -4.08388 L -0.61103 -4.07797 L -0.63296 -4.07206 L -0.65489 -4.06615 L -0.67682 -4.06026 L -0.69875 -4.05437 L -0.72069 -4.04848 L -0.74262 -4.04261 L -0.76455 -4.03674" />
    <path d="M -0.45755 -4.11954 C -0.43 -4.13 -0.4 -4.14 -0.37665 -4.14284 C -0.35 -4.15 -0.32 -4.16 -0.29748 -4.16631 C -0.27 -4.17 -0.25 -4.18 -0.22007 -4.18993 C -0.19 -4.2 -0.17 -4.21 -0.14446 -4.21369 C -0.12 -4.22 -0.09 -4.23 -0.07069 -4.23756 C -0.05 -4.25 -0.02 -4.25 0.00124 -4.26154 C 0.02 -4.27 0.05 -4.28 0.07128 -4.28561 C 0.09 -4.29 0.12 -4.3 0.13942 -4.30975 C 0.16 -4.32 0.18 -4.33 0.20564 -4.33395 C 0.23 -4.34 0.25 -4.35 0.26991 -4.35818 C 0.29 -4.37 0.31 -4.37 0.33223 -4.38244 C 0.35 -4.39 0.37 -4.4 0.39257 -4.40671 C 0.41 -4.41 0.43 -4.42 0.45092 -4.43097 C 0.47 -4.44 0.49 -4.45 0.50728 -4.4552 C 0.53 -4.46 0.54 -4.47 0.56164 -4.47939 C 0.58 -4.49 0.6 -4.5 0.61398 -4.50351 C 0.64 -4.52 0.67 -4.53 0.69392 -4.54213 C 0.72 -4.55 0.74 -4.57 0.76872 -4.5805 C 0.79 -4.59 0.82 -4.61 0.83844 -4.61859 C 0.86 -4.63 0.88 -4.64 0.90317 -4.65638 C 0.92 -4.67 0.94 -4.68 0.96298 -4.69382 C 0.98 -4.71 1 -4.72 1.01793 -4.73088 C 1.04 -4.74 1.05 -4.76 1.06813 -4.76754 C 1.08 -4.78 1.1 -4.79 1.11363 -4.80377 C 1.13 -4.82 1.14 -4.83 1.15453 -4.83954 C 1.17 -4.85 1.18 -4.86 1.19091 -4.87482 C 1.2 -4.89 1.21 -4.9 1.22285 -4.9096 C 1.23 -4.92 1.24 -4.93 1.25044 -4.94384 C 1.28 -4.99 1.31 -5.03 1.31903 -5.07505 C 1.33 -5.1 1.33 -5.12 1.32981 -5.14885 L 1.32981 -4.64319" />
    <path d="M 1.32981 -5.14885 C 1.33 -5.16 1.33 -5.17 1.32815 -5.17716 C 1.33 -5.19 1.33 -5.2 1.32322 -5.20489 C 1.32 -5.21 1.32 -5.22 1.31508 -5.23204 C 1.31 -5.24 1.31 -5.25 1.3038 -5.25861 C 1.3 -5.27 1.29 -5.28 1.28943 -5.28459 C 1.28 -5.29 1.28 -5.3 1.27205 -5.30997 C 1.27 -5.32 1.26 -5.33 1.25169 -5.33476 C 1.24 -5.34 1.24 -5.35 1.22842 -5.35894 C 1.22 -5.37 1.21 -5.37 1.20229 -5.38252 C 1.19 -5.39 1.18 -5.4 1.17335 -5.40549 C 1.16 -5.41 1.15 -5.42 1.14165 -5.42785 C 1.13 -5.44 1.12 -5.44 1.10725 -5.44958 C 1.1 -5.46 1.08 -5.46 1.07018 -5.47071 C 1.06 -5.48 1.04 -5.48 1.03049 -5.49121 C 1.02 -5.5 1 -5.5 0.98822 -5.51108 C 0.97 -5.52 0.96 -5.52 0.94341 -5.53033 C 0.93 -5.54 0.91 -5.54 0.89612 -5.54896 C 0.88 -5.56 0.86 -5.56 0.84636 -5.56695 C 0.83 -5.57 0.81 -5.58 0.79418 -5.58431 C 0.78 -5.59 0.76 -5.6 0.73961 -5.60104 C 0.72 -5.61 0.7 -5.61 0.68269 -5.61714 C 0.66 -5.62 0.64 -5.63 0.62345 -5.6326 C 0.6 -5.64 0.58 -5.64 0.56192 -5.64742 C 0.54 -5.65 0.52 -5.66 0.49813 -5.6616 C 0.48 -5.67 0.45 -5.67 0.4321 -5.67514 C 0.41 -5.68 0.39 -5.68 0.36387 -5.68804 C 0.34 -5.69 0.32 -5.7 0.29345 -5.70029 C 0.27 -5.7 0.25 -5.71 0.22087 -5.7119 C 0.17 -5.72 0.12 -5.73 0.06933 -5.73318 C 0.02 -5.74 -0.04 -5.75 -0.09061 -5.75185 L -1.4423 -5.89059 C -1.5 -5.9 -1.55 -5.9 -1.61312 -5.90587 C -1.67 -5.91 -1.73 -5.91 -1.7919 -5.91848 C -1.85 -5.92 -1.92 -5.93 -1.97852 -5.92842 C -2.04 -5.93 -2.11 -5.93 -2.17286 -5.93567 C -2.24 -5.94 -2.31 -5.94 -2.37479 -5.94021 C -2.44 -5.94 -2.51 -5.94 -2.5842 -5.94201 C -2.66 -5.94 -2.73 -5.94 -2.80099 -5.94105 C -2.87 -5.94 -2.95 -5.94 -3.02505 -5.93731 C -3.1 -5.94 -3.18 -5.93 -3.25625 -5.93075 C -3.33 -5.93 -3.41 -5.92 -3.4945 -5.92136 C -3.58 -5.92 -3.66 -5.91 -3.73965 -5.9091 C -3.82 -5.9 -3.91 -5.9 -3.99158 -5.89393 C -4.08 -5.89 -4.16 -5.88 -4.25014 -5.87584 C -4.29 -5.87 -4.34 -5.87 -4.38185 -5.86568 C -4.43 -5.86 -4.47 -5.86 -4.51516 -5.85478 C -4.56 -5.85 -4.6 -5.85 -4.65004 -5.84314 C -4.7 -5.84 -4.74 -5.83 -4.78646 -5.83074 C -4.83 -5.83 -4.88 -5.82 -4.92441 -5.81758 C -4.97 -5.81 -5.02 -5.81 -5.06384 -5.80367 C -5.11 -5.8 -5.15 -5.79 -5.19891 -5.78962 C -5.24 -5.78 -5.29 -5.78 -5.33579 -5.7748 C -5.38 -5.77 -5.43 -5.76 -5.4744 -5.75923 C -5.52 -5.75 -5.57 -5.75 -5.61463 -5.74289 C -5.66 -5.74 -5.71 -5.73 -5.75638 -5.72579 C -5.8 -5.72 -5.85 -5.71 -5.89953 -5.70794 C -5.95 -5.7 -6 -5.7 -6.04399 -5.68934 C -6.09 -5.68 -6.14 -5.68 -6.18964 -5.66998 C -6.38 -5.64 -6.58 -5.62 -6.78184 -5.58524 C -6.98 -5.56 -7.18 -5.52 -7.38363 -5.48925 C -8.19 -5.35 -9 -5.19 -9.71704 -5.01267" />
    <path d="M 27.69726 0.23117 C 27.71 0.23 27.72 0.23 27.72906 0.22342 C 27.74 0.22 27.75 0.22 27.75881 0.21562 C 27.77 0.21 27.78 0.21 27.78649 0.20778 C 27.8 0.21 27.8 0.2 27.81208 0.19993 C 27.82 0.2 27.83 0.19 27.83557 0.19208 C 27.84 0.19 27.85 0.19 27.85695 0.18426 C 27.86 0.18 27.87 0.18 27.87621 0.17648 C 27.88 0.17 27.89 0.17 27.89335 0.16877 C 27.9 0.17 27.9 0.16 27.90838 0.16113 C 27.91 0.16 27.92 0.16 27.92132 0.15358 C 27.93 0.15 27.93 0.15 27.93218 0.14615 C 27.94 0.14 27.94 0.14 27.94098 0.13885 C 27.94 0.14 27.95 0.13 27.94775 0.13169 C 27.95 0.13 27.95 0.13 27.95254 0.12469 C 27.95 0.12 27.95 0.12 27.95538 0.11786 C 27.96 0.12 27.96 0.11 27.95631 0.11122 C 27.96 0.11 27.96 0.11 27.95527 0.10437 C 27.95 0.1 27.95 0.1 27.95221 0.09775 C 27.95 0.09 27.95 0.09 27.94184 0.08647 C 27.94 0.08 27.93 0.08 27.92544 0.07594 C 27.92 0.07 27.91 0.07 27.90331 0.06619 C 27.9 0.06 27.89 0.06 27.87571 0.05724 C 27.87 0.05 27.85 0.05 27.8429 0.04913 C 27.83 0.05 27.82 0.04 27.8051 0.04186 C 27.79 0.04 27.78 0.04 27.76254 0.03546 C 27.75 0.03 27.73 0.03 27.71544 0.02995 C 27.7 0.03 27.68 0.03 27.66136 0.02514 C 27.64 0.02 27.62 0.02 27.6027 0.02135 C 27.58 0.02 27.56 0.02 27.53966 0.01861 C 27.52 0.02 27.5 0.02 27.47247 0.01694 C 27.45 0.02 27.43 0.02 27.40137 0.01636 C 27.39 0.02 27.38 0.02 27.36442 0.01649 C 27.35 0.02 27.34 0.02 27.32658 0.01691 C 27.31 0.02 27.3 0.02 27.28788 0.01762 C 27.27 0.02 27.26 0.02 27.24836 0.01862 C 27.24 0.02 27.22 0.02 27.20806 0.01992 C 27.19 0.02 27.18 0.02 27.16701 0.02151 C 27.15 0.02 27.13 0.02 27.11826 0.02376 C 27.1 0.02 27.09 0.03 27.06843 0.02643 C 27.05 0.03 27.03 0.03 27.0177 0.02954 C 27 0.03 26.98 0.03 26.96621 0.03309 C 26.95 0.03 26.93 0.04 26.91415 0.03708 C 26.9 0.04 26.88 0.04 26.86168 0.04149 C 26.84 0.04 26.83 0.04 26.80897 0.04634 C 26.79 0.05 26.77 0.05 26.7562 0.05161 C 26.62 0.07 26.48 0.09 26.35432 0.1076" />
    <path d="M 27.69726 0.23117 L 27.69083 0.23255 L 27.6844 0.23394 L 27.67797 0.23532 L 27.67154 0.23671 L 27.66512 0.23809 L 27.65869 0.23948 L 27.65226 0.24086 L 27.64583 0.24224 L 27.6394 0.24362 L 27.63297 0.245 L 27.62654 0.24638 L 27.62011 0.24776 L 27.61368 0.24914 L 27.60725 0.25052" />
    <path d="M -8.75539 -3.51049 C -8.74 -3.51 -8.73 -3.52 -8.7236 -3.51824 C -8.71 -3.52 -8.7 -3.52 -8.69384 -3.52604 C -8.68 -3.53 -8.68 -3.53 -8.66616 -3.53388 C -8.66 -3.54 -8.65 -3.54 -8.64057 -3.54173 C -8.63 -3.54 -8.62 -3.55 -8.61708 -3.54957 C -8.61 -3.55 -8.6 -3.55 -8.5957 -3.5574 C -8.59 -3.56 -8.58 -3.56 -8.57645 -3.56517 C -8.57 -3.57 -8.56 -3.57 -8.5593 -3.57289 C -8.55 -3.58 -8.55 -3.58 -8.54427 -3.58053 C -8.54 -3.58 -8.54 -3.59 -8.53134 -3.58808 C -8.53 -3.59 -8.52 -3.59 -8.52048 -3.59551 C -8.52 -3.6 -8.51 -3.6 -8.51168 -3.60281 C -8.51 -3.61 -8.51 -3.61 -8.5049 -3.60997 C -8.5 -3.61 -8.5 -3.61 -8.50011 -3.61697 C -8.5 -3.62 -8.5 -3.62 -8.49728 -3.6238 C -8.5 -3.63 -8.5 -3.63 -8.49634 -3.63044 C -8.5 -3.63 -8.5 -3.64 -8.49738 -3.63729 C -8.5 -3.64 -8.5 -3.64 -8.50044 -3.64391 C -8.5 -3.65 -8.51 -3.65 -8.51081 -3.65519 C -8.52 -3.66 -8.52 -3.66 -8.52721 -3.66572 C -8.53 -3.67 -8.54 -3.67 -8.54934 -3.67547 C -8.56 -3.68 -8.57 -3.68 -8.57694 -3.68442 C -8.59 -3.69 -8.6 -3.69 -8.60975 -3.69253 C -8.62 -3.7 -8.63 -3.7 -8.64755 -3.6998 C -8.66 -3.7 -8.68 -3.7 -8.69011 -3.7062 C -8.71 -3.71 -8.72 -3.71 -8.73721 -3.71171 C -8.75 -3.71 -8.77 -3.72 -8.79129 -3.71652 C -8.81 -3.72 -8.83 -3.72 -8.84996 -3.7203 C -8.87 -3.72 -8.89 -3.72 -8.91299 -3.72305 C -8.93 -3.72 -8.96 -3.72 -8.98018 -3.72472 C -9 -3.73 -9.03 -3.73 -9.05129 -3.7253 C -9.06 -3.73 -9.08 -3.73 -9.08824 -3.72516 C -9.1 -3.73 -9.11 -3.72 -9.12608 -3.72475 C -9.14 -3.72 -9.15 -3.72 -9.16477 -3.72404 C -9.18 -3.72 -9.19 -3.72 -9.20429 -3.72304 C -9.22 -3.72 -9.23 -3.72 -9.24459 -3.72174 C -9.26 -3.72 -9.27 -3.72 -9.28564 -3.72015 C -9.3 -3.72 -9.32 -3.72 -9.3344 -3.7179 C -9.35 -3.72 -9.37 -3.72 -9.38422 -3.71522 C -9.4 -3.71 -9.42 -3.71 -9.43496 -3.71211 C -9.45 -3.71 -9.47 -3.71 -9.48644 -3.70857 C -9.5 -3.71 -9.52 -3.71 -9.5385 -3.70458 C -9.56 -3.7 -9.57 -3.7 -9.59098 -3.70016 C -9.61 -3.7 -9.63 -3.7 -9.64369 -3.69532 C -9.66 -3.69 -9.68 -3.69 -9.69645 -3.69004 C -9.84 -3.68 -9.98 -3.66 -10.09833 -3.63405" />
    <path d="M -8.75539 -3.51049 L -8.76182 -3.50911 L -8.76825 -3.50772 L -8.77468 -3.50633 L -8.78111 -3.50495 L -8.78754 -3.50357 L -8.79397 -3.50218 L -8.8004 -3.5008 L -8.80683 -3.49942 L -8.81325 -3.49804 L -8.81968 -3.49666 L -8.82611 -3.49528 L -8.83254 -3.4939 L -8.83897 -3.49252 L -8.8454 -3.49114" />
    <path d="M 35.9951 0.1251 L 35.9951 -0.37788" />
    <path d="M -0.45755 -3.61655 L -0.45755 -4.11954" />
    <path d="M -10.09833 -3.25509 L -10.09833 -3.63405" />
    <path d="M 26.35432 0.48657 L 26.35432 0.1076" />
    <path d="M 35.54639 2.50675 A 125 94.52286 95.86056 0 1 35.6881 2.52144 L 35.6881 3.02419 L 35.69924 3.02537 L 35.71038 3.02655 L 35.72152 3.02772 L 35.73266 3.02891 L 35.7438 3.03009 L 35.75494 3.03127 L 35.76608 3.03246 L 35.77722 3.03365 L 35.78836 3.03484 L 35.7995 3.03603 L 35.81064 3.03722 L 35.82178 3.03842 L 35.83292 3.03962 L 35.84406 3.04082" />
    <path d="M 27.64237 1.8084 L 27.64317 1.80844 L 27.64398 1.80847 L 27.64478 1.80851 L 27.64558 1.80855 L 27.64639 1.80858 L 27.64719 1.80862 L 27.648 1.80865 L 27.6488 1.80869 L 27.64961 1.80873 L 27.65041 1.80876 L 27.65122 1.8088 L 27.65202 1.80883 L 27.65283 1.80887 L 27.65363 1.80891" />
    <path d="M 27.79175 1.78692 C 27.8 1.79 27.81 1.79 27.82513 1.7907 C 27.84 1.79 27.85 1.79 27.85507 1.79428 C 27.86 1.8 27.87 1.8 27.88145 1.79763 C 27.89 1.8 27.9 1.8 27.90412 1.80075 C 27.91 1.8 27.92 1.8 27.92292 1.80363 C 27.93 1.8 27.93 1.81 27.93771 1.80625 C 27.94 1.81 27.95 1.81 27.94831 1.8086 C 27.95 1.81 27.95 1.81 27.95456 1.81067 C 27.96 1.81 27.96 1.81 27.95587 1.81147 C 27.96 1.81 27.96 1.81 27.95631 1.81222 C 27.96 1.81 27.96 1.81 27.95522 1.81327 C 27.95 1.81 27.95 1.81 27.95191 1.81417 C 27.95 1.81 27.95 1.81 27.94631 1.81491 C 27.94 1.82 27.94 1.82 27.93837 1.8155 C 27.94 1.82 27.93 1.82 27.92804 1.81593 C 27.92 1.82 27.92 1.82 27.9153 1.81619 C 27.91 1.82 27.91 1.82 27.90011 1.81627 C 27.89 1.82 27.89 1.82 27.88246 1.81618 C 27.88 1.82 27.87 1.82 27.86234 1.81591 C 27.86 1.82 27.85 1.82 27.83976 1.81546 C 27.83 1.82 27.82 1.82 27.81472 1.81482 C 27.81 1.81 27.8 1.81 27.78724 1.81401 C 27.78 1.81 27.77 1.81 27.75736 1.81301 C 27.75 1.81 27.74 1.81 27.72509 1.81183 C 27.71 1.81 27.7 1.81 27.6905 1.81046 C 27.68 1.81 27.67 1.81 27.65363 1.80891" />
    <path d="M 37.78246 2.82885 C 37.78 2.83 37.78 2.83 37.78246 2.82867 C 37.78 2.83 37.78 2.83 37.78074 2.825 C 37.78 2.82 37.78 2.82 37.77586 2.82096 C 37.77 2.82 37.77 2.82 37.76772 2.81652 C 37.76 2.81 37.76 2.81 37.75623 2.81171 C 37.75 2.81 37.75 2.81 37.74131 2.80651 C 37.74 2.8 37.73 2.8 37.72287 2.80093 C 37.72 2.8 37.71 2.8 37.70084 2.79497 C 37.69 2.79 37.68 2.79 37.67515 2.78862 C 37.67 2.79 37.66 2.78 37.64573 2.7819 C 37.64 2.78 37.62 2.78 37.61251 2.77481 C 37.6 2.77 37.59 2.77 37.57544 2.76735 C 37.56 2.76 37.55 2.76 37.53446 2.75953 C 37.52 2.76 37.51 2.75 37.48952 2.75134 C 37.47 2.75 37.46 2.75 37.44057 2.74281 C 37.42 2.74 37.41 2.74 37.38757 2.73392 C 37.37 2.73 37.35 2.73 37.33048 2.7247 C 37.31 2.72 37.29 2.72 37.26926 2.71515 C 37.25 2.71 37.23 2.71 37.20389 2.70527 C 37.18 2.7 37.16 2.7 37.13433 2.69508 C 37.11 2.69 37.09 2.69 37.06056 2.68458 C 37.04 2.68 37.01 2.68 36.98257 2.67379 C 36.96 2.67 36.93 2.67 36.90033 2.6627 C 36.87 2.66 36.84 2.66 36.81384 2.65133 C 36.78 2.65 36.75 2.64 36.72308 2.63969 C 36.69 2.64 36.66 2.63 36.62806 2.62779 C 36.6 2.62 36.56 2.62 36.52878 2.61564 C 36.49 2.61 36.46 2.61 36.42524 2.60324 C 36.39 2.6 36.35 2.59 36.31744 2.59061 C 36.17 2.57 36.01 2.56 35.84406 2.53795 L 35.84406 3.04082" />
    <path d="M 35.6881 2.52144 L 35.69924 2.52261 L 35.71038 2.52378 L 35.72152 2.52495 L 35.73266 2.52612 L 35.7438 2.5273 L 35.75494 2.52847 L 35.76608 2.52965 L 35.77722 2.53083 L 35.78836 2.53201 L 35.7995 2.5332 L 35.81064 2.53438 L 35.82178 2.53557 L 35.83292 2.53676 L 35.84406 2.53795" />
    <path d="M 9.87772 4.97215 A 124.5 94.14477 95.86056 0 1 35.49533 3.00414 A 124.5 94.14477 95.86056 0 1 35.6881 3.02419" />
    <path d="M 9.87772 4.46941 L 9.87772 4.97215" />
    <path d="M 9.87772 4.46941 A 125 94.52286 95.86056 0 1 22.78291 2.33854" />
    <path d="M 9.55184 4.55003 L 9.57511 4.54423 L 9.59839 4.53843 L 9.62166 4.53264 L 9.64493 4.52685 L 9.66821 4.52108 L 9.69148 4.51531 L 9.71476 4.50954 L 9.73804 4.50379 L 9.76131 4.49804 L 9.78459 4.4923 L 9.80787 4.48657 L 9.83115 4.48084 L 9.85443 4.47512 L 9.87772 4.46941" />
    <path d="M 9.55184 4.55003 C 9.49 4.56 9.43 4.58 9.36536 4.59396 C 9.3 4.61 9.24 4.62 9.17481 4.63735 C 9.11 4.65 9.05 4.67 8.98069 4.6801 C 8.92 4.69 8.85 4.71 8.7835 4.72212 C 8.72 4.74 8.65 4.75 8.58378 4.76332 C 8.52 4.78 8.45 4.79 8.38205 4.8036 C 8.31 4.82 8.25 4.83 8.17886 4.84287 C 8.11 4.86 8.04 4.87 7.97478 4.88106 C 7.92 4.89 7.87 4.9 7.81046 4.91091 C 7.76 4.92 7.7 4.93 7.64611 4.93999 C 7.59 4.95 7.54 4.96 7.48187 4.96829 C 7.43 4.98 7.37 4.99 7.31788 4.99578 C 7.26 5 7.21 5.01 7.15429 5.02247 C 7.1 5.03 7.05 5.04 6.9912 5.04834 C 6.94 5.06 6.88 5.07 6.82876 5.07339 C 6.77 5.08 6.72 5.09 6.66707 5.0976 C 6.61 5.11 6.56 5.11 6.50625 5.12097 C 6.45 5.13 6.4 5.14 6.34642 5.14349 C 6.29 5.15 6.24 5.16 6.18767 5.16516 C 6.13 5.17 6.08 5.18 6.03011 5.18598 C 5.98 5.19 5.93 5.2 5.87384 5.20593 C 5.82 5.21 5.77 5.22 5.71895 5.22503 C 5.67 5.23 5.62 5.24 5.56553 5.24326 C 5.51 5.25 5.46 5.25 5.41366 5.26063 C 5.36 5.27 5.31 5.27 5.25972 5.27754 C 5.21 5.28 5.16 5.29 5.10743 5.29356 C 5.01 5.3 4.91 5.31 4.80793 5.32295 C 4.61 5.34 4.42 5.36 4.23026 5.37128 C 3.85 5.4 3.5 5.42 3.1666 5.42718 C 2.5 5.45 1.92 5.43 1.4423 5.38385 L 1.4423 5.89059 L 0.09061 5.75185 C 0.04 5.75 -0.01 5.74 -0.05331 5.73521" />
    <path d="M 1.4423 5.38385 L 0.11872 5.24799" />
    <path d="M -6.17869 2.29375 L -25.05668 0.35603 L -25.05668 0.85773" />
    <path d="M -26.57494 0.72775 A 125 94.52286 95.86056 0 1 -25.05668 0.35603" />
    <path d="M -26.90081 0.80837 L -26.87754 0.80257 L -26.85427 0.79677 L -26.83099 0.79098 L -26.80772 0.7852 L -26.78445 0.77942 L -26.76117 0.77365 L -26.73789 0.76789 L -26.71462 0.76213 L -26.69134 0.75638 L -26.66806 0.75064 L -26.64478 0.74491 L -26.6215 0.73918 L -26.59822 0.73346 L -26.57494 0.72775 L -26.57494 1.2305 A 124.5 94.14477 95.86056 0 1 -25.05668 0.85773" />
    <path d="M -26.90081 0.80837 C -26.96 0.82 -27.02 0.84 -27.08729 0.8523 C -27.15 0.87 -27.21 0.88 -27.27784 0.89569 C -27.34 0.91 -27.41 0.92 -27.47196 0.93844 C -27.54 0.95 -27.6 0.97 -27.66915 0.98046 C -27.74 0.99 -27.8 1.01 -27.86887 1.02166 C -27.94 1.04 -28 1.05 -28.0706 1.06194 C -28.14 1.08 -28.21 1.09 -28.27379 1.10121 C -28.34 1.11 -28.41 1.13 -28.47788 1.1394 C -28.53 1.15 -28.59 1.16 -28.6422 1.16925 C -28.7 1.18 -28.75 1.19 -28.80655 1.19833 C -28.86 1.21 -28.92 1.22 -28.97078 1.22663 C -29.03 1.24 -29.08 1.25 -29.13477 1.25412 C -29.19 1.26 -29.24 1.27 -29.29837 1.28081 C -29.35 1.29 -29.41 1.3 -29.46145 1.30668 C -29.52 1.32 -29.57 1.32 -29.6239 1.33173 C -29.68 1.34 -29.73 1.35 -29.78558 1.35594 C -29.84 1.36 -29.89 1.37 -29.9464 1.37931 C -30 1.39 -30.05 1.39 -30.10623 1.40183 C -30.16 1.41 -30.21 1.42 -30.26498 1.4235 C -30.32 1.43 -30.37 1.44 -30.42254 1.44432 C -30.47 1.45 -30.53 1.46 -30.57881 1.46428 C -30.63 1.47 -30.68 1.48 -30.7337 1.48337 C -30.79 1.49 -30.84 1.5 -30.88712 1.5016 C -30.94 1.51 -30.99 1.51 -31.03899 1.51897 C -31.09 1.52 -31.14 1.53 -31.19293 1.53588 C -31.24 1.54 -31.29 1.55 -31.34522 1.5519 C -31.45 1.56 -31.55 1.57 -31.64472 1.58129 C -31.84 1.6 -32.03 1.62 -32.22239 1.62962 C -32.6 1.66 -32.95 1.68 -33.28605 1.68552 C -33.95 1.71 -34.53 1.69 -35.01036 1.64219 L -35.01036 2.14894 L -36.36204 2.01019 C -36.41 2 -36.46 2 -36.50597 1.99356" />
    <path d="M -35.01036 1.64219 L -36.33394 1.50633" />
    <path d="M -28.09679 -1.7421 A 125 94.52286 275.86056 0 0 -29.4766 -1.52317" />
    <path d="M -26.40565 -0.59883 C -26.42 -0.6 -26.44 -0.59 -26.45247 -0.59119 C -26.47 -0.59 -26.48 -0.59 -26.50042 -0.58387 C -26.52 -0.58 -26.53 -0.58 -26.54932 -0.57688 C -26.57 -0.57 -26.58 -0.57 -26.599 -0.57024 C -26.62 -0.57 -26.63 -0.57 -26.64929 -0.56396 C -26.67 -0.56 -26.68 -0.56 -26.70002 -0.55805 C -26.72 -0.56 -26.73 -0.55 -26.75104 -0.55252 C -26.77 -0.55 -26.79 -0.55 -26.80218 -0.54739 C -26.82 -0.55 -26.84 -0.54 -26.85329 -0.54264 C -26.87 -0.54 -26.89 -0.54 -26.90421 -0.5383 C -26.92 -0.54 -26.94 -0.54 -26.95479 -0.53437 C -26.97 -0.53 -26.99 -0.53 -27.00489 -0.53084 C -27.02 -0.53 -27.04 -0.53 -27.05435 -0.52773 C -27.07 -0.53 -27.09 -0.53 -27.10305 -0.52501 C -27.12 -0.52 -27.14 -0.52 -27.15085 -0.52271 C -27.17 -0.52 -27.18 -0.52 -27.19761 -0.5208 C -27.21 -0.52 -27.22 -0.52 -27.23625 -0.51949 C -27.25 -0.52 -27.26 -0.52 -27.27418 -0.51846 C -27.3 -0.52 -27.32 -0.52 -27.3478 -0.51718 C -27.37 -0.52 -27.4 -0.52 -27.41824 -0.51695 C -27.44 -0.52 -27.46 -0.52 -27.48528 -0.51773 C -27.51 -0.52 -27.53 -0.52 -27.54871 -0.5195 C -27.57 -0.52 -27.59 -0.52 -27.60834 -0.52224 C -27.63 -0.52 -27.65 -0.52 -27.66398 -0.52592 C -27.68 -0.53 -27.7 -0.53 -27.71544 -0.53053 C -27.73 -0.53 -27.75 -0.53 -27.76472 -0.53633 C -27.78 -0.54 -27.8 -0.54 -27.809 -0.5431 C -27.84 -0.55 -27.86 -0.55 -27.88152 -0.55948 C -27.92 -0.57 -27.95 -0.59 -27.95456 -0.60285 C -27.96 -0.61 -27.96 -0.61 -27.95631 -0.6117 C -27.96 -0.61 -27.96 -0.62 -27.95558 -0.61755 C -27.96 -0.62 -27.95 -0.62 -27.95337 -0.62355 C -27.95 -0.63 -27.95 -0.63 -27.94964 -0.62969 C -27.95 -0.63 -27.95 -0.63 -27.94435 -0.63597" />
    <path d="M -26.40565 -0.59883 L -26.39848 -0.60013 L -26.39132 -0.60144 L -26.38416 -0.60275 L -26.377 -0.60405 L -26.36983 -0.60536 L -26.36267 -0.60666 L -26.35551 -0.60797 L -26.34835 -0.60927 L -26.34118 -0.61057 L -26.33402 -0.61188 L -26.32686 -0.61318 L -26.3197 -0.61448 L -26.31253 -0.61578 L -26.30537 -0.61708" />
    <path d="M -22.8358 -1.21552 A 125 94.52286 275.86056 0 0 -26.30537 -0.61708" />
    <path d="M 10.04701 3.14283 C 10.03 3.15 10.02 3.15 10.00018 3.15047 C 9.98 3.15 9.97 3.16 9.95223 3.15779 C 9.94 3.16 9.92 3.16 9.90333 3.16478 C 9.89 3.17 9.87 3.17 9.85366 3.17142 C 9.84 3.17 9.82 3.18 9.80337 3.1777 C 9.79 3.18 9.77 3.18 9.75263 3.18361 C 9.74 3.19 9.72 3.19 9.70161 3.18913 C 9.68 3.19 9.67 3.19 9.65047 3.19427 C 9.63 3.2 9.62 3.2 9.59936 3.19901 C 9.58 3.2 9.57 3.2 9.54844 3.20335 C 9.53 3.2 9.51 3.21 9.49786 3.20729 C 9.48 3.21 9.46 3.21 9.44776 3.21081 C 9.43 3.21 9.41 3.21 9.3983 3.21393 C 9.38 3.21 9.37 3.22 9.3496 3.21664 C 9.33 3.22 9.32 3.22 9.30181 3.21895 C 9.29 3.22 9.27 3.22 9.25504 3.22086 C 9.24 3.22 9.23 3.22 9.2164 3.22216 C 9.2 3.22 9.19 3.22 9.17847 3.2232 C 9.15 3.22 9.13 3.22 9.10485 3.22448 C 9.08 3.22 9.06 3.22 9.03441 3.22471 C 9.01 3.22 8.99 3.22 8.96738 3.22393 C 8.95 3.22 8.92 3.22 8.90394 3.22216 C 8.88 3.22 8.86 3.22 8.84432 3.21942 C 8.83 3.22 8.81 3.22 8.78868 3.21574 C 8.77 3.21 8.75 3.21 8.73721 3.21113 C 8.72 3.21 8.7 3.21 8.68793 3.20533 C 8.67 3.2 8.66 3.2 8.64366 3.19855 C 8.62 3.19 8.59 3.19 8.57114 3.18218 C 8.53 3.17 8.5 3.16 8.49809 3.13881 C 8.5 3.14 8.5 3.13 8.49634 3.12996 C 8.5 3.13 8.5 3.13 8.49707 3.12411 C 8.5 3.12 8.5 3.12 8.49928 3.11811 C 8.5 3.12 8.5 3.11 8.50302 3.11196 C 8.5 3.11 8.51 3.11 8.5083 3.10569" />
    <path d="M 10.04701 3.14283 L 10.05417 3.14152 L 10.06133 3.14022 L 10.06849 3.13891 L 10.07566 3.1376 L 10.08282 3.1363 L 10.08998 3.13499 L 10.09714 3.13369 L 10.10431 3.13239 L 10.11147 3.13108 L 10.11863 3.12978 L 10.12579 3.12848 L 10.13296 3.12718 L 10.14012 3.12588 L 10.14728 3.12458" />
    <path d="M 14.0181 2.46774 A 125 94.52286 275.86056 0 0 10.14728 3.12458" />
    <path d="M 8.8454 3.08025 L 8.8454 3.21948" />
    <path d="M -27.60725 -0.66141 L -27.60725 -0.52218" />
    <path d="M 31.68364 2.71603 C 31.77 2.73 31.85 2.74 31.93674 2.74852 C 32.02 2.76 32.1 2.77 32.18437 2.78017 C 32.27 2.79 32.35 2.8 32.42637 2.81095 C 32.51 2.82 32.58 2.83 32.66262 2.8408 C 32.74 2.85 32.82 2.86 32.89298 2.8697 C 32.97 2.88 33.04 2.89 33.11734 2.8976 C 33.19 2.91 33.26 2.92 33.33561 2.92447 C 33.41 2.93 33.48 2.94 33.54769 2.95029 C 33.62 2.96 33.69 2.97 33.75347 2.97503 C 33.82 2.98 33.89 2.99 33.95288 2.99867 C 34.02 3.01 34.08 3.01 34.14582 3.02119 C 34.21 3.03 34.27 3.04 34.33221 3.04258 C 34.39 3.05 34.45 3.06 34.51196 3.0628 C 34.57 3.07 34.63 3.08 34.68496 3.08185 C 34.74 3.09 34.8 3.09 34.85113 3.09972 C 34.91 3.11 34.96 3.11 35.01036 3.11639" />
    <path d="M 36.36204 3.25513 L 35.01036 3.11639" />
    <path d="M 36.36204 3.25513 C 36.42 3.26 36.47 3.27 36.52197 3.27118 C 36.57 3.28 36.62 3.28 36.67352 3.28582 C 36.72 3.29 36.77 3.29 36.81652 3.29902 C 36.84 3.3 36.86 3.3 36.88475 3.30508 C 36.91 3.31 36.93 3.31 36.95078 3.31078 C 36.97 3.31 36.99 3.31 37.01458 3.31611 C 37.04 3.32 37.06 3.32 37.07611 3.32108 C 37.1 3.32 37.12 3.32 37.13535 3.32568 C 37.15 3.33 37.17 3.33 37.19227 3.32991 C 37.21 3.33 37.23 3.33 37.24684 3.33377 C 37.26 3.33 37.28 3.34 37.29902 3.33726 C 37.32 3.34 37.33 3.34 37.34878 3.34037 C 37.36 3.34 37.38 3.34 37.39608 3.34311 C 37.41 3.34 37.43 3.34 37.44088 3.34546 C 37.46 3.35 37.47 3.35 37.48315 3.34744 C 37.5 3.35 37.51 3.35 37.52284 3.34904 C 37.54 3.35 37.55 3.35 37.55991 3.35026 C 37.57 3.35 37.58 3.35 37.59431 3.35109 C 37.61 3.35 37.62 3.35 37.62601 3.35154 C 37.64 3.35 37.65 3.35 37.65495 3.3516 C 37.66 3.35 37.67 3.35 37.68107 3.35127 C 37.69 3.35 37.7 3.35 37.70434 3.35055 C 37.71 3.35 37.72 3.35 37.7247 3.34944 C 37.73 3.35 37.74 3.35 37.74209 3.34794 C 37.75 3.35 37.75 3.35 37.75645 3.34605 C 37.76 3.35 37.76 3.34 37.76773 3.34376 C 37.77 3.34 37.77 3.34 37.77587 3.34107 C 37.78 3.34 37.78 3.34 37.7808 3.338 C 37.78 3.34 37.78 3.34 37.78246 3.33452 L 37.78246 2.82885" />
    <path d="M 37.78246 3.33452 C 37.78 3.33 37.78 3.33 37.78246 3.33433 C 37.78 3.33 37.78 3.33 37.78074 3.3306 C 37.78 3.33 37.78 3.33 37.77586 3.32648 C 37.77 3.33 37.77 3.32 37.76772 3.32198 C 37.76 3.32 37.76 3.32 37.75623 3.3171 C 37.75 3.32 37.75 3.31 37.7413 3.31183 C 37.74 3.31 37.73 3.31 37.72286 3.30617 C 37.72 3.3 37.71 3.3 37.70083 3.30013 C 37.69 3.3 37.68 3.3 37.67514 3.29371 C 37.67 3.29 37.66 3.29 37.64572 3.28691 C 37.64 3.28 37.62 3.28 37.6125 3.27974 C 37.6 3.28 37.59 3.27 37.57543 3.27219 C 37.56 3.27 37.55 3.27 37.53445 3.26428 C 37.52 3.26 37.51 3.26 37.4895 3.25601 C 37.47 3.25 37.46 3.25 37.44055 3.24739 C 37.42 3.24 37.41 3.24 37.38755 3.23842 C 37.37 3.24 37.35 3.23 37.33046 3.2291 C 37.31 3.23 37.29 3.22 37.26924 3.21946 C 37.25 3.22 37.23 3.21 37.20386 3.20949 C 37.18 3.21 37.16 3.2 37.1343 3.19921 C 37.11 3.2 37.09 3.19 37.06054 3.18861 C 37.04 3.19 37.01 3.18 36.98254 3.17772 C 36.96 3.17 36.93 3.17 36.9003 3.16654 C 36.87 3.16 36.84 3.16 36.81381 3.15507 C 36.78 3.15 36.75 3.15 36.72306 3.14334 C 36.69 3.14 36.66 3.14 36.62804 3.13134 C 36.6 3.13 36.56 3.12 36.52876 3.11909 C 36.49 3.11 36.46 3.11 36.42522 3.10659 C 36.39 3.1 36.35 3.1 36.31743 3.09387 C 36.17 3.08 36.01 3.06 35.84406 3.04082" />
    <path d="M 9.55184 5.05302 L 9.57511 5.04719 L 9.59839 5.04138 L 9.62166 5.03557 L 9.64493 5.02977 L 9.66821 5.02398 L 9.69148 5.01819 L 9.71476 5.01241 L 9.73804 5.00664 L 9.76131 5.00087 L 9.78459 4.99512 L 9.80787 4.98937 L 9.83115 4.98362 L 9.85443 4.97788 L 9.87772 4.97215" />
    <path d="M 9.55184 5.05302 C 9.49 5.07 9.43 5.08 9.36536 5.09708 C 9.3 5.11 9.24 5.13 9.17481 5.1406 C 9.11 5.16 9.05 5.17 8.98069 5.18348 C 8.92 5.2 8.85 5.21 8.78351 5.22564 C 8.72 5.24 8.65 5.25 8.58378 5.26696 C 8.52 5.28 8.45 5.29 8.38205 5.30738 C 8.31 5.32 8.25 5.33 8.17886 5.34678 C 8.11 5.36 8.04 5.37 7.97478 5.3851 C 7.92 5.4 7.87 5.41 7.81046 5.41506 C 7.76 5.42 7.7 5.43 7.64611 5.44424 C 7.59 5.45 7.54 5.46 7.48188 5.47263 C 7.43 5.48 7.37 5.49 7.3179 5.50022 C 7.26 5.51 7.21 5.52 7.15431 5.52701 C 7.1 5.54 7.05 5.54 6.99122 5.55297 C 6.94 5.56 6.88 5.57 6.82878 5.57811 C 6.77 5.59 6.72 5.59 6.66709 5.60242 C 6.61 5.61 6.56 5.62 6.50628 5.62588 C 6.45 5.63 6.4 5.64 6.34644 5.64849 C 6.29 5.66 6.24 5.66 6.18769 5.67025 C 6.13 5.68 6.08 5.68 6.03013 5.69115 C 5.98 5.7 5.93 5.7 5.87386 5.71119 C 5.82 5.72 5.77 5.72 5.71896 5.73036 C 5.67 5.74 5.62 5.74 5.56553 5.74868 C 5.51 5.75 5.46 5.76 5.41366 5.76612 C 5.36 5.77 5.31 5.78 5.25973 5.7831 C 5.21 5.79 5.16 5.79 5.10744 5.7992 C 5.01 5.81 4.91 5.82 4.80795 5.82873 C 4.61 5.85 4.42 5.86 4.2303 5.87731 C 3.86 5.91 3.5 5.92 3.16664 5.93361 C 2.5 5.95 1.92 5.94 1.4423 5.89059" />
    <path d="M -6.29015 2.78401 L -25.05668 0.85773" />
    <path d="M -26.90081 1.31136 L -26.87754 1.30554 L -26.85427 1.29972 L -26.83099 1.29391 L -26.80772 1.28811 L -26.78445 1.28232 L -26.76117 1.27653 L -26.73789 1.27075 L -26.71462 1.26498 L -26.69134 1.25922 L -26.66806 1.25346 L -26.64478 1.24771 L -26.6215 1.24196 L -26.59822 1.23623 L -26.57494 1.2305" />
    <path d="M -26.90081 1.31136 C -26.96 1.33 -27.02 1.34 -27.08729 1.35542 C -27.15 1.37 -27.21 1.38 -27.27784 1.39894 C -27.34 1.41 -27.41 1.43 -27.47196 1.44183 C -27.54 1.46 -27.6 1.47 -27.66915 1.48398 C -27.74 1.5 -27.8 1.51 -27.86887 1.52531 C -27.94 1.54 -28 1.55 -28.0706 1.56572 C -28.14 1.58 -28.21 1.59 -28.27379 1.60512 C -28.34 1.62 -28.41 1.63 -28.47788 1.64344 C -28.53 1.65 -28.59 1.66 -28.64219 1.6734 C -28.7 1.68 -28.75 1.69 -28.80654 1.70258 C -28.86 1.71 -28.92 1.72 -28.97077 1.73097 C -29.03 1.74 -29.08 1.75 -29.13475 1.75857 C -29.19 1.77 -29.24 1.78 -29.29835 1.78535 C -29.35 1.79 -29.41 1.8 -29.46143 1.81132 C -29.52 1.82 -29.57 1.83 -29.62387 1.83645 C -29.68 1.84 -29.73 1.85 -29.78556 1.86076 C -29.84 1.87 -29.89 1.88 -29.94638 1.88422 C -30 1.89 -30.05 1.9 -30.10621 1.90683 C -30.16 1.91 -30.21 1.92 -30.26496 1.92859 C -30.32 1.94 -30.37 1.94 -30.42252 1.94949 C -30.47 1.96 -30.53 1.96 -30.5788 1.96953 C -30.63 1.98 -30.68 1.98 -30.73369 1.98871 C -30.79 1.99 -30.84 2 -30.88712 2.00702 C -30.94 2.01 -30.99 2.02 -31.03899 2.02446 C -31.09 2.03 -31.14 2.04 -31.19292 2.04145 C -31.24 2.05 -31.29 2.05 -31.34521 2.05754 C -31.45 2.07 -31.55 2.08 -31.6447 2.08707 C -31.84 2.11 -32.03 2.12 -32.22235 2.13566 C -32.6 2.16 -32.95 2.18 -33.28601 2.19195 C -33.95 2.21 -34.53 2.2 -35.01036 2.14894" />
    <path d="M 9.55184 4.55003 L 9.55184 5.05302" />
    <path d="M 0.09061 5.34083 L 0.09061 5.75185" />
    <path d="M -26.90081 0.80837 L -26.90081 1.31136" />
    <path d="M -36.36204 1.59917 L -36.36204 2.01019" />
    <path d="M -27.65363 -0.65791 L -27.65363 -0.52514" />
    <path d="M 8.79902 3.08375 L 8.79902 3.21652" />
    <path d="M -39.48194 -4.2511 A 4 2.59366 265.68395 0 1 -39.18091 3.72203 L -38.42178 3.66474 A 4 2.59366 85.68395 0 0 -38.72281 -4.30839 A 4 2.59366 85.68395 0 0 -39.02384 -4.31257" />
    <path d="M -39.18091 3.72203 A 4 2.59366 265.68395 0 1 -41.20113 2.54935" />
    <path d="M -41.60431 -2.79267 A 4 2.59366 265.68395 0 1 -39.78297 -4.25528 L -39.02384 -4.31257" />
    <path d="M -39.78297 -4.25528 A 4 2.59366 265.68395 0 1 -39.48194 -4.2511" />
    <path d="M -39.48194 -3.25498 A 3 1.94524 265.68395 0 1 -39.46396 2.72345" />
    <path d="M -39.91294 -3.22553 A 3 1.94524 265.68395 0 1 -39.48194 -3.25498" />
    <path d="M -41.0002 -2.89137 A 2.75 1.78314 265.68395 0 1 -40.98372 2.58886 L -39.46396 2.72345" />
    <path d="M -40.98372 2.58886 A 2.75 1.78314 265.68395 0 1 -41.39529 -2.86437 L -39.91294 -3.22553" />
    <path d="M -41.39529 -2.86437 A 2.75 1.78314 265.68395 0 1 -41.0002 -2.89137" />
    <path d="M 2.5618 -3.1667 A 0.5 0.32421 85.68395 0 0 2.23253 -3.91632" />
    <path d="M 2.27016 -7.40222 A 4 2.59366 265.68395 0 1 4.86991 -2.92979" />
    <path d="M 0.05331 -5.73521 A 4 2.59366 265.68395 0 1 1.96912 -7.4064 A 4 2.59366 265.68395 0 1 2.27016 -7.40222" />
    <path d="M 3.02929 -7.45951 A 4 2.59366 85.68395 0 0 2.72825 -7.46369 L 1.96912 -7.4064" />
    <path d="M 5.62261 -2.85253 A 4 2.59366 85.68395 0 0 3.02929 -7.45951" />
    <path d="M 6.29015 -2.78401 A 2.75 1.78314 85.68395 0 0 4.74848 -6.29101" />
    <path d="M 38.76044 0.8225 A 0.5 0.32421 85.68395 0 0 38.68518 -0.17466" />
    <path d="M 38.72281 -3.66056 A 4 2.59366 265.68395 0 1 39.02384 4.31257 A 4 2.59366 265.68395 0 1 37.1407 3.32609" />
    <path d="M 36.70628 2.63757 A 4 2.59366 265.68395 0 1 36.19442 1.01616" />
    <path d="M 36.50597 -1.99356 A 4 2.59366 265.68395 0 1 38.42178 -3.66474 A 4 2.59366 265.68395 0 1 38.72281 -3.66056" />
    <path d="M -2.27016 -0.56674 A 4 2.59366 85.68395 0 0 -2.57119 -0.57092" />
    <path d="M -1.96912 7.4064 A 4 2.59366 85.68395 0 0 -2.27016 -0.56674" />
    <path d="M 39.48194 -3.71785 A 4 2.59366 85.68395 0 0 39.18091 -3.72203 L 38.42178 -3.66474" />
    <path d="M 39.78297 4.25528 A 4 2.59366 85.68395 0 0 39.48194 -3.71785" />
    <path d="M -3.02929 -0.50944 A 4 2.59366 265.68395 0 1 -2.72825 7.46369 L -1.96912 7.4064" />
    <path d="M -2.72825 7.46369 A 4 2.59366 265.68395 0 1 -4.74848 6.29101" />
    <path d="M -5.15165 0.94899 A 4 2.59366 265.68395 0 1 -3.33032 -0.51362 L -2.57119 -0.57092" />
    <path d="M -3.33032 -0.51362 A 4 2.59366 265.68395 0 1 -3.02929 -0.50944" />
    <path d="M -3.02929 0.48668 A 3 1.94524 265.68395 0 1 -3.01131 6.46511" />
    <path d="M -3.46029 0.51613 A 3 1.94524 265.68395 0 1 -3.02929 0.48668" />
    <path d="M 41.60431 2.79267 A 2.75 1.78314 85.68395 0 0 41.20113 -2.54935" />
    <path d="M -4.54754 0.85029 A 2.75 1.78314 265.68395 0 1 -4.53107 6.33052 L -3.01131 6.46511" />
    <path d="M -4.53107 6.33052 A 2.75 1.78314 265.68395 0 1 -4.94263 0.87729 L -3.46029 0.51613" />
    <path d="M -4.94263 0.87729 A 2.75 1.78314 265.68395 0 1 -4.54754 0.85029" />
    <path d="M 10.01943 2.17032 L 0.90627 1.2349" />
    <path d="M -26.43322 -1.57134 L -35.54639 -2.50675" />
    <path d="M -36.11916 -0.019 L -25.03633 -0.85544" />
    <path d="M -36.19442 -1.01616 L -27.45233 -1.67595" />
    <path d="M -21.72001 -2.10858 L -13.43076 -2.73418" />
    <path d="M -0.03824 -3.74494 L 2.23253 -3.91632" />
    <path d="M 0.33349 3.72266 L 11.41632 2.88622" />
    <path d="M 29.4766 1.52317 L 38.76044 0.8225" />
    <path d="M 0.25823 2.7255 L 9.00032 2.06571" />
    <path d="M 14.73264 1.63308 L 23.02189 1.00748" />
    <path d="M 36.41441 -0.00328 L 38.68518 -0.17466" />
    <path d="M 39.78297 4.25528 L 39.02384 4.31257" />
</svg>