<svg version="1.1" xmlns="http://www.w3.org/2000/svg" viewBox="-37.13807324625108 -8.854178224278176 74.2761468221745 17.708280648001566" fill="none" stroke="black" stroke-width="0.6%" vector-effect="non-scaling-stroke">
    <path d="M 34.03711 -0.18858 C 34.08 -0.21 34.13 -0.23 34.17371 -0.24448 C 34.22 -0.26 34.26 -0.28 34.30583 -0.30072 C 34.35 -0.32 34.39 -0.34 34.43342 -0.35722 C 34.48 -0.38 34.52 -0.39 34.55641 -0.41392 C 34.6 -0.43 34.64 -0.45 34.67475 -0.47072 C 34.71 -0.49 34.75 -0.51 34.78839 -0.52757 C 34.83 -0.55 34.86 -0.57 34.8973 -0.58439 C 34.93 -0.6 34.97 -0.62 35.00145 -0.64109 C 35.04 -0.66 35.07 -0.68 35.10081 -0.69761 C 35.13 -0.72 35.16 -0.74 35.19537 -0.75387 C 35.23 -0.77 35.26 -0.79 35.28513 -0.80981 C 35.31 -0.83 35.34 -0.85 35.37008 -0.86534 C 35.4 -0.88 35.42 -0.9 35.45023 -0.92039 C 35.48 -0.94 35.5 -0.96 35.52561 -0.97491 C 35.55 -0.99 35.57 -1.01 35.59623 -1.02881 C 35.62 -1.05 35.64 -1.06 35.66215 -1.08203 C 35.69 -1.1 35.71 -1.13 35.73765 -1.14722 C 35.76 -1.17 35.78 -1.19 35.80621 -1.21131 C 35.83 -1.23 35.85 -1.25 35.86794 -1.27425 C 35.89 -1.3 35.91 -1.32 35.92297 -1.33597 C 35.94 -1.36 35.96 -1.38 35.97144 -1.39641 C 35.99 -1.42 36 -1.44 36.01345 -1.45554 C 36.03 -1.48 36.04 -1.49 36.04915 -1.51329 C 36.06 -1.53 36.07 -1.55 36.07865 -1.56963 C 36.09 -1.59 36.1 -1.61 36.10491 -1.63214 C 36.11 -1.65 36.12 -1.67 36.12344 -1.69271 C 36.13 -1.71 36.13 -1.73 36.13444 -1.75131 C 36.14 -1.77 36.14 -1.79 36.13807 -1.80789" />
    <path d="M 3.77948 -6.81038 C 3.75 -6.79 3.71 -6.78 3.67738 -6.76011 C 3.64 -6.74 3.61 -6.73 3.57765 -6.71019 C 3.54 -6.69 3.51 -6.68 3.48032 -6.66064 C 3.45 -6.64 3.42 -6.63 3.38543 -6.61149 C 3.35 -6.6 3.32 -6.58 3.293 -6.56274 C 3.26 -6.55 3.23 -6.53 3.20306 -6.51443 C 3.17 -6.5 3.14 -6.48 3.11564 -6.46656 C 3.09 -6.45 3.06 -6.43 3.03075 -6.41916 C 3 -6.4 2.98 -6.39 2.94842 -6.37224 C 2.92 -6.36 2.89 -6.34 2.86866 -6.32582 C 2.84 -6.31 2.82 -6.3 2.7915 -6.27992 C 2.77 -6.26 2.74 -6.25 2.71695 -6.23454 C 2.69 -6.22 2.67 -6.2 2.64502 -6.1897 C 2.62 -6.17 2.6 -6.16 2.57573 -6.14542 C 2.55 -6.13 2.53 -6.12 2.50907 -6.10171 C 2.49 -6.09 2.47 -6.07 2.44507 -6.05858 C 2.42 -6.04 2.4 -6.03 2.38371 -6.01604 C 2.36 -6 2.34 -5.99 2.32502 -5.9741 C 2.31 -5.96 2.29 -5.95 2.26898 -5.93278 C 2.25 -5.92 2.23 -5.91 2.21559 -5.89208 C 2.2 -5.88 2.18 -5.87 2.16485 -5.85201 C 2.15 -5.84 2.13 -5.83 2.11676 -5.81258 C 2.1 -5.8 2.09 -5.79 2.0713 -5.77381 C 2.06 -5.76 2.04 -5.75 2.02846 -5.73569 C 2.01 -5.72 2 -5.71 1.98823 -5.69824 C 1.98 -5.69 1.96 -5.67 1.9506 -5.66145 C 1.94 -5.65 1.93 -5.64 1.91554 -5.62535 C 1.9 -5.61 1.89 -5.6 1.88304 -5.58993 C 1.86 -5.57 1.84 -5.54 1.8256 -5.52115 C 1.81 -5.5 1.79 -5.48 1.77807 -5.45517" />
    <path d="M 3.77948 -6.81038 L 3.82257 -6.83024 L 3.86565 -6.85015 L 3.90871 -6.8701 L 3.95177 -6.89008 L 3.99482 -6.91011 L 4.03786 -6.93017 L 4.08089 -6.95027 L 4.12391 -6.97042 L 4.16691 -6.9906 L 4.20991 -7.01082 L 4.2529 -7.03108 L 4.29587 -7.05138 L 4.33884 -7.07172 L 4.3818 -7.0921 L 4.3818 -7.615 L 3.28289 -7.78099 C 3.23 -7.79 3.19 -7.79 3.13375 -7.80062 C 3.08 -7.81 3.03 -7.81 2.97519 -7.81588 C 2.92 -7.82 2.86 -7.82 2.80734 -7.82675 C 2.75 -7.83 2.69 -7.83 2.63035 -7.8332 C 2.57 -7.83 2.51 -7.84 2.44436 -7.83523 C 2.38 -7.84 2.32 -7.83 2.24949 -7.8328 C 2.18 -7.83 2.12 -7.83 2.04589 -7.8259 C 1.98 -7.82 1.91 -7.82 1.83366 -7.8145 C 1.76 -7.81 1.69 -7.8 1.61296 -7.79861 C 1.54 -7.79 1.46 -7.79 1.3839 -7.77819 C 1.31 -7.77 1.23 -7.76 1.14663 -7.75324 C 1.07 -7.74 0.98 -7.73 0.9013 -7.72374 C 0.82 -7.71 0.73 -7.7 0.64807 -7.6897 C 0.56 -7.68 0.48 -7.66 0.3871 -7.6511 C 0.3 -7.64 0.21 -7.62 0.11858 -7.60795 C 0.07 -7.6 0.03 -7.59 -0.01844 -7.58467 C -0.06 -7.58 -0.11 -7.57 -0.15728 -7.56026 C -0.22 -7.55 -0.28 -7.54 -0.3483 -7.52535 C -0.41 -7.51 -0.48 -7.5 -0.54251 -7.48837 C -0.61 -7.48 -0.67 -7.46 -0.73977 -7.44932 C -0.81 -7.44 -0.87 -7.42 -0.93997 -7.40822 C -1.01 -7.39 -1.07 -7.38 -1.14297 -7.3651 C -1.21 -7.35 -1.28 -7.34 -1.34863 -7.31995 C -1.42 -7.3 -1.49 -7.29 -1.55679 -7.27283 C -1.63 -7.26 -1.7 -7.24 -1.76728 -7.22373 C -1.83 -7.21 -1.89 -7.2 -1.94786 -7.1805 C -2.01 -7.17 -2.07 -7.15 -2.13011 -7.13583 C -2.25 -7.11 -2.38 -7.07 -2.4986 -7.04239 C -2.75 -6.98 -3 -6.91 -3.24395 -6.84084 C -3.74 -6.7 -4.24 -6.55 -4.7057 -6.39454" />
    <path d="M 33.4348 0.03461 A 75 62.35437 98.58976 0 1 19.23089 2.90488 A 75 62.35437 98.58976 0 1 8.02899 2.43456 A 75 62.35437 98.58976 0 1 5.02698 1.89033 L 5.00402 1.88548 L 4.98106 1.88063 L 4.9581 1.87577 L 4.93514 1.8709 L 4.91219 1.86602 L 4.88924 1.86113 L 4.86629 1.85623 L 4.84334 1.85132 L 4.8204 1.8464 L 4.79745 1.84147 L 4.77451 1.83652 L 4.75157 1.83157 L 4.72863 1.82661 L 4.7057 1.82164 L 4.7057 1.3101" />
    <path d="M 34.03711 -0.18858 L 33.99414 -0.17238 L 33.95116 -0.15623 L 33.90817 -0.14011 L 33.86517 -0.12403 L 33.82217 -0.10799 L 33.77916 -0.09199 L 33.73614 -0.07603 L 33.69311 -0.06011 L 33.65008 -0.04423 L 33.60704 -0.02838 L 33.56399 -0.01258 L 33.52093 0.00319 L 33.47787 0.01892 L 33.4348 0.03461 L 33.4348 -0.47631 A 74.5 61.93867 98.58976 0 1 8.10367 1.94017 A 74.5 61.93867 98.58976 0 1 5.02698 1.37941 L 5.00402 1.37453 L 4.98106 1.36963 L 4.9581 1.36472 L 4.93514 1.35981 L 4.91219 1.35488 L 4.88924 1.34995 L 4.86629 1.345 L 4.84334 1.34005 L 4.8204 1.33508 L 4.79745 1.3301 L 4.77451 1.32512 L 4.75157 1.32012 L 4.72863 1.31512 L 4.7057 1.3101" />
    <path d="M 34.03711 -0.70076 C 34.08 -0.72 34.13 -0.74 34.1737 -0.75697 C 34.22 -0.78 34.26 -0.79 34.30582 -0.81352 C 34.35 -0.83 34.39 -0.85 34.4334 -0.87033 C 34.48 -0.89 34.52 -0.91 34.55639 -0.92734 C 34.6 -0.95 34.64 -0.97 34.67472 -0.98445 C 34.71 -1 34.75 -1.02 34.78836 -1.04161 C 34.83 -1.06 34.86 -1.08 34.89727 -1.09873 C 34.93 -1.12 34.97 -1.14 35.00141 -1.15574 C 35.04 -1.17 35.07 -1.19 35.10078 -1.21257 C 35.13 -1.23 35.16 -1.25 35.19534 -1.26913 C 35.23 -1.29 35.26 -1.31 35.2851 -1.32537 C 35.31 -1.34 35.34 -1.36 35.37005 -1.38119 C 35.4 -1.4 35.42 -1.42 35.45021 -1.43655 C 35.48 -1.45 35.5 -1.47 35.52559 -1.49135 C 35.55 -1.51 35.57 -1.53 35.59623 -1.54554 C 35.62 -1.56 35.64 -1.58 35.66215 -1.59904 C 35.69 -1.62 35.71 -1.64 35.73765 -1.66457 C 35.76 -1.69 35.78 -1.71 35.8062 -1.72898 C 35.83 -1.75 35.85 -1.77 35.86793 -1.79224 C 35.89 -1.81 35.91 -1.83 35.92296 -1.85427 C 35.94 -1.87 35.96 -1.89 35.97143 -1.91502 C 35.99 -1.94 36 -1.95 36.01345 -1.97445 C 36.03 -1.99 36.04 -2.01 36.04915 -2.03249 C 36.06 -2.05 36.07 -2.07 36.07865 -2.08911 C 36.09 -2.11 36.1 -2.13 36.1049 -2.15192 C 36.11 -2.17 36.12 -2.19 36.12344 -2.21278 C 36.13 -2.23 36.13 -2.25 36.13444 -2.27166 C 36.14 -2.29 36.14 -2.31 36.13807 -2.3285 C 36.14 -2.35 36.14 -2.37 36.13379 -2.38836 C 36.13 -2.41 36.13 -2.43 36.12107 -2.44571 C 36.12 -2.46 36.11 -2.48 36.10012 -2.5005 C 36.09 -2.52 36.08 -2.54 36.07111 -2.55269 C 36.06 -2.57 36.05 -2.59 36.03423 -2.60226 C 36.02 -2.62 36.01 -2.63 35.98964 -2.64918 C 35.97 -2.66 35.96 -2.68 35.9375 -2.69341 C 35.92 -2.71 35.9 -2.72 35.87797 -2.73493 C 35.86 -2.75 35.83 -2.76 35.8112 -2.77372 C 35.79 -2.79 35.76 -2.8 35.7373 -2.80976 C 35.71 -2.82 35.68 -2.83 35.65642 -2.84303 C 35.63 -2.85 35.6 -2.86 35.56868 -2.8735 C 35.54 -2.88 35.51 -2.89 35.47419 -2.90117 C 35.44 -2.91 35.41 -2.92 35.37305 -2.92602 C 35.34 -2.93 35.3 -2.94 35.26536 -2.94803 C 35.23 -2.95 35.19 -2.96 35.15122 -2.96718 L 34.05231 -3.13318 L 34.02938 -3.1231 L 34.00644 -3.11303 L 33.98351 -3.10298 L 33.96057 -3.09293 L 33.93763 -3.0829 L 33.91468 -3.07287 L 33.89174 -3.06285 L 33.86879 -3.05285 L 33.84583 -3.04285 L 33.82288 -3.03286 L 33.79992 -3.02289 L 33.77696 -3.01292 L 33.75399 -3.00296 L 33.73103 -2.99302" />
    <path d="M 34.03711 -0.18858 L 34.03711 -0.70076 L 33.99414 -0.68447 L 33.95116 -0.66822 L 33.90817 -0.65201 L 33.86518 -0.63585 L 33.82217 -0.61972 L 33.77916 -0.60363 L 33.73614 -0.58757 L 33.69312 -0.57156 L 33.65008 -0.55559 L 33.60704 -0.53965 L 33.56399 -0.52376 L 33.52093 -0.5079 L 33.47787 -0.49209 L 33.4348 -0.47631" />
    <path d="M 25.74244 -1.63826 C 25.78 -1.63 25.83 -1.63 25.87305 -1.62037 C 25.92 -1.61 25.96 -1.61 26.01099 -1.60506 C 26.06 -1.6 26.11 -1.6 26.15617 -1.59236 C 26.21 -1.59 26.26 -1.59 26.30849 -1.58229 C 26.36 -1.58 26.41 -1.58 26.46789 -1.57489 C 26.52 -1.57 26.58 -1.57 26.63427 -1.57022 C 26.69 -1.57 26.75 -1.57 26.80758 -1.56832 C 26.87 -1.57 26.93 -1.57 26.98772 -1.56926 C 27.05 -1.57 27.11 -1.57 27.17463 -1.57309 C 27.24 -1.57 27.3 -1.58 27.36824 -1.5799 C 27.43 -1.58 27.5 -1.59 27.56847 -1.58976 C 27.64 -1.59 27.71 -1.6 27.77523 -1.60277 C 27.85 -1.61 27.92 -1.61 27.98845 -1.61902 C 28.06 -1.62 28.13 -1.63 28.20803 -1.63861 C 28.28 -1.65 28.36 -1.65 28.43387 -1.66165 C 28.51 -1.67 28.59 -1.68 28.66588 -1.68827 C 28.72 -1.7 28.78 -1.7 28.84205 -1.71042 C 28.9 -1.72 28.96 -1.73 29.02147 -1.73466 C 29.08 -1.74 29.14 -1.75 29.20403 -1.76104 C 29.27 -1.77 29.33 -1.78 29.38964 -1.78962 C 29.45 -1.8 29.51 -1.81 29.57818 -1.82044 C 29.64 -1.83 29.71 -1.84 29.76955 -1.85356 C 29.83 -1.86 29.9 -1.88 29.96361 -1.88902 C 30.03 -1.9 30.09 -1.91 30.16025 -1.9269 C 30.21 -1.94 30.27 -1.95 30.32509 -1.96015 C 30.38 -1.97 30.44 -1.98 30.49148 -1.99512 C 30.55 -2.01 30.6 -2.02 30.65928 -2.03181 C 30.72 -2.04 30.77 -2.06 30.82835 -2.07026 C 31.05 -2.12 31.28 -2.18 31.5144 -2.2418 C 32.27 -2.44 33.04 -2.7 33.73103 -2.99302" />
    <path d="M 25.74244 -1.63826 L 2.66538 -5.12412" />
    <path d="M 3.77948 -7.33152 C 3.74 -7.31 3.71 -7.3 3.6707 -7.27761 C 3.63 -7.26 3.6 -7.24 3.56461 -7.2241 C 3.53 -7.21 3.5 -7.19 3.46126 -7.17102 C 3.43 -7.15 3.39 -7.14 3.36067 -7.11839 C 3.33 -7.1 3.3 -7.08 3.2629 -7.06624 C 3.23 -7.05 3.2 -7.03 3.16796 -7.01459 C 3.14 -7 3.11 -6.98 3.07588 -6.96346 C 3.05 -6.95 3.02 -6.93 2.9867 -6.91287 C 2.96 -6.9 2.93 -6.88 2.90044 -6.86285 C 2.87 -6.85 2.84 -6.83 2.81712 -6.8134 C 2.79 -6.8 2.76 -6.78 2.73676 -6.76456 C 2.71 -6.75 2.68 -6.73 2.65937 -6.71633 C 2.63 -6.7 2.61 -6.68 2.58498 -6.66874 C 2.56 -6.65 2.54 -6.64 2.51359 -6.62179 C 2.49 -6.61 2.47 -6.59 2.44521 -6.57551 C 2.42 -6.56 2.4 -6.54 2.37985 -6.5299 C 2.36 -6.51 2.34 -6.5 2.3175 -6.48499 C 2.3 -6.47 2.28 -6.46 2.25818 -6.44078 C 2.24 -6.43 2.22 -6.41 2.20188 -6.39729 C 2.18 -6.38 2.17 -6.37 2.14859 -6.35453 C 2.13 -6.34 2.11 -6.33 2.09831 -6.3125 C 2.08 -6.3 2.07 -6.28 2.05101 -6.27123 C 2.04 -6.26 2.02 -6.24 2.0067 -6.23071 C 1.99 -6.22 1.98 -6.2 1.96534 -6.19095 C 1.95 -6.18 1.94 -6.16 1.92693 -6.15197 C 1.91 -6.14 1.9 -6.13 1.89143 -6.11377 C 1.88 -6.1 1.87 -6.09 1.85882 -6.07635 C 1.85 -6.06 1.84 -6.05 1.82907 -6.03973 C 1.79 -5.99 1.76 -5.95 1.73794 -5.90128 C 1.7 -5.82 1.68 -5.75 1.67852 -5.68882 C 1.68 -5.67 1.68 -5.65 1.68283 -5.63629 C 1.69 -5.62 1.69 -5.6 1.69562 -5.58621 C 1.7 -5.57 1.71 -5.55 1.71668 -5.53854 C 1.73 -5.52 1.73 -5.51 1.74581 -5.49322 C 1.76 -5.48 1.77 -5.46 1.78282 -5.45024 C 1.8 -5.44 1.81 -5.42 1.82753 -5.40954 C 1.84 -5.4 1.86 -5.38 1.87978 -5.37112 C 1.9 -5.36 1.92 -5.35 1.9394 -5.33493 C 1.96 -5.32 1.98 -5.31 2.00624 -5.30096 C 2.03 -5.29 2.05 -5.28 2.08015 -5.26918 C 2.11 -5.26 2.13 -5.25 2.16101 -5.23959 C 2.19 -5.23 2.22 -5.22 2.24869 -5.21217 C 2.28 -5.2 2.31 -5.19 2.34306 -5.18691 C 2.38 -5.18 2.41 -5.17 2.44404 -5.16382 C 2.48 -5.16 2.51 -5.15 2.5515 -5.14289 C 2.59 -5.14 2.63 -5.13 2.66538 -5.12412" />
    <path d="M 3.77948 -6.81038 L 3.77948 -7.33152 L 3.82257 -7.35151 L 3.86565 -7.37154 L 3.90872 -7.39161 L 3.95178 -7.41172 L 3.99482 -7.43187 L 4.03786 -7.45206 L 4.08089 -7.47229 L 4.12391 -7.49256 L 4.16692 -7.51286 L 4.20991 -7.53321 L 4.2529 -7.5536 L 4.29588 -7.57402 L 4.33884 -7.59449 L 4.3818 -7.615" />
    <path d="M -5.02698 -6.28607 L -5.00402 -6.29376 L -4.98106 -6.30145 L -4.9581 -6.30915 L -4.93514 -6.31687 L -4.91219 -6.32459 L -4.88924 -6.33232 L -4.86629 -6.34007 L -4.84334 -6.34782 L -4.82039 -6.35558 L -4.79745 -6.36335 L -4.77451 -6.37114 L -4.75157 -6.37893 L -4.72863 -6.38673 L -4.7057 -6.39454" />
    <path d="M -33.4348 -3.91944 A 75 62.35437 278.58976 0 0 -30.43278 -3.37521" />
    <path d="M -27.00387 -3.4749 A 74.5 61.93867 278.58976 0 0 -5.02698 -6.28607" />
    <path d="M -34.03711 -4.05268 L -33.99414 -4.04291 L -33.95116 -4.03317 L -33.90817 -4.02347 L -33.86517 -4.01381 L -33.82217 -4.0042 L -33.77916 -3.99462 L -33.73614 -3.98508 L -33.69311 -3.97559 L -33.65008 -3.96613 L -33.60704 -3.95671 L -33.56399 -3.94733 L -33.52093 -3.938 L -33.47787 -3.9287 L -33.4348 -3.91944" />
    <path d="M -34.03711 -4.05268 C -34.07 -4.06 -34.11 -4.07 -34.1486 -4.07873 C -34.19 -4.09 -34.22 -4.1 -34.25699 -4.10452 C -34.29 -4.11 -34.33 -4.12 -34.36228 -4.13006 C -34.4 -4.14 -34.43 -4.15 -34.46446 -4.15531 C -34.5 -4.16 -34.53 -4.17 -34.56351 -4.18028 C -34.6 -4.19 -34.63 -4.2 -34.65943 -4.20493 C -34.69 -4.21 -34.72 -4.22 -34.75222 -4.22927 C -34.78 -4.24 -34.81 -4.25 -34.84187 -4.25327 C -34.87 -4.26 -34.9 -4.27 -34.92838 -4.27691 C -34.96 -4.28 -34.98 -4.29 -35.01175 -4.30019 C -35.04 -4.31 -35.07 -4.32 -35.09199 -4.32309 C -35.12 -4.33 -35.14 -4.34 -35.1691 -4.3456 C -35.19 -4.35 -35.22 -4.36 -35.24309 -4.3677 C -35.27 -4.37 -35.29 -4.38 -35.31397 -4.38938 C -35.34 -4.4 -35.36 -4.4 -35.38175 -4.41062 C -35.4 -4.42 -35.43 -4.42 -35.44643 -4.43142 C -35.47 -4.44 -35.49 -4.45 -35.50804 -4.45176 C -35.53 -4.46 -35.55 -4.47 -35.56659 -4.47164 C -35.59 -4.48 -35.6 -4.48 -35.6221 -4.49103 C -35.64 -4.5 -35.66 -4.5 -35.67459 -4.50992 C -35.69 -4.52 -35.71 -4.52 -35.72408 -4.52832 C -35.74 -4.53 -35.76 -4.54 -35.7706 -4.5462 C -35.79 -4.55 -35.8 -4.56 -35.81416 -4.56356 C -35.83 -4.57 -35.84 -4.57 -35.85481 -4.58039 C -35.87 -4.59 -35.88 -4.59 -35.89256 -4.59668 C -35.9 -4.6 -35.92 -4.61 -35.92745 -4.61242 C -35.94 -4.62 -35.95 -4.62 -35.95951 -4.62761 C -35.97 -4.63 -35.98 -4.64 -35.98877 -4.64225 C -36.03 -4.66 -36.06 -4.68 -36.07865 -4.69507 C -36.12 -4.72 -36.14 -4.75 -36.13807 -4.76597 C -36.14 -4.77 -36.14 -4.78 -36.13379 -4.78053 C -36.13 -4.79 -36.13 -4.79 -36.12107 -4.79298 C -36.12 -4.8 -36.11 -4.8 -36.10011 -4.80334 C -36.09 -4.81 -36.08 -4.81 -36.07109 -4.81158 C -36.06 -4.81 -36.05 -4.82 -36.03421 -4.81773 C -36.02 -4.82 -36.01 -4.82 -35.98961 -4.82176 C -35.97 -4.82 -35.96 -4.82 -35.93747 -4.8237 C -35.92 -4.82 -35.9 -4.82 -35.87794 -4.82354 C -35.86 -4.82 -35.83 -4.82 -35.81116 -4.82128 C -35.79 -4.82 -35.76 -4.82 -35.73727 -4.81693 C -35.71 -4.82 -35.68 -4.81 -35.65639 -4.8105 C -35.63 -4.81 -35.6 -4.81 -35.56865 -4.802 C -35.54 -4.8 -35.51 -4.8 -35.47416 -4.79143 C -35.44 -4.79 -35.41 -4.78 -35.37303 -4.7788 C -35.34 -4.77 -35.3 -4.77 -35.26535 -4.76413 C -35.23 -4.76 -35.19 -4.75 -35.15122 -4.74742 L -35.15122 -5.27031" />
    <path d="M -34.05231 -4.58142 L -35.15122 -4.74742" />
    <path d="M -34.05231 -4.58142 L -34.02938 -4.57421 L -34.00644 -4.567 L -33.98351 -4.5598 L -33.96057 -4.55262 L -33.93763 -4.54544 L -33.91468 -4.53827 L -33.89173 -4.53112 L -33.86878 -4.52397 L -33.84583 -4.51684 L -33.82288 -4.50971 L -33.79992 -4.5026 L -33.77696 -4.49549 L -33.75399 -4.4884 L -33.73103 -4.48131 L -33.73103 -5.00332" />
    <path d="M -25.74244 -2.75749 C -25.78 -2.76 -25.83 -2.77 -25.87304 -2.77744 C -25.92 -2.78 -25.96 -2.79 -26.01098 -2.79896 C -26.06 -2.81 -26.11 -2.81 -26.15614 -2.82202 C -26.21 -2.83 -26.26 -2.84 -26.30846 -2.84664 C -26.36 -2.86 -26.41 -2.86 -26.46785 -2.87281 C -26.52 -2.88 -26.58 -2.89 -26.63422 -2.90053 C -26.69 -2.91 -26.75 -2.92 -26.80752 -2.92983 C -26.87 -2.94 -26.93 -2.95 -26.98766 -2.9607 C -27.05 -2.97 -27.11 -2.98 -27.17457 -2.99318 C -27.24 -3 -27.3 -3.02 -27.36817 -3.02729 C -27.43 -3.04 -27.5 -3.05 -27.5684 -3.06305 C -27.64 -3.08 -27.71 -3.09 -27.77517 -3.1005 C -27.85 -3.11 -27.92 -3.13 -27.98839 -3.13967 C -28.06 -3.15 -28.13 -3.17 -28.20799 -3.1806 C -28.28 -3.19 -28.36 -3.21 -28.43385 -3.22334 C -28.51 -3.24 -28.59 -3.25 -28.66588 -3.26794 C -28.72 -3.28 -28.78 -3.29 -28.84203 -3.30227 C -28.9 -3.31 -28.96 -3.33 -29.02144 -3.33767 C -29.08 -3.35 -29.14 -3.36 -29.20399 -3.37416 C -29.27 -3.39 -29.33 -3.4 -29.3896 -3.41174 C -29.45 -3.42 -29.51 -3.44 -29.57814 -3.45044 C -29.64 -3.46 -29.71 -3.48 -29.76952 -3.49026 C -29.83 -3.5 -29.9 -3.52 -29.96359 -3.53124 C -30.03 -3.55 -30.09 -3.56 -30.16025 -3.57337 C -30.21 -3.59 -30.27 -3.6 -30.32506 -3.60919 C -30.38 -3.62 -30.44 -3.63 -30.49144 -3.64581 C -30.55 -3.66 -30.6 -3.67 -30.65923 -3.68324 C -30.72 -3.7 -30.77 -3.71 -30.8283 -3.72148 C -31.05 -3.77 -31.28 -3.83 -31.51439 -3.88235 C -32.27 -4.06 -33.04 -4.27 -33.73103 -4.48131" />
    <path d="M -2.66538 0.72837 L -25.74244 -2.75749 L -25.74244 -3.2684 C -25.78 -3.27 -25.83 -3.28 -25.87305 -3.28836 C -25.92 -3.3 -25.96 -3.3 -26.01099 -3.3099 C -26.06 -3.32 -26.11 -3.33 -26.15617 -3.33301 C -26.21 -3.34 -26.26 -3.35 -26.30849 -3.35768 C -26.36 -3.37 -26.41 -3.37 -26.46789 -3.38391 C -26.52 -3.39 -26.58 -3.4 -26.63427 -3.41172 C -26.69 -3.42 -26.75 -3.43 -26.80758 -3.44111 C -26.87 -3.45 -26.93 -3.46 -26.98772 -3.4721 C -27.05 -3.48 -27.11 -3.49 -27.17463 -3.50471 C -27.24 -3.52 -27.3 -3.53 -27.36824 -3.53897 C -27.43 -3.55 -27.5 -3.56 -27.56847 -3.57489 C -27.64 -3.59 -27.71 -3.6 -27.77523 -3.61251 C -27.85 -3.63 -27.92 -3.64 -27.98845 -3.65188 C -28.06 -3.67 -28.13 -3.68 -28.20803 -3.69302 C -28.28 -3.71 -28.36 -3.72 -28.43387 -3.73599 C -28.51 -3.75 -28.59 -3.77 -28.66588 -3.78084 C -28.72 -3.79 -28.78 -3.8 -28.84205 -3.81538 C -28.9 -3.83 -28.96 -3.84 -29.02147 -3.85099 C -29.08 -3.86 -29.14 -3.88 -29.20403 -3.8877 C -29.27 -3.9 -29.33 -3.91 -29.38964 -3.92552 C -29.45 -3.94 -29.51 -3.95 -29.57818 -3.96446 C -29.64 -3.98 -29.71 -3.99 -29.76955 -4.00455 C -29.83 -4.02 -29.9 -4.03 -29.96361 -4.04579 C -30.03 -4.06 -30.09 -4.07 -30.16025 -4.08821 C -30.21 -4.1 -30.27 -4.11 -30.32508 -4.12428 C -30.38 -4.14 -30.44 -4.15 -30.49148 -4.16116 C -30.55 -4.17 -30.6 -4.19 -30.65928 -4.19886 C -30.72 -4.21 -30.77 -4.22 -30.82835 -4.23737 C -31.05 -4.29 -31.28 -4.34 -31.51439 -4.39943 C -32.27 -4.58 -33.04 -4.79 -33.73103 -5.00332" />
    <path d="M -3.77948 0.09218 C -3.75 0.1 -3.71 0.11 -3.67969 0.12397 C -3.65 0.13 -3.61 0.14 -3.58199 0.1551 C -3.55 0.17 -3.52 0.18 -3.48644 0.18556 C -3.45 0.2 -3.42 0.21 -3.39311 0.21534 C -3.36 0.23 -3.33 0.23 -3.30203 0.24442 C -3.27 0.25 -3.24 0.26 -3.21327 0.27278 C -3.18 0.28 -3.16 0.29 -3.12686 0.30043 C -3.1 0.31 -3.07 0.32 -3.04286 0.32734 C -3.02 0.34 -2.99 0.34 -2.96131 0.35351 C -2.93 0.36 -2.91 0.37 -2.88223 0.37894 C -2.86 0.39 -2.83 0.4 -2.80566 0.40361 C -2.78 0.41 -2.76 0.42 -2.73164 0.42752 C -2.71 0.44 -2.68 0.44 -2.66019 0.45068 C -2.64 0.46 -2.61 0.47 -2.59133 0.47307 C -2.57 0.48 -2.55 0.49 -2.52509 0.49469 C -2.5 0.5 -2.48 0.51 -2.46147 0.51555 C -2.43 0.52 -2.41 0.53 -2.38128 0.542 C -2.36 0.55 -2.33 0.56 -2.30566 0.56714 C -2.28 0.58 -2.26 0.58 -2.23457 0.59099 C -2.21 0.6 -2.19 0.61 -2.168 0.61357 C -2.15 0.62 -2.13 0.63 -2.10591 0.63489 C -2.09 0.64 -2.07 0.65 -2.04828 0.65499 C -2.03 0.66 -2.01 0.67 -1.99505 0.67388 C -1.98 0.68 -1.96 0.69 -1.94618 0.69159 C -1.91 0.71 -1.87 0.72 -1.84083 0.73159 C -1.81 0.74 -1.78 0.75 -1.76258 0.76449 C -1.75 0.77 -1.74 0.77 -1.7333 0.77841 C -1.72 0.78 -1.72 0.79 -1.7104 0.79072 C -1.7 0.8 -1.69 0.81 -1.68325 0.8107 C -1.68 0.81 -1.68 0.82 -1.67852 0.82031 C -1.68 0.82 -1.68 0.83 -1.68283 0.82744 C -1.69 0.83 -1.69 0.83 -1.69563 0.83257 C -1.7 0.83 -1.71 0.84 -1.71669 0.83578 C -1.73 0.84 -1.73 0.84 -1.74583 0.83713 C -1.76 0.84 -1.77 0.84 -1.78284 0.83669 C -1.8 0.84 -1.81 0.84 -1.82756 0.83453 C -1.84 0.83 -1.86 0.83 -1.87981 0.8307 C -1.9 0.83 -1.92 0.83 -1.93942 0.82525 C -1.96 0.82 -1.98 0.82 -2.00626 0.81824 C -2.03 0.82 -2.05 0.81 -2.08017 0.8097 C -2.11 0.81 -2.13 0.8 -2.16102 0.79968 C -2.19 0.8 -2.22 0.79 -2.24869 0.78821 C -2.28 0.78 -2.31 0.78 -2.34306 0.77532 C -2.38 0.77 -2.41 0.77 -2.44403 0.76104 C -2.48 0.76 -2.51 0.75 -2.5515 0.74538 C -2.59 0.74 -2.63 0.73 -2.66538 0.72837 L -2.66538 0.44899" />
    <path d="M -3.77948 0.09218 L -3.82257 0.07874 L -3.86565 0.06527 L -3.90871 0.05176 L -3.95177 0.0382 L -3.99482 0.0246 L -4.03786 0.01097 L -4.08089 -0.00271 L -4.1239 -0.01643 L -4.16691 -0.03019 L -4.20991 -0.04399 L -4.2529 -0.05783 L -4.29587 -0.07172 L -4.33884 -0.08564 L -4.3818 -0.09961 L -4.3818 -0.6225" />
    <path d="M -3.28289 0.06639 L -4.3818 -0.09961" />
    <path d="M -3.28289 0.06639 C -3.23 0.07 -3.19 0.08 -3.13377 0.08972 C -3.08 0.1 -3.03 0.11 -2.97522 0.11607 C -2.92 0.13 -2.86 0.14 -2.8074 0.14543 C -2.75 0.16 -2.69 0.17 -2.63043 0.17776 C -2.57 0.19 -2.51 0.2 -2.44446 0.21302 C -2.38 0.23 -2.32 0.24 -2.24962 0.25117 C -2.18 0.26 -2.12 0.28 -2.04603 0.29216 C -1.98 0.31 -1.91 0.32 -1.83382 0.33596 C -1.76 0.35 -1.69 0.37 -1.61312 0.3825 C -1.54 0.4 -1.46 0.41 -1.38407 0.43173 C -1.31 0.45 -1.23 0.47 -1.1468 0.48357 C -1.07 0.5 -0.98 0.52 -0.90145 0.53795 C -0.82 0.56 -0.73 0.58 -0.6482 0.59478 C -0.56 0.61 -0.48 0.63 -0.3872 0.65398 C -0.34 0.66 -0.3 0.67 -0.25385 0.68444 C -0.21 0.69 -0.16 0.71 -0.11864 0.71545 C -0.07 0.73 -0.03 0.74 0.01841 0.74699 C 0.06 0.76 0.11 0.77 0.15728 0.77906 C 0.22 0.79 0.28 0.81 0.34829 0.82332 C 0.41 0.84 0.48 0.85 0.54248 0.86846 C 0.61 0.88 0.67 0.9 0.73973 0.91443 C 0.81 0.93 0.87 0.95 0.93993 0.96118 C 1.01 0.98 1.07 0.99 1.14293 1.00864 C 1.21 1.02 1.28 1.04 1.3486 1.05675 C 1.42 1.07 1.49 1.09 1.55677 1.10545 C 1.63 1.12 1.7 1.14 1.76728 1.15467 C 1.89 1.18 2.01 1.21 2.13008 1.23932 C 2.25 1.27 2.38 1.3 2.49855 1.32494 C 2.75 1.38 3 1.44 3.24389 1.49642 C 3.74 1.61 4.24 1.72 4.7057 1.82164" />
    <path d="M 5.02698 1.89033 L 5.02698 1.37941" />
    <path d="M -36.13807 -5.28659 C -36.14 -5.29 -36.14 -5.3 -36.13379 -5.30141 C -36.13 -5.31 -36.13 -5.31 -36.12107 -5.31412 C -36.12 -5.32 -36.11 -5.32 -36.10011 -5.32472 C -36.09 -5.33 -36.08 -5.33 -36.07111 -5.33319 C -36.06 -5.34 -36.05 -5.34 -36.03422 -5.33953 C -36.02 -5.34 -36.01 -5.34 -35.98964 -5.34376 C -35.97 -5.34 -35.96 -5.35 -35.9375 -5.34587 C -35.92 -5.35 -35.9 -5.35 -35.87797 -5.34585 C -35.86 -5.35 -35.83 -5.34 -35.81119 -5.34373 C -35.79 -5.34 -35.76 -5.34 -35.7373 -5.3395 C -35.71 -5.34 -35.68 -5.34 -35.65642 -5.33317 C -35.63 -5.33 -35.6 -5.33 -35.56868 -5.32475 C -35.54 -5.32 -35.51 -5.32 -35.47418 -5.31424 C -35.44 -5.31 -35.41 -5.31 -35.37304 -5.30166 C -35.34 -5.3 -35.3 -5.29 -35.26536 -5.28701 C -35.23 -5.28 -35.19 -5.28 -35.15122 -5.27031" />
    <path d="M -34.05231 -5.10432 L -35.15122 -5.27031" />
    <path d="M -34.05231 -5.10432 L -34.02938 -5.09704 L -34.00644 -5.08977 L -33.98351 -5.08251 L -33.96057 -5.07526 L -33.93763 -5.06802 L -33.91468 -5.06079 L -33.89174 -5.05357 L -33.86879 -5.04636 L -33.84583 -5.03916 L -33.82288 -5.03197 L -33.79992 -5.02479 L -33.77696 -5.01763 L -33.75399 -5.01047 L -33.73103 -5.00332" />
    <path d="M -4.04283 0.00939 L -25.74244 -3.2684" />
    <path d="M -3.28289 -0.45651 L -4.3818 -0.6225" />
    <path d="M -3.28289 -0.45651 C -3.23 -0.45 -3.19 -0.44 -3.13375 -0.43316 C -3.08 -0.42 -3.03 -0.42 -2.97519 -0.40676 C -2.92 -0.4 -2.86 -0.39 -2.80734 -0.37733 C -2.75 -0.37 -2.69 -0.36 -2.63035 -0.3449 C -2.57 -0.33 -2.51 -0.32 -2.44436 -0.30952 C -2.38 -0.3 -2.32 -0.28 -2.24949 -0.27121 C -2.18 -0.26 -2.12 -0.24 -2.04589 -0.23004 C -1.98 -0.22 -1.91 -0.2 -1.83366 -0.18603 C -1.76 -0.17 -1.69 -0.16 -1.61296 -0.13926 C -1.54 -0.12 -1.46 -0.11 -1.3839 -0.08978 C -1.31 -0.07 -1.23 -0.06 -1.14663 -0.03765 C -1.07 -0.02 -0.98 0 -0.9013 0.01703 C -0.82 0.04 -0.73 0.05 -0.64807 0.0742 C -0.56 0.09 -0.48 0.11 -0.3871 0.13375 C -0.34 0.14 -0.3 0.15 -0.25377 0.16439 C -0.21 0.17 -0.16 0.19 -0.11858 0.19558 C -0.07 0.21 -0.03 0.22 0.01844 0.22732 C 0.06 0.24 0.11 0.25 0.15728 0.25959 C 0.22 0.27 0.28 0.29 0.3483 0.30414 C 0.41 0.32 0.48 0.33 0.54251 0.34958 C 0.61 0.36 0.67 0.38 0.73977 0.39586 C 0.81 0.41 0.87 0.43 0.93997 0.44293 C 1.01 0.46 1.07 0.47 1.14297 0.49072 C 1.21 0.51 1.28 0.52 1.34863 0.53917 C 1.42 0.56 1.49 0.57 1.55679 0.58822 C 1.63 0.6 1.7 0.62 1.76728 0.63778 C 1.89 0.67 2.01 0.69 2.13011 0.72307 C 2.25 0.75 2.38 0.78 2.49861 0.80934 C 2.75 0.87 3 0.92 3.24395 0.98215 C 3.74 1.1 4.24 1.21 4.7057 1.3101" />
    <path d="M -34.05231 -4.58142 L -34.05231 -5.10432" />
    <path d="M 4.37267 5.99049 C 4.26 6.03 4.15 6.06 4.04198 6.09327 C 3.99 6.11 3.93 6.13 3.87487 6.1438 C 3.82 6.16 3.76 6.18 3.70685 6.1937 C 3.65 6.21 3.59 6.23 3.53813 6.24289 C 3.48 6.26 3.43 6.28 3.3689 6.29135 C 3.31 6.31 3.26 6.32 3.19937 6.339 C 3.14 6.35 3.09 6.37 3.02973 6.38581 C 2.97 6.4 2.92 6.42 2.86018 6.43173 C 2.8 6.45 2.75 6.46 2.69092 6.47671 C 2.63 6.49 2.58 6.51 2.52213 6.52071 C 2.47 6.54 2.41 6.55 2.35401 6.56367 C 2.3 6.58 2.24 6.59 2.18674 6.60557 C 2.13 6.62 2.08 6.63 2.02051 6.64636 C 1.97 6.66 1.91 6.67 1.8555 6.686 C 1.8 6.7 1.75 6.71 1.69188 6.72447 C 1.62 6.74 1.56 6.76 1.49048 6.77064 C 1.42 6.79 1.36 6.8 1.2913 6.815 C 1.23 6.83 1.16 6.84 1.09446 6.85753 C 1.03 6.87 0.96 6.88 0.90012 6.8982 C 0.84 6.91 0.77 6.92 0.70839 6.93701 C 0.64 6.95 0.58 6.96 0.51939 6.97393 C 0.46 6.99 0.39 7 0.33323 7.00896 C 0.27 7.02 0.21 7.03 0.15 7.04208 C 0.1 7.05 0.06 7.06 0.01146 7.0662 C -0.03 7.07 -0.08 7.08 -0.12528 7.08919 C -0.22 7.1 -0.31 7.12 -0.39323 7.13178 C -0.48 7.15 -0.57 7.16 -0.65364 7.16986 C -0.74 7.18 -0.82 7.19 -0.90632 7.20342 C -1.24 7.25 -1.55 7.27 -1.83663 7.29266 C -2.41 7.33 -2.9 7.32 -3.28289 7.25809 L -3.28289 7.78099 L -4.3818 7.615" />
    <path d="M -3.28289 7.25809 L -4.3818 7.0921 L -4.3818 7.615" />
    <path d="M -4.3818 7.0921 L -4.35979 7.08195 L -4.33779 7.07181 L -4.31578 7.06167 L -4.29377 7.05155 L -4.27176 7.04144 L -4.24974 7.03133 L -4.22772 7.02124 L -4.2057 7.01116 L -4.18368 7.00108 L -4.16165 6.99102 L -4.13963 6.98097 L -4.11759 6.97092 L -4.09556 6.96089 L -4.07352 6.95086" />
    <path d="M -2.66538 4.6132 C -2.63 4.62 -2.59 4.63 -2.5515 4.63196 C -2.51 4.64 -2.48 4.65 -2.44403 4.65288 C -2.41 4.66 -2.38 4.67 -2.34306 4.67594 C -2.31 4.68 -2.28 4.69 -2.24869 4.70115 C -2.22 4.71 -2.19 4.72 -2.16102 4.72852 C -2.13 4.74 -2.11 4.75 -2.08017 4.75804 C -2.05 4.77 -2.03 4.78 -2.00626 4.78973 C -1.98 4.8 -1.96 4.81 -1.93942 4.8236 C -1.92 4.84 -1.9 4.85 -1.87981 4.85967 C -1.86 4.87 -1.84 4.88 -1.82756 4.89798 C -1.81 4.91 -1.8 4.92 -1.78284 4.93853 C -1.77 4.95 -1.76 4.97 -1.74583 4.98136 C -1.73 5 -1.73 5.01 -1.71669 5.02651 C -1.71 5.04 -1.7 5.06 -1.69563 5.07401 C -1.69 5.09 -1.69 5.11 -1.68283 5.1239 C -1.68 5.14 -1.68 5.16 -1.67852 5.17623 C -1.68 5.19 -1.68 5.2 -1.68051 5.21288 C -1.68 5.23 -1.68 5.24 -1.68652 5.25068 C -1.69 5.28 -1.7 5.31 -1.71758 5.34567 C -1.73 5.38 -1.75 5.41 -1.773 5.44741 C -1.8 5.48 -1.82 5.52 -1.85376 5.55603 C -1.89 5.59 -1.92 5.63 -1.96085 5.67166 C -1.98 5.69 -1.99 5.7 -2.01316 5.72165 C -2.03 5.74 -2.05 5.76 -2.07022 5.77287 C -2.09 5.79 -2.11 5.81 -2.13207 5.82531 C -2.15 5.84 -2.18 5.86 -2.19875 5.87894 C -2.22 5.9 -2.25 5.92 -2.2703 5.93377 C -2.29 5.95 -2.32 5.97 -2.34674 5.98977 C -2.37 6.01 -2.4 6.03 -2.42811 6.04694 C -2.46 6.07 -2.48 6.09 -2.51441 6.10525 C -2.54 6.12 -2.56 6.14 -2.58863 6.15375 C -2.61 6.17 -2.64 6.19 -2.66617 6.203 C -2.69 6.22 -2.72 6.24 -2.747 6.25296 C -2.77 6.27 -2.8 6.29 -2.8311 6.30361 C -2.86 6.32 -2.89 6.34 -2.91842 6.3549 C -2.95 6.37 -2.98 6.39 -3.00891 6.40681 C -3.04 6.42 -3.07 6.44 -3.10251 6.4593 C -3.13 6.48 -3.17 6.49 -3.19917 6.51232 C -3.23 6.53 -3.27 6.55 -3.29883 6.56584 C -3.33 6.58 -3.37 6.6 -3.4014 6.61982 C -3.44 6.64 -3.47 6.66 -3.50682 6.67422 C -3.54 6.69 -3.58 6.71 -3.615 6.72898 C -3.65 6.75 -3.69 6.77 -3.72585 6.78408 C -3.76 6.8 -3.8 6.82 -3.83929 6.83945 C -3.88 6.86 -3.92 6.88 -3.95522 6.89507 C -3.99 6.91 -4.03 6.93 -4.07352 6.95086" />
    <path d="M -2.66538 4.6132 L -25.74244 1.12734 L -25.74244 1.63826" />
    <path d="M -33.398 2.33641 C -33.35 2.32 -33.31 2.3 -33.26734 2.2861 C -33.22 2.27 -33.18 2.25 -33.13568 2.23674 C -33.09 2.22 -33.05 2.2 -33.00312 2.18836 C -32.96 2.17 -32.91 2.16 -32.86976 2.14096 C -32.78 2.11 -32.69 2.08 -32.60099 2.04921 C -32.51 2.02 -32.42 1.99 -32.33012 1.96159 C -32.24 1.93 -32.15 1.91 -32.05789 1.87816 C -31.97 1.85 -31.88 1.82 -31.78504 1.799 C -31.69 1.77 -31.6 1.75 -31.51228 1.72416 C -31.47 1.71 -31.42 1.7 -31.37617 1.68836 C -31.33 1.68 -31.29 1.67 -31.24034 1.65364 C -31.2 1.64 -31.15 1.63 -31.1049 1.62002 C -31.06 1.61 -31.01 1.6 -30.96992 1.58748 C -30.93 1.58 -30.88 1.57 -30.8355 1.55602 C -30.79 1.55 -30.75 1.54 -30.70171 1.52564 C -30.66 1.52 -30.61 1.51 -30.56865 1.49635 C -30.52 1.49 -30.48 1.48 -30.43639 1.46812 C -30.39 1.46 -30.35 1.45 -30.30501 1.44097 C -30.26 1.43 -30.22 1.42 -30.1746 1.41487 C -30.13 1.41 -30.09 1.4 -30.04524 1.38984 C -30 1.38 -29.96 1.37 -29.917 1.36584 C -29.87 1.36 -29.83 1.35 -29.78995 1.34289 C -29.75 1.34 -29.71 1.33 -29.66419 1.32096 C -29.62 1.31 -29.58 1.31 -29.53977 1.30005 C -29.5 1.29 -29.46 1.29 -29.41678 1.28014 C -29.38 1.27 -29.34 1.27 -29.29527 1.26122 C -29.26 1.26 -29.22 1.25 -29.17533 1.24328 C -28.8 1.19 -28.45 1.15 -28.11593 1.11772 C -27.78 1.09 -27.47 1.07 -27.18528 1.06187 C -26.61 1.05 -26.13 1.07 -25.74244 1.12734" />
    <path d="M -33.398 2.33641 L -33.44481 2.35572 L -33.4916 2.37506 L -33.53839 2.39445 L -33.58517 2.41387 L -33.63193 2.43333 L -33.67868 2.45284 L -33.72543 2.47238 L -33.77216 2.49196 L -33.81888 2.51158 L -33.86559 2.53124 L -33.91228 2.55094 L -33.95897 2.57068 L -34.00564 2.59046 L -34.05231 2.61028 L -34.05231 3.13318 L -35.15122 2.96718 C -35.19 2.96 -35.23 2.95 -35.26536 2.94803 C -35.3 2.94 -35.34 2.93 -35.37304 2.92602 C -35.41 2.92 -35.44 2.91 -35.47419 2.90117 C -35.51 2.89 -35.54 2.88 -35.56868 2.8735 C -35.6 2.86 -35.63 2.85 -35.65642 2.84303 C -35.68 2.83 -35.71 2.82 -35.7373 2.80976 C -35.76 2.8 -35.79 2.79 -35.81119 2.77372 C -35.83 2.76 -35.86 2.75 -35.87797 2.73493 C -35.9 2.72 -35.92 2.71 -35.9375 2.69341 C -35.96 2.68 -35.97 2.66 -35.98964 2.64918 C -36.01 2.63 -36.02 2.62 -36.03422 2.60226 C -36.05 2.59 -36.06 2.57 -36.07111 2.55269 C -36.08 2.54 -36.09 2.52 -36.10011 2.5005 C -36.11 2.48 -36.12 2.46 -36.12107 2.44571 C -36.13 2.43 -36.13 2.41 -36.13379 2.38836 C -36.14 2.37 -36.14 2.35 -36.13807 2.3285 L -36.13807 1.80789 C -36.14 1.79 -36.14 1.77 -36.13438 1.7508 C -36.13 1.73 -36.13 1.71 -36.12318 1.69167 C -36.12 1.67 -36.11 1.65 -36.10431 1.63052 C -36.1 1.61 -36.09 1.59 -36.07759 1.56741 C -36.07 1.55 -36.06 1.53 -36.04647 1.50864 C -36.03 1.49 -36.02 1.47 -36.00863 1.44834 C -35.99 1.43 -35.98 1.41 -35.96391 1.38656 C -35.95 1.37 -35.93 1.34 -35.91218 1.32336 C -35.89 1.3 -35.87 1.28 -35.8533 1.25879 C -35.83 1.24 -35.81 1.22 -35.78711 1.19291 C -35.76 1.17 -35.74 1.15 -35.71349 1.12581 C -35.69 1.1 -35.66 1.08 -35.63228 1.05753 C -35.61 1.04 -35.58 1.02 -35.55723 0.99867 C -35.53 0.98 -35.5 0.96 -35.4764 0.939 C -35.45 0.92 -35.42 0.9 -35.38977 0.87861 C -35.36 0.86 -35.33 0.84 -35.29731 0.81761 C -35.27 0.8 -35.23 0.78 -35.199 0.75609 C -35.17 0.74 -35.13 0.71 -35.09487 0.69416 C -35.06 0.67 -35.02 0.65 -34.98491 0.63192 C -34.95 0.61 -34.91 0.59 -34.86917 0.56948 C -34.83 0.55 -34.79 0.53 -34.74769 0.50694 C -34.71 0.49 -34.66 0.47 -34.62053 0.44441 C -34.58 0.42 -34.53 0.4 -34.48775 0.38199 C -34.44 0.36 -34.4 0.34 -34.34945 0.31978 C -34.3 0.3 -34.25 0.28 -34.20572 0.2579 C -34.16 0.24 -34.11 0.22 -34.05666 0.19644 C -34.01 0.18 -33.95 0.16 -33.9024 0.13551 C -33.85 0.12 -33.8 0.1 -33.74307 0.0752" />
    <path d="M -34.05231 2.61028 L -35.15122 2.44429 L -35.15122 2.96718" />
    <path d="M -35.15122 2.44429 C -35.19 2.44 -35.23 2.43 -35.26535 2.42514 C -35.3 2.42 -35.34 2.41 -35.37303 2.40316 C -35.41 2.4 -35.44 2.39 -35.47416 2.37837 C -35.51 2.37 -35.54 2.36 -35.56865 2.35076 C -35.6 2.34 -35.63 2.33 -35.65639 2.32037 C -35.68 2.31 -35.71 2.3 -35.73727 2.2872 C -35.76 2.28 -35.79 2.26 -35.81116 2.25128 C -35.83 2.24 -35.86 2.23 -35.87794 2.21263 C -35.9 2.2 -35.92 2.19 -35.93747 2.17126 C -35.96 2.16 -35.97 2.14 -35.98961 2.1272 C -36.01 2.11 -36.02 2.1 -36.03421 2.08048 C -36.05 2.06 -36.06 2.05 -36.07109 2.03111 C -36.08 2.01 -36.09 2 -36.10011 1.97913 C -36.11 1.96 -36.12 1.94 -36.12107 1.92458 C -36.13 1.91 -36.13 1.89 -36.13379 1.86748 C -36.14 1.85 -36.14 1.83 -36.13807 1.80789" />
    <path d="M -33.4348 -0.03461 L -33.45683 -0.02683 L -33.47886 -0.01904 L -33.50089 -0.01124 L -33.52291 -0.00343 L -33.54494 0.00439 L -33.56696 0.01222 L -33.58898 0.02006 L -33.611 0.02791 L -33.63301 0.03576 L -33.65503 0.04363 L -33.67704 0.05151 L -33.69905 0.0594 L -33.72106 0.06729 L -33.74307 0.0752" />
    <path d="M -23.91316 -2.3904 A 75 62.35437 278.58976 0 0 -33.4348 -0.03461" />
    <path d="M 5.02698 5.77516 A 75 62.35437 98.58976 0 1 19.23089 2.90488 A 75 62.35437 98.58976 0 1 30.43278 3.37521 L 23.91316 2.3904" />
    <path d="M 4.37267 5.99049 L 4.41935 5.97485 L 4.46604 5.95926 L 4.51274 5.9437 L 4.55945 5.92819 L 4.60617 5.91271 L 4.65289 5.89727 L 4.69962 5.88187 L 4.74637 5.86651 L 4.79311 5.85119 L 4.83987 5.8359 L 4.88664 5.82066 L 4.93341 5.80545 L 4.98019 5.79029 L 5.02698 5.77516 L 5.02698 6.28607 A 74.5 61.93867 98.58976 0 1 30.35811 3.8696 A 74.5 61.93867 98.58976 0 1 33.4348 4.43036 L 33.45683 4.4351 L 33.47886 4.43985 L 33.50089 4.44462 L 33.52291 4.44939 L 33.54494 4.45418 L 33.56696 4.45898 L 33.58898 4.46378 L 33.611 4.4686 L 33.63302 4.47342 L 33.65503 4.47826 L 33.67704 4.4831 L 33.69905 4.48796 L 33.72106 4.49282 L 33.74307 4.4977" />
    <path d="M 4.37267 6.50267 C 4.26 6.54 4.15 6.57 4.042 6.60607 C 3.99 6.62 3.93 6.64 3.8749 6.65691 C 3.82 6.67 3.76 6.69 3.70689 6.70712 C 3.65 6.72 3.59 6.74 3.53817 6.75662 C 3.48 6.77 3.43 6.79 3.36895 6.80539 C 3.31 6.82 3.26 6.84 3.19942 6.85335 C 3.14 6.87 3.09 6.88 3.02979 6.90047 C 2.97 6.92 2.92 6.93 2.86024 6.94669 C 2.8 6.96 2.75 6.98 2.69098 6.99197 C 2.63 7.01 2.58 7.02 2.52219 7.03627 C 2.47 7.05 2.41 7.07 2.35406 7.07953 C 2.3 7.09 2.24 7.11 2.18679 7.12172 C 2.13 7.14 2.08 7.15 2.02054 7.1628 C 1.97 7.18 1.91 7.19 1.85552 7.20274 C 1.8 7.22 1.75 7.23 1.69188 7.24148 C 1.62 7.26 1.56 7.27 1.4905 7.28799 C 1.42 7.3 1.36 7.32 1.29133 7.33268 C 1.23 7.35 1.16 7.36 1.0945 7.37552 C 1.03 7.39 0.96 7.4 0.90016 7.41651 C 0.84 7.43 0.77 7.44 0.70843 7.45562 C 0.64 7.47 0.58 7.48 0.51942 7.49284 C 0.46 7.5 0.39 7.52 0.33324 7.52816 C 0.27 7.54 0.21 7.55 0.15 7.56156 C 0.1 7.57 0.06 7.58 0.01149 7.58588 C -0.03 7.59 -0.08 7.6 -0.12523 7.60906 C -0.22 7.62 -0.31 7.64 -0.39313 7.65203 C -0.48 7.67 -0.57 7.68 -0.65351 7.69047 C -0.74 7.7 -0.82 7.71 -0.90617 7.72436 C -1.24 7.77 -1.55 7.8 -1.83648 7.81468 C -2.41 7.85 -2.9 7.84 -3.28289 7.78099" />
    <path d="M 4.37267 5.99049 L 4.37267 6.50267 L 4.41935 6.48694 L 4.46604 6.47126 L 4.51274 6.45561 L 4.55945 6.44 L 4.60617 6.42443 L 4.65289 6.4089 L 4.69962 6.39341 L 4.74636 6.37796 L 4.79311 6.36255 L 4.83987 6.34717 L 4.88663 6.33184 L 4.93341 6.31654 L 4.98019 6.30129 L 5.02698 6.28607" />
    <path d="M -2.66538 5.12412 C -2.64 5.13 -2.61 5.13 -2.58557 5.13693 C -2.56 5.14 -2.53 5.15 -2.50885 5.15079 C -2.48 5.16 -2.46 5.16 -2.43523 5.16569 C -2.41 5.17 -2.39 5.18 -2.36476 5.18164 C -2.34 5.19 -2.32 5.19 -2.29746 5.19863 C -2.28 5.2 -2.25 5.21 -2.23337 5.21666 C -2.21 5.22 -2.19 5.23 -2.17252 5.23574 C -2.15 5.24 -2.13 5.25 -2.11496 5.25586 C -2.1 5.26 -2.08 5.27 -2.06073 5.27704 C -2.04 5.28 -2.03 5.29 -2.00986 5.29927 C -1.99 5.31 -1.98 5.31 -1.96241 5.32256 C -1.95 5.33 -1.93 5.34 -1.91842 5.34692 C -1.9 5.36 -1.89 5.36 -1.87793 5.37235 C -1.87 5.38 -1.85 5.39 -1.84101 5.39886 C -1.83 5.41 -1.82 5.42 -1.8077 5.42647 C -1.8 5.44 -1.79 5.45 -1.77807 5.45517" />
    <path d="M -2.66538 5.12412 L -25.74244 1.63826" />
    <path d="M -33.398 2.85756 C -33.35 2.84 -33.31 2.82 -33.2674 2.80694 C -33.22 2.79 -33.18 2.77 -33.13581 2.75729 C -33.09 2.74 -33.05 2.72 -33.00331 2.70861 C -32.96 2.69 -32.91 2.68 -32.87 2.66092 C -32.78 2.63 -32.69 2.6 -32.60132 2.5686 C -32.51 2.54 -32.42 2.51 -32.33052 2.4804 C -32.24 2.45 -32.15 2.42 -32.05835 2.39643 C -31.97 2.37 -31.88 2.34 -31.78553 2.31674 C -31.69 2.29 -31.6 2.27 -31.51279 2.24137 C -31.47 2.23 -31.42 2.22 -31.37668 2.20532 C -31.33 2.19 -31.29 2.18 -31.24085 2.17036 C -31.2 2.16 -31.15 2.15 -31.1054 2.13649 C -31.06 2.13 -31.02 2.11 -30.97041 2.10372 C -30.93 2.09 -30.88 2.08 -30.83597 2.07203 C -30.79 2.06 -30.75 2.05 -30.70217 2.04143 C -30.66 2.03 -30.61 2.02 -30.56908 2.01191 C -30.52 2 -30.48 1.99 -30.43679 1.98347 C -30.39 1.97 -30.35 1.97 -30.30539 1.9561 C -30.26 1.95 -30.22 1.94 -30.17495 1.92981 C -30.13 1.92 -30.09 1.91 -30.04555 1.90457 C -30 1.9 -29.96 1.89 -29.91727 1.88038 C -29.87 1.87 -29.83 1.86 -29.79019 1.85724 C -29.75 1.85 -29.71 1.84 -29.66438 1.83513 C -29.62 1.83 -29.58 1.82 -29.53992 1.81404 C -29.5 1.81 -29.46 1.8 -29.41688 1.79396 C -29.38 1.79 -29.34 1.78 -29.29532 1.77488 C -29.26 1.77 -29.22 1.76 -29.17533 1.75678 C -28.8 1.7 -28.45 1.66 -28.11604 1.63005 C -27.78 1.6 -27.47 1.58 -27.18538 1.57339 C -26.61 1.56 -26.13 1.58 -25.74244 1.63826" />
    <path d="M -33.398 2.33641 L -33.398 2.85756 L -33.44481 2.87699 L -33.49161 2.89645 L -33.53839 2.91596 L -33.58517 2.93551 L -33.63193 2.9551 L -33.67869 2.97472 L -33.72543 2.99439 L -33.77216 3.0141 L -33.81888 3.03385 L -33.86559 3.05363 L -33.91229 3.07346 L -33.95897 3.09333 L -34.00565 3.11323 L -34.05231 3.13318" />
    <path d="M 36.13807 4.76597 C 36.14 4.76 36.14 4.76 36.13438 4.75071 C 36.13 4.75 36.13 4.74 36.12318 4.73368 C 36.12 4.73 36.11 4.72 36.10431 4.71488 C 36.1 4.71 36.09 4.7 36.07759 4.69433 C 36.07 4.69 36.06 4.68 36.04647 4.67422 C 36.03 4.67 36.02 4.66 36.00863 4.6527 C 35.99 4.65 35.98 4.64 35.96391 4.62977 C 35.95 4.62 35.93 4.61 35.91218 4.60545 C 35.89 4.6 35.87 4.59 35.8533 4.57975 C 35.83 4.57 35.81 4.56 35.78711 4.55271 C 35.76 4.54 35.74 4.53 35.71349 4.52433 C 35.69 4.51 35.66 4.5 35.63228 4.49464 C 35.61 4.49 35.58 4.48 35.55723 4.46842 C 35.53 4.46 35.5 4.45 35.4764 4.44125 C 35.45 4.43 35.42 4.42 35.38977 4.41317 C 35.36 4.4 35.33 4.39 35.29731 4.38423 C 35.27 4.37 35.23 4.36 35.199 4.35447 C 35.17 4.34 35.13 4.33 35.09487 4.32392 C 35.06 4.31 35.02 4.3 34.98491 4.29264 C 34.95 4.28 34.91 4.27 34.86917 4.26067 C 34.83 4.25 34.79 4.24 34.74769 4.22807 C 34.71 4.22 34.66 4.21 34.62053 4.19487 C 34.58 4.18 34.53 4.17 34.48775 4.16114 C 34.44 4.15 34.4 4.14 34.34945 4.12692 C 34.3 4.12 34.25 4.1 34.20572 4.09226 C 34.16 4.08 34.11 4.07 34.05666 4.05721 C 34.01 4.05 33.95 4.03 33.9024 4.02183 C 33.85 4.01 33.8 4 33.74307 3.98616 L 33.74307 4.4977" />
    <path d="M 33.4348 3.91944 L 33.45683 3.92414 L 33.47886 3.92885 L 33.50089 3.93357 L 33.52291 3.9383 L 33.54494 3.94304 L 33.56696 3.94779 L 33.58898 3.95255 L 33.611 3.95732 L 33.63301 3.96211 L 33.65503 3.9669 L 33.67704 3.9717 L 33.69905 3.97651 L 33.72106 3.98133 L 33.74307 3.98616" />
    <path d="M 30.43278 3.37521 A 75 62.35437 98.58976 0 1 33.4348 3.91944 L 33.4348 4.43036" />
    <path d="M 33.398 4.90293 C 33.36 4.89 33.32 4.88 33.27838 4.86786 C 33.24 4.86 33.2 4.84 33.15771 4.83296 C 33.08 4.81 33 4.79 32.91355 4.7638 C 32.83 4.74 32.75 4.72 32.66627 4.69561 C 32.58 4.67 32.5 4.65 32.41661 4.62854 C 32.33 4.61 32.25 4.58 32.16533 4.56272 C 32.08 4.54 32 4.52 31.91321 4.49829 C 31.83 4.48 31.75 4.46 31.66103 4.43536 C 31.58 4.41 31.49 4.39 31.40957 4.37404 C 31.35 4.36 31.3 4.35 31.24392 4.33439 C 31.19 4.32 31.13 4.31 31.07898 4.29547 C 31.02 4.28 30.97 4.27 30.91488 4.25729 C 30.86 4.24 30.81 4.23 30.75175 4.21986 C 30.7 4.21 30.64 4.2 30.58973 4.18317 C 30.54 4.17 30.48 4.16 30.42893 4.14724 C 30.38 4.14 30.32 4.12 30.26948 4.11206 C 30.22 4.1 30.16 4.09 30.1115 4.07764 C 30.04 4.06 29.98 4.05 29.91211 4.03479 C 29.85 4.02 29.78 4.01 29.71542 3.99315 C 29.65 3.98 29.59 3.97 29.52157 3.95271 C 29.46 3.94 29.39 3.93 29.33067 3.91345 C 29.27 3.9 29.2 3.89 29.14285 3.87534 C 29.08 3.86 29.02 3.85 28.95821 3.83838 C 28.9 3.83 28.84 3.81 28.77685 3.80254 C 28.72 3.79 28.66 3.78 28.59888 3.76781 C 28.52 3.75 28.45 3.74 28.37925 3.72554 C 28.31 3.71 28.24 3.7 28.16524 3.68496 C 28.09 3.67 28.03 3.66 27.95694 3.64602 C 27.89 3.63 27.82 3.62 27.75444 3.6087 C 27.49 3.56 27.24 3.52 27.00387 3.4749" />
    <path d="M 33.398 4.90293 L 33.44481 4.91705 L 33.49161 4.93121 L 33.53839 4.94541 L 33.58517 4.95965 L 33.63193 4.97393 L 33.67869 4.98826 L 33.72543 5.00262 L 33.77216 5.01703 L 33.81888 5.03147 L 33.86559 5.04596 L 33.91229 5.06049 L 33.95897 5.07506 L 34.00565 5.08967 L 34.05231 5.10432" />
    <path d="M 35.15122 5.27031 L 34.05231 5.10432" />
    <path d="M 35.15122 5.27031 C 35.19 5.28 35.23 5.28 35.26536 5.28701 C 35.3 5.29 35.34 5.3 35.37304 5.30166 C 35.41 5.31 35.44 5.31 35.47419 5.31424 C 35.51 5.32 35.54 5.32 35.56868 5.32475 C 35.6 5.33 35.63 5.33 35.65642 5.33317 C 35.68 5.34 35.71 5.34 35.7373 5.3395 C 35.76 5.34 35.79 5.34 35.81119 5.34373 C 35.83 5.34 35.86 5.35 35.87797 5.34585 C 35.9 5.35 35.92 5.35 35.9375 5.34587 C 35.96 5.35 35.97 5.34 35.98964 5.34376 C 36.01 5.34 36.02 5.34 36.03422 5.33953 C 36.05 5.34 36.06 5.34 36.07111 5.33319 C 36.08 5.33 36.09 5.33 36.10012 5.32472 C 36.11 5.32 36.12 5.32 36.12107 5.31412 C 36.13 5.31 36.13 5.31 36.13379 5.30141 C 36.14 5.3 36.14 5.29 36.13807 5.28659 L 36.13807 4.76597" />
    <path d="M 36.13807 5.28659 C 36.14 5.28 36.14 5.28 36.13438 5.27106 C 36.13 5.27 36.13 5.26 36.12318 5.25375 C 36.12 5.25 36.11 5.24 36.10431 5.23465 C 36.1 5.23 36.09 5.22 36.07759 5.21379 C 36.07 5.21 36.06 5.2 36.04647 5.1934 C 36.03 5.19 36.02 5.18 36.00862 5.17158 C 35.99 5.16 35.98 5.16 35.9639 5.14833 C 35.95 5.14 35.93 5.13 35.91217 5.12369 C 35.89 5.12 35.87 5.11 35.85329 5.09767 C 35.83 5.09 35.81 5.08 35.7871 5.07029 C 35.76 5.06 35.74 5.05 35.71348 5.04157 C 35.69 5.03 35.66 5.02 35.63228 5.01153 C 35.61 5 35.58 4.99 35.55722 4.98499 C 35.53 4.98 35.5 4.97 35.47639 4.95751 C 35.45 4.95 35.42 4.94 35.38975 4.92911 C 35.36 4.92 35.33 4.91 35.29728 4.89984 C 35.27 4.89 35.23 4.88 35.19897 4.86975 C 35.17 4.86 35.13 4.85 35.09483 4.83887 C 35.06 4.83 35.02 4.82 34.98487 4.80725 C 34.95 4.8 34.91 4.79 34.86913 4.77495 C 34.83 4.76 34.79 4.75 34.74765 4.742 C 34.71 4.73 34.66 4.72 34.62049 4.70847 C 34.58 4.7 34.53 4.69 34.48773 4.67439 C 34.44 4.66 34.4 4.65 34.34943 4.63983 C 34.3 4.63 34.25 4.62 34.2057 4.60482 C 34.16 4.59 34.11 4.58 34.05665 4.56944 C 34.01 4.56 33.95 4.55 33.9024 4.53371 C 33.85 4.52 33.8 4.51 33.74307 4.4977" />
    <path d="M -3.28289 0.06639 L -3.28289 -0.45651" />
    <path d="M -2.66538 4.6132 L -2.66538 5.12412" />
    <path d="M 36.13807 -2.3285 L 36.13807 -1.80789" />
    <path d="M 8.02899 2.43456 L -30.43278 -3.37521" />
    <path d="M -36.13807 -5.28659 L -36.13807 -4.76597" />
</svg>