<svg version="1.1" xmlns="http://www.w3.org/2000/svg" viewBox="-37.137974083095315 -4.91328203382464 74.2759481661906 9.488666215561906" fill="none" stroke="black" stroke-width="0.6%" vector-effect="non-scaling-stroke">
    <path d="M 33.43466 1.13112 A 75 62.58642 94.34194 0 1 13.55254 3.42542 A 75 62.58642 94.34194 0 1 5.02672 2.06387 L 5.00376 2.05831 L 4.9808 2.05274 L 4.95784 2.04716 L 4.93489 2.04157 L 4.91193 2.03597 L 4.88898 2.03036 L 4.86603 2.02474 L 4.84308 2.01911 L 4.82014 2.01347 L 4.79719 2.00782 L 4.77425 2.00216 L 4.75131 1.99649 L 4.72837 1.99081 L 4.70544 1.98512 L 4.70544 1.47168" />
    <path d="M -3.28313 0.31858 C -3.24 0.32 -3.19 0.33 -3.13402 0.33123 C -3.08 0.34 -3.03 0.34 -2.97547 0.34725 C -2.92 0.35 -2.87 0.36 -2.80765 0.36662 C -2.75 0.37 -2.69 0.38 -2.63068 0.38933 C -2.57 0.4 -2.51 0.41 -2.44471 0.41535 C -2.38 0.42 -2.32 0.43 -2.24987 0.44465 C -2.18 0.45 -2.12 0.47 -2.04628 0.47721 C -1.98 0.49 -1.91 0.5 -1.83407 0.513 C -1.76 0.53 -1.69 0.54 -1.61338 0.55198 C -1.54 0.57 -1.46 0.58 -1.38432 0.59411 C -1.31 0.61 -1.23 0.62 -1.14705 0.63933 C -1.07 0.65 -0.98 0.67 -0.90171 0.6876 C -0.82 0.7 -0.73 0.72 -0.64846 0.73886 C -0.56 0.76 -0.48 0.77 -0.38746 0.79303 C -0.34 0.8 -0.3 0.81 -0.25411 0.82118 C -0.21 0.83 -0.16 0.84 -0.1189 0.85004 C -0.07 0.86 -0.03 0.87 0.01815 0.87958 C 0.06 0.89 0.11 0.9 0.15702 0.9098 C 0.22 0.92 0.28 0.94 0.34802 0.9518 C 0.41 0.97 0.48 0.98 0.54221 0.99499 C 0.61 1.01 0.67 1.02 0.73947 1.03932 C 0.81 1.05 0.87 1.07 0.93966 1.08475 C 1.01 1.1 1.07 1.12 1.14267 1.13122 C 1.21 1.15 1.28 1.16 1.34833 1.17868 C 1.42 1.19 1.49 1.21 1.5565 1.22708 C 1.63 1.24 1.7 1.26 1.76702 1.27636 C 1.89 1.3 2.01 1.33 2.12981 1.36199 C 2.25 1.39 2.37 1.42 2.49829 1.44973 C 2.75 1.51 2.99 1.57 3.24363 1.62904 C 3.74 1.75 4.24 1.87 4.70544 1.98512" />
    <path d="M -3.28313 0.31858 L -35.15114 -2.10105 L -35.15114 -2.62589" />
    <path d="M -34.03698 -1.01264 C -34.07 -1.02 -34.11 -1.03 -34.14847 -1.04365 C -34.19 -1.05 -34.22 -1.06 -34.25687 -1.07451 C -34.29 -1.08 -34.33 -1.1 -34.36216 -1.10521 C -34.4 -1.12 -34.43 -1.13 -34.46433 -1.13573 C -34.5 -1.15 -34.53 -1.16 -34.56338 -1.16604 C -34.6 -1.18 -34.63 -1.19 -34.65931 -1.19613 C -34.69 -1.21 -34.72 -1.22 -34.75209 -1.22598 C -34.78 -1.24 -34.81 -1.25 -34.84174 -1.25557 C -34.87 -1.27 -34.9 -1.28 -34.92826 -1.28487 C -34.96 -1.29 -34.98 -1.3 -35.01163 -1.31388 C -35.04 -1.32 -35.07 -1.33 -35.09187 -1.34256 C -35.12 -1.35 -35.14 -1.36 -35.16898 -1.37091 C -35.19 -1.38 -35.22 -1.39 -35.24297 -1.39891 C -35.27 -1.41 -35.29 -1.42 -35.31385 -1.42653 C -35.34 -1.44 -35.36 -1.44 -35.38163 -1.45376 C -35.4 -1.46 -35.43 -1.47 -35.44631 -1.48058 C -35.47 -1.49 -35.49 -1.5 -35.50792 -1.50698 C -35.53 -1.52 -35.55 -1.52 -35.56648 -1.53294 C -35.59 -1.54 -35.6 -1.55 -35.62199 -1.55845 C -35.64 -1.57 -35.66 -1.58 -35.67448 -1.58348 C -35.69 -1.59 -35.71 -1.6 -35.72397 -1.60803 C -35.74 -1.62 -35.76 -1.62 -35.77049 -1.63208 C -35.79 -1.64 -35.8 -1.65 -35.81405 -1.65562 C -35.83 -1.66 -35.84 -1.67 -35.8547 -1.67863 C -35.87 -1.69 -35.88 -1.69 -35.89245 -1.7011 C -35.9 -1.71 -35.92 -1.72 -35.92734 -1.72303 C -35.94 -1.73 -35.95 -1.74 -35.9594 -1.74439 C -35.97 -1.75 -35.98 -1.76 -35.98866 -1.76518 C -36.03 -1.79 -36.06 -1.82 -36.07854 -1.84248 C -36.12 -1.88 -36.14 -1.92 -36.13797 -1.95558 C -36.14 -1.96 -36.14 -1.97 -36.13369 -1.98148 C -36.13 -1.99 -36.13 -2 -36.12097 -2.00516 C -36.12 -2.01 -36.11 -2.02 -36.10001 -2.02663 C -36.09 -2.03 -36.08 -2.04 -36.071 -2.04586 C -36.06 -2.05 -36.05 -2.06 -36.03411 -2.06286 C -36.02 -2.07 -36.01 -2.07 -35.98952 -2.0776 C -35.97 -2.08 -35.96 -2.09 -35.93738 -2.0901 C -35.92 -2.09 -35.9 -2.1 -35.87785 -2.10034 C -35.86 -2.1 -35.83 -2.11 -35.81107 -2.10832 C -35.79 -2.11 -35.76 -2.11 -35.73718 -2.11405 C -35.71 -2.12 -35.68 -2.12 -35.6563 -2.11751 C -35.63 -2.12 -35.6 -2.12 -35.56857 -2.11872 C -35.54 -2.12 -35.51 -2.12 -35.47408 -2.11768 C -35.44 -2.12 -35.41 -2.12 -35.37295 -2.11438 C -35.34 -2.11 -35.3 -2.11 -35.26527 -2.10884 C -35.23 -2.11 -35.19 -2.1 -35.15114 -2.10105" />
    <path d="M -34.03698 -1.01264 L -33.99401 -1.00122 L -33.95103 -0.98984 L -33.90804 -0.9785 L -33.86504 -0.9672 L -33.82204 -0.95594 L -33.77903 -0.94472 L -33.73601 -0.93353 L -33.69298 -0.92239 L -33.64995 -0.91129 L -33.60691 -0.90023 L -33.56386 -0.8892 L -33.5208 -0.87822 L -33.47773 -0.86728 L -33.43466 -0.85637 A 75 62.58642 274.34194 0 0 -24.90885 0.50518" />
    <path d="M 34.03698 0.92964 C 34.08 0.91 34.13 0.9 34.17358 0.87952 C 34.22 0.86 34.26 0.85 34.30571 0.82924 C 34.35 0.81 34.39 0.8 34.43329 0.77884 C 34.48 0.76 34.52 0.75 34.55628 0.7284 C 34.6 0.71 34.64 0.69 34.67462 0.67799 C 34.71 0.66 34.75 0.64 34.78827 0.62766 C 34.83 0.61 34.86 0.59 34.89718 0.57749 C 34.93 0.56 34.97 0.54 35.00133 0.52753 C 35.04 0.51 35.07 0.49 35.10069 0.47786 C 35.13 0.46 35.16 0.44 35.19525 0.42853 C 35.23 0.41 35.26 0.4 35.28501 0.37961 C 35.31 0.36 35.34 0.35 35.36996 0.33116 C 35.4 0.32 35.42 0.3 35.45011 0.28325 C 35.48 0.27 35.5 0.25 35.52549 0.23593 C 35.55 0.22 35.57 0.2 35.59612 0.18925 C 35.62 0.17 35.64 0.16 35.66203 0.14329 C 35.69 0.12 35.71 0.11 35.73754 0.08715 C 35.76 0.07 35.78 0.05 35.8061 0.03215 C 35.83 0.01 35.85 0 35.86783 -0.02168 C 35.89 -0.04 35.91 -0.06 35.92286 -0.07427 C 35.94 -0.09 35.96 -0.11 35.97133 -0.12559 C 35.99 -0.14 36 -0.16 36.01334 -0.17559 C 36.03 -0.19 36.04 -0.21 36.04904 -0.22424 C 36.06 -0.24 36.07 -0.26 36.07854 -0.27149 C 36.09 -0.29 36.1 -0.31 36.1048 -0.32366 C 36.11 -0.34 36.12 -0.36 36.12334 -0.37394 C 36.13 -0.39 36.13 -0.41 36.13434 -0.4223 C 36.14 -0.44 36.14 -0.45 36.13797 -0.46871" />
    <path d="M 34.03698 0.92964 L 33.99401 0.94429 L 33.95103 0.95889 L 33.90804 0.97346 L 33.86504 0.98799 L 33.82204 1.00248 L 33.77903 1.01693 L 33.73601 1.03134 L 33.69298 1.04571 L 33.64995 1.06004 L 33.60691 1.07434 L 33.56386 1.08859 L 33.5208 1.10281 L 33.47773 1.11698 L 33.43466 1.13112 L 33.43466 0.6183 A 74.5 62.16917 94.34194 0 1 13.59039 2.92686 A 74.5 62.16917 94.34194 0 1 5.02672 1.55106 L 5.00376 1.54545 L 4.9808 1.53984 L 4.95784 1.53421 L 4.93489 1.52858 L 4.91193 1.52293 L 4.88898 1.51728 L 4.86603 1.51161 L 4.84308 1.50594 L 4.82014 1.50025 L 4.79719 1.49456 L 4.77425 1.48885 L 4.75131 1.48314 L 4.72837 1.47741 L 4.70544 1.47168" />
    <path d="M 5.02672 2.06387 L 5.02672 1.55106" />
    <path d="M 34.03698 0.92964 L 34.03698 0.41556 C 34.08 0.4 34.13 0.38 34.17357 0.36513 C 34.22 0.35 34.26 0.33 34.30569 0.31453 C 34.35 0.3 34.39 0.28 34.43327 0.26382 C 34.48 0.25 34.52 0.23 34.55626 0.21307 C 34.6 0.2 34.64 0.18 34.67459 0.16235 C 34.71 0.15 34.75 0.13 34.78824 0.11171 C 34.83 0.09 34.86 0.08 34.89714 0.06123 C 34.93 0.04 34.97 0.03 35.00129 0.01096 C 35.04 -0.01 35.07 -0.02 35.10065 -0.03902 C 35.13 -0.06 35.16 -0.07 35.19522 -0.08865 C 35.23 -0.11 35.26 -0.12 35.28498 -0.13787 C 35.31 -0.15 35.34 -0.17 35.36993 -0.18661 C 35.4 -0.2 35.42 -0.22 35.45009 -0.23482 C 35.48 -0.25 35.5 -0.27 35.52548 -0.28244 C 35.55 -0.3 35.57 -0.31 35.59611 -0.3294 C 35.62 -0.34 35.64 -0.36 35.66203 -0.37565 C 35.69 -0.39 35.71 -0.41 35.73753 -0.43212 C 35.76 -0.45 35.78 -0.47 35.80609 -0.48745 C 35.83 -0.51 35.85 -0.52 35.86782 -0.5416 C 35.89 -0.56 35.91 -0.58 35.92285 -0.5945 C 35.94 -0.61 35.96 -0.63 35.97132 -0.64613 C 35.99 -0.66 36 -0.68 36.01334 -0.69643 C 36.03 -0.71 36.04 -0.73 36.04904 -0.74536 C 36.06 -0.76 36.07 -0.78 36.07854 -0.7929 C 36.09 -0.81 36.1 -0.83 36.1048 -0.84537 C 36.11 -0.86 36.12 -0.88 36.12334 -0.89595 C 36.13 -0.91 36.13 -0.93 36.13434 -0.94459 C 36.14 -0.96 36.14 -0.98 36.13797 -0.99126 L 36.13797 -0.46871" />
    <path d="M 34.03698 0.41556 L 33.99401 0.43029 L 33.95103 0.44499 L 33.90804 0.45965 L 33.86505 0.47427 L 33.82204 0.48885 L 33.77903 0.5034 L 33.73601 0.5179 L 33.69298 0.53236 L 33.64995 0.54678 L 33.60691 0.56117 L 33.56386 0.57551 L 33.5208 0.58981 L 33.47774 0.60408 L 33.43466 0.6183" />
    <path d="M 36.13797 -0.99126 C 36.14 -1.01 36.14 -1.02 36.13369 -1.04006 C 36.13 -1.06 36.13 -1.07 36.12097 -1.08643 C 36.12 -1.1 36.11 -1.12 36.10002 -1.13035 C 36.09 -1.14 36.08 -1.16 36.07101 -1.17178 C 36.06 -1.19 36.05 -1.2 36.03413 -1.21071 C 36.02 -1.22 36.01 -1.24 35.98954 -1.2471 C 35.97 -1.26 35.96 -1.27 35.93741 -1.28094 C 35.92 -1.29 35.9 -1.3 35.87788 -1.31221 C 35.86 -1.32 35.83 -1.33 35.8111 -1.3409 C 35.79 -1.35 35.76 -1.36 35.73721 -1.36698 C 35.71 -1.38 35.68 -1.38 35.65634 -1.39045 C 35.63 -1.4 35.6 -1.4 35.56859 -1.41129 C 35.54 -1.42 35.51 -1.42 35.4741 -1.4295 C 35.44 -1.44 35.41 -1.44 35.37296 -1.44506 C 35.34 -1.45 35.3 -1.45 35.26528 -1.45797 C 35.23 -1.46 35.19 -1.47 35.15114 -1.46821 L 3.28313 -3.88784 C 3.24 -3.89 3.19 -3.89 3.134 -3.89678 C 3.08 -3.9 3.03 -3.9 2.97543 -3.90166 C 2.92 -3.9 2.87 -3.9 2.80759 -3.90247 C 2.75 -3.9 2.69 -3.9 2.6306 -3.89921 C 2.57 -3.9 2.51 -3.89 2.44461 -3.89187 C 2.38 -3.89 2.32 -3.88 2.24975 -3.88044 C 2.18 -3.88 2.12 -3.87 2.04614 -3.86493 C 1.98 -3.86 1.91 -3.85 1.83392 -3.84532 C 1.76 -3.84 1.69 -3.83 1.61321 -3.82163 C 1.54 -3.81 1.46 -3.8 1.38416 -3.79385 C 1.31 -3.78 1.23 -3.77 1.14689 -3.762 C 1.07 -3.75 0.98 -3.74 0.90156 -3.72609 C 0.82 -3.71 0.73 -3.7 0.64833 -3.68612 C 0.56 -3.67 0.48 -3.66 0.38736 -3.64213 C 0.34 -3.63 0.3 -3.63 0.25403 -3.61864 C 0.21 -3.61 0.16 -3.6 0.11884 -3.59414 C 0.07 -3.59 0.03 -3.58 -0.01818 -3.56866 C -0.06 -3.56 -0.11 -3.55 -0.15702 -3.54219 C -0.22 -3.53 -0.28 -3.52 -0.34804 -3.50473 C -0.41 -3.49 -0.48 -3.48 -0.54224 -3.46549 C -0.61 -3.45 -0.67 -3.44 -0.73951 -3.42449 C -0.81 -3.41 -0.87 -3.4 -0.93971 -3.38174 C -1.01 -3.37 -1.07 -3.35 -1.14271 -3.33729 C -1.21 -3.32 -1.28 -3.31 -1.34836 -3.29115 C -1.42 -3.28 -1.49 -3.26 -1.55652 -3.24336 C -1.63 -3.23 -1.7 -3.21 -1.76702 -3.19397 C -1.89 -3.17 -2.01 -3.14 -2.12985 -3.10639 C -2.25 -3.08 -2.37 -3.05 -2.49834 -3.01441 C -2.75 -2.95 -2.99 -2.89 -3.24369 -2.8193 C -3.74 -2.69 -4.24 -2.54 -4.70544 -2.401" />
    <path d="M -5.02672 -2.30194 L -5.00376 -2.30895 L -4.9808 -2.31597 L -4.95784 -2.323 L -4.93489 -2.33004 L -4.91193 -2.3371 L -4.88898 -2.34416 L -4.86603 -2.35123 L -4.84308 -2.35831 L -4.82014 -2.3654 L -4.79719 -2.3725 L -4.77425 -2.37961 L -4.75131 -2.38673 L -4.72837 -2.39386 L -4.70544 -2.401" />
    <path d="M -11.01454 -0.79328 A 74.5 62.16917 274.34194 0 0 -5.02672 -2.30194" />
    <path d="M -36.13797 -2.47813 C -36.14 -2.49 -36.14 -2.5 -36.13369 -2.5043 C -36.13 -2.51 -36.13 -2.52 -36.12097 -2.52824 C -36.12 -2.54 -36.11 -2.54 -36.10002 -2.54994 C -36.09 -2.56 -36.08 -2.56 -36.07101 -2.5694 C -36.06 -2.58 -36.05 -2.58 -36.03413 -2.5866 C -36.02 -2.59 -36.01 -2.6 -35.98954 -2.60153 C -35.97 -2.61 -35.96 -2.61 -35.93741 -2.6142 C -35.92 -2.62 -35.9 -2.62 -35.87788 -2.62459 C -35.86 -2.63 -35.83 -2.63 -35.8111 -2.63271 C -35.79 -2.64 -35.76 -2.64 -35.73721 -2.63856 C -35.71 -2.64 -35.68 -2.64 -35.65633 -2.64212 C -35.63 -2.64 -35.6 -2.64 -35.56859 -2.64342 C -35.54 -2.64 -35.51 -2.64 -35.4741 -2.64243 C -35.44 -2.64 -35.41 -2.64 -35.37296 -2.63918 C -35.34 -2.64 -35.3 -2.64 -35.26528 -2.63367 C -35.23 -2.63 -35.19 -2.63 -35.15114 -2.62589" />
    <path d="M -3.28313 -0.20626 L -35.15114 -2.62589" />
    <path d="M -3.28313 -0.20626 C -3.24 -0.2 -3.19 -0.2 -3.134 -0.19359 C -3.08 -0.19 -3.03 -0.18 -2.97543 -0.17753 C -2.92 -0.17 -2.87 -0.17 -2.80759 -0.15808 C -2.75 -0.15 -2.69 -0.14 -2.6306 -0.13528 C -2.57 -0.13 -2.51 -0.12 -2.44461 -0.10914 C -2.38 -0.1 -2.32 -0.09 -2.24975 -0.07968 C -2.18 -0.07 -2.12 -0.06 -2.04614 -0.04693 C -1.98 -0.04 -1.91 -0.02 -1.83392 -0.01094 C -1.76 0 -1.69 0.01 -1.61321 0.02828 C -1.54 0.04 -1.46 0.06 -1.38416 0.07066 C -1.31 0.09 -1.23 0.1 -1.14689 0.11617 C -1.07 0.13 -0.98 0.15 -0.90156 0.16475 C -0.82 0.18 -0.73 0.2 -0.64833 0.21633 C -0.56 0.23 -0.48 0.25 -0.38736 0.27086 C -0.34 0.28 -0.3 0.29 -0.25403 0.2992 C -0.21 0.31 -0.16 0.32 -0.11884 0.32824 C -0.07 0.34 -0.03 0.35 0.01818 0.35798 C 0.06 0.37 0.11 0.38 0.15702 0.3884 C 0.22 0.4 0.28 0.42 0.34804 0.4307 C 0.41 0.44 0.48 0.46 0.54224 0.47419 C 0.61 0.49 0.67 0.5 0.73951 0.51883 C 0.81 0.53 0.87 0.55 0.93971 0.56458 C 1.01 0.58 1.07 0.6 1.14271 0.61138 C 1.21 0.63 1.28 0.64 1.34836 0.65918 C 1.42 0.68 1.49 0.69 1.55652 0.70793 C 1.63 0.72 1.7 0.74 1.76702 0.75756 C 1.89 0.79 2.01 0.81 2.12985 0.84381 C 2.25 0.87 2.37 0.9 2.49834 0.9322 C 2.75 0.99 2.99 1.05 3.24369 1.11286 C 3.74 1.23 4.24 1.36 4.70544 1.47168" />
    <path d="M -3.28313 0.31858 L -3.28313 -0.20626" />
    <path d="M 13.55254 3.42542 L -24.90885 0.50518" />
    <path d="M -36.13797 -2.47813 L -36.13797 -1.95558" />
</svg>