<svg version="1.1" xmlns="http://www.w3.org/2000/svg" viewBox="-42.3254870454103 -5.8265355131434 84.65097409082045 11.654519032980769" fill="none" stroke="black" stroke-width="0.6%" vector-effect="non-scaling-stroke">
    <path d="M -4.87646 2.35038 A 0.5 0.32489 267.14485 0 1 -4.57593 1.87308 A 0.5 0.32489 267.14485 0 1 -4.52612 2.87184 A 0.5 0.32489 267.14485 0 1 -4.87646 2.35038 Z" />
    <path d="M 41.02495 0.60007 A 0.5 0.32489 87.14485 0 0 40.97514 -0.39869" />
    <path d="M 22.78064 1.54572 A 125 94.73737 93.8817 0 1 14.31856 1.47064 A 125 94.73737 93.8817 0 1 9.8745 1.02996 L 9.86302 1.02847 L 9.85154 1.02698 L 9.84007 1.02548 L 9.82859 1.02399 L 9.81711 1.02249 L 9.80563 1.02099 L 9.79415 1.01949 L 9.78268 1.01799 L 9.7712 1.01648 L 9.75972 1.01498 L 9.74825 1.01347 L 9.73677 1.01196 L 9.72529 1.01045 L 9.71382 1.00894 L 9.71382 0.50496" />
    <path d="M 10.14476 1.18693 A 125 94.73737 273.8817 0 0 10.41331 1.20566" />
    <path d="M 10.14476 1.18693 L 10.14127 1.18668 L 10.13777 1.18643 L 10.13427 1.18618 L 10.13078 1.18593 L 10.12728 1.18568 L 10.12378 1.18543 L 10.12029 1.18518 L 10.11679 1.18493 L 10.11329 1.18468 L 10.1098 1.18443 L 10.1063 1.18417 L 10.1028 1.18392 L 10.09931 1.18367 L 10.09581 1.18342" />
    <path d="M 8.75299 1.09208 C 8.74 1.09 8.73 1.09 8.72119 1.08972 C 8.71 1.09 8.7 1.09 8.69143 1.08749 C 8.68 1.09 8.67 1.09 8.66374 1.08539 C 8.65 1.08 8.65 1.08 8.63815 1.08342 C 8.63 1.08 8.62 1.08 8.61465 1.08157 C 8.61 1.08 8.6 1.08 8.59327 1.07987 C 8.59 1.08 8.58 1.08 8.57401 1.07829 C 8.57 1.08 8.56 1.08 8.55686 1.07686 C 8.55 1.08 8.55 1.08 8.54183 1.07556 C 8.54 1.08 8.53 1.07 8.52889 1.07441 C 8.52 1.07 8.52 1.07 8.51803 1.07339 C 8.51 1.07 8.51 1.07 8.50922 1.07252 C 8.51 1.07 8.5 1.07 8.50245 1.07179 C 8.5 1.07 8.5 1.07 8.49766 1.07119 C 8.5 1.07 8.5 1.07 8.49482 1.07073 C 8.49 1.07 8.49 1.07 8.49389 1.07041 C 8.49 1.07 8.49 1.07 8.49492 1.07022 C 8.5 1.07 8.5 1.07 8.49798 1.07018 C 8.5 1.07 8.5 1.07 8.50835 1.07046 C 8.51 1.07 8.52 1.07 8.52473 1.0712 C 8.53 1.07 8.54 1.07 8.54686 1.07237 C 8.56 1.07 8.56 1.07 8.57445 1.07397 C 8.58 1.07 8.6 1.08 8.60726 1.07598 C 8.62 1.08 8.63 1.08 8.64505 1.07839 C 8.66 1.08 8.67 1.08 8.6876 1.08119 C 8.7 1.08 8.72 1.08 8.7347 1.08435 C 8.75 1.09 8.77 1.09 8.78878 1.08805 C 8.81 1.09 8.83 1.09 8.84744 1.09214 C 8.87 1.09 8.89 1.1 8.91047 1.09659 C 8.93 1.1 8.95 1.1 8.97765 1.10138 C 9 1.1 9.02 1.1 9.04875 1.1065 C 9.06 1.11 9.07 1.11 9.0857 1.10918 C 9.1 1.11 9.11 1.11 9.12354 1.11193 C 9.14 1.11 9.15 1.11 9.16224 1.11476 C 9.18 1.12 9.19 1.12 9.20175 1.11765 C 9.22 1.12 9.23 1.12 9.24205 1.12061 C 9.26 1.12 9.27 1.12 9.2831 1.12363 C 9.3 1.12 9.32 1.13 9.33186 1.12722 C 9.35 1.13 9.36 1.13 9.38168 1.1309 C 9.4 1.13 9.42 1.13 9.43241 1.13465 C 9.45 1.14 9.47 1.14 9.4839 1.13846 C 9.5 1.14 9.52 1.14 9.53596 1.14231 C 9.55 1.14 9.57 1.14 9.58844 1.14619 C 9.61 1.15 9.62 1.15 9.64114 1.1501 C 9.66 1.15 9.68 1.15 9.69391 1.154 C 9.83 1.16 9.97 1.17 10.09581 1.18342" />
    <path d="M 8.75299 1.09208 L 8.75942 1.09255 L 8.76585 1.09302 L 8.77228 1.09349 L 8.77871 1.09396 L 8.78514 1.09442 L 8.79157 1.09489 L 8.798 1.09536 L 8.80443 1.09582 L 8.81086 1.09629 L 8.81729 1.09675 L 8.82372 1.09722 L 8.83015 1.09768 L 8.83658 1.09815 L 8.84301 1.09861 L 8.84301 1.09183" />
    <path d="M 9.72678 1.15643 A 125 94.73737 93.8817 0 1 9.11156 1.11733 A 125 94.73737 93.8817 0 1 8.84301 1.09861" />
    <path d="M -26.30426 -1.28622 A 125 94.73737 273.8817 0 0 -26.03571 -1.26749" />
    <path d="M -26.30426 -1.28622 L -26.30776 -1.28647 L -26.31125 -1.28672 L -26.31475 -1.28697 L -26.31825 -1.28722 L -26.32174 -1.28747 L -26.32524 -1.28772 L -26.32874 -1.28797 L -26.33223 -1.28822 L -26.33573 -1.28847 L -26.33923 -1.28872 L -26.34272 -1.28898 L -26.34622 -1.28923 L -26.34972 -1.28948 L -26.35321 -1.28973" />
    <path d="M -27.69603 -1.38107 C -27.71 -1.38 -27.72 -1.38 -27.72783 -1.38343 C -27.74 -1.38 -27.75 -1.38 -27.75759 -1.38566 C -27.77 -1.39 -27.78 -1.39 -27.78528 -1.38776 C -27.79 -1.39 -27.8 -1.39 -27.81088 -1.38973 C -27.82 -1.39 -27.83 -1.39 -27.83437 -1.39158 C -27.84 -1.39 -27.85 -1.39 -27.85575 -1.39328 C -27.86 -1.39 -27.87 -1.39 -27.87501 -1.39486 C -27.88 -1.4 -27.89 -1.4 -27.89216 -1.39629 C -27.9 -1.4 -27.9 -1.4 -27.9072 -1.39759 C -27.91 -1.4 -27.92 -1.4 -27.92013 -1.39874 C -27.92 -1.4 -27.93 -1.4 -27.93099 -1.39976 C -27.93 -1.4 -27.94 -1.4 -27.9398 -1.40063 C -27.94 -1.4 -27.94 -1.4 -27.94658 -1.40136 C -27.95 -1.4 -27.95 -1.4 -27.95136 -1.40196 C -27.95 -1.4 -27.95 -1.4 -27.9542 -1.40242 C -27.95 -1.4 -27.96 -1.4 -27.95513 -1.40273 C -27.96 -1.4 -27.95 -1.4 -27.9541 -1.40293 C -27.95 -1.4 -27.95 -1.4 -27.95104 -1.40297 C -27.95 -1.4 -27.95 -1.4 -27.94068 -1.40269 C -27.94 -1.4 -27.93 -1.4 -27.92429 -1.40195 C -27.92 -1.4 -27.91 -1.4 -27.90217 -1.40078 C -27.89 -1.4 -27.88 -1.4 -27.87457 -1.39918 C -27.86 -1.4 -27.85 -1.4 -27.84176 -1.39717 C -27.83 -1.4 -27.82 -1.4 -27.80397 -1.39476 C -27.79 -1.39 -27.78 -1.39 -27.76142 -1.39196 C -27.75 -1.39 -27.73 -1.39 -27.71432 -1.3888 C -27.7 -1.39 -27.68 -1.39 -27.66025 -1.3851 C -27.64 -1.38 -27.62 -1.38 -27.60159 -1.38101 C -27.58 -1.38 -27.56 -1.38 -27.53855 -1.37656 C -27.52 -1.38 -27.49 -1.37 -27.47137 -1.37177 C -27.45 -1.37 -27.42 -1.37 -27.40027 -1.36665 C -27.39 -1.37 -27.38 -1.36 -27.36332 -1.36397 C -27.35 -1.36 -27.34 -1.36 -27.32548 -1.36122 C -27.31 -1.36 -27.3 -1.36 -27.28679 -1.35839 C -27.27 -1.36 -27.26 -1.36 -27.24727 -1.3555 C -27.23 -1.35 -27.22 -1.35 -27.20697 -1.35254 C -27.19 -1.35 -27.18 -1.35 -27.16592 -1.34952 C -27.15 -1.35 -27.13 -1.35 -27.11716 -1.34593 C -27.1 -1.34 -27.08 -1.34 -27.06734 -1.34225 C -27.05 -1.34 -27.03 -1.34 -27.01661 -1.3385 C -27 -1.34 -26.98 -1.34 -26.96513 -1.33469 C -26.95 -1.33 -26.93 -1.33 -26.91306 -1.33084 C -26.9 -1.33 -26.88 -1.33 -26.86059 -1.32695 C -26.84 -1.33 -26.83 -1.32 -26.80788 -1.32305 C -26.79 -1.32 -26.77 -1.32 -26.75511 -1.31915 C -26.61 -1.31 -26.48 -1.3 -26.35321 -1.28973" />
    <path d="M -27.69603 -1.38107 L -27.6896 -1.3806 L -27.68317 -1.38013 L -27.67674 -1.37966 L -27.67031 -1.37919 L -27.66388 -1.37873 L -27.65745 -1.37826 L -27.65102 -1.37779 L -27.64459 -1.37733 L -27.63816 -1.37686 L -27.63173 -1.3764 L -27.6253 -1.37593 L -27.61887 -1.37547 L -27.61244 -1.375 L -27.60601 -1.37454 L -27.60601 -1.38132" />
    <path d="M -26.72224 -1.31672 A 125 94.73737 93.8817 0 1 -27.33747 -1.35582 A 125 94.73737 93.8817 0 1 -27.60601 -1.37454" />
    <path d="M -35.68678 -2.06148 A 125 94.73737 273.8817 0 0 -31.24272 -1.6208" />
    <path d="M -35.9938 -2.1029 L -35.97188 -2.09989 L -35.94995 -2.09689 L -35.92802 -2.0939 L -35.90609 -2.09092 L -35.88417 -2.08794 L -35.86224 -2.08497 L -35.84031 -2.08201 L -35.81838 -2.07906 L -35.79644 -2.07611 L -35.77451 -2.07317 L -35.75258 -2.07024 L -35.73065 -2.06731 L -35.70871 -2.06439 L -35.68678 -2.06148" />
    <path d="M -35.9938 -2.1029 C -36.03 -2.11 -36.07 -2.11 -36.10207 -2.11818 C -36.14 -2.12 -36.17 -2.13 -36.2069 -2.13336 C -36.24 -2.14 -36.28 -2.14 -36.30827 -2.14842 C -36.34 -2.15 -36.37 -2.16 -36.40617 -2.16335 C -36.44 -2.17 -36.47 -2.17 -36.50059 -2.17815 C -36.53 -2.18 -36.56 -2.19 -36.59152 -2.19279 C -36.62 -2.2 -36.65 -2.2 -36.67896 -2.20728 C -36.71 -2.21 -36.74 -2.22 -36.76291 -2.2216 C -36.79 -2.23 -36.82 -2.23 -36.84338 -2.23574 C -36.87 -2.24 -36.9 -2.25 -36.92036 -2.24969 C -36.95 -2.25 -36.97 -2.26 -36.99386 -2.26344 C -37.02 -2.27 -37.04 -2.27 -37.06389 -2.27698 C -37.09 -2.28 -37.11 -2.29 -37.13047 -2.2903 C -37.15 -2.29 -37.17 -2.3 -37.1936 -2.30339 C -37.21 -2.31 -37.23 -2.31 -37.25332 -2.31624 C -37.27 -2.32 -37.29 -2.32 -37.30963 -2.32884 C -37.33 -2.33 -37.35 -2.34 -37.36257 -2.34119 C -37.38 -2.35 -37.4 -2.35 -37.41215 -2.35328 C -37.43 -2.36 -37.44 -2.36 -37.45841 -2.36509 C -37.47 -2.37 -37.49 -2.37 -37.50137 -2.37662 C -37.52 -2.38 -37.53 -2.38 -37.54108 -2.38786 C -37.55 -2.39 -37.57 -2.4 -37.57757 -2.3988 C -37.59 -2.4 -37.6 -2.41 -37.61087 -2.40944 C -37.62 -2.41 -37.63 -2.42 -37.64104 -2.41978 C -37.65 -2.42 -37.66 -2.43 -37.66811 -2.42979 C -37.68 -2.43 -37.68 -2.44 -37.69214 -2.43949 C -37.7 -2.44 -37.71 -2.45 -37.71318 -2.44886 C -37.72 -2.45 -37.73 -2.45 -37.73127 -2.45791 C -37.75 -2.47 -37.77 -2.48 -37.77543 -2.49071 C -37.78 -2.5 -37.78 -2.5 -37.78152 -2.50642 C -37.78 -2.51 -37.78 -2.51 -37.77987 -2.51407 C -37.78 -2.52 -37.78 -2.52 -37.77494 -2.5213 C -37.77 -2.52 -37.77 -2.53 -37.7668 -2.5281 C -37.76 -2.53 -37.76 -2.53 -37.75552 -2.53447 C -37.75 -2.54 -37.75 -2.54 -37.74116 -2.54042 C -37.74 -2.54 -37.73 -2.54 -37.72377 -2.54594 C -37.72 -2.55 -37.71 -2.55 -37.70342 -2.55104 C -37.7 -2.55 -37.69 -2.55 -37.68016 -2.55571 C -37.67 -2.56 -37.66 -2.56 -37.65403 -2.55995 C -37.64 -2.56 -37.64 -2.56 -37.6251 -2.56377 C -37.61 -2.56 -37.6 -2.57 -37.59341 -2.56717 C -37.58 -2.57 -37.57 -2.57 -37.55901 -2.57014 C -37.55 -2.57 -37.53 -2.57 -37.52195 -2.57269 C -37.51 -2.57 -37.5 -2.57 -37.48227 -2.57482 C -37.47 -2.58 -37.45 -2.58 -37.44001 -2.57653 C -37.43 -2.58 -37.41 -2.58 -37.39522 -2.57781 C -37.38 -2.58 -37.36 -2.58 -37.34793 -2.57868 C -37.33 -2.58 -37.32 -2.58 -37.29818 -2.57913 C -37.28 -2.58 -37.26 -2.58 -37.24602 -2.57917 C -37.23 -2.58 -37.21 -2.58 -37.19146 -2.57878 C -37.17 -2.58 -37.15 -2.58 -37.13456 -2.57799 C -37.12 -2.58 -37.1 -2.58 -37.07533 -2.57678 C -37.06 -2.58 -37.03 -2.58 -37.01382 -2.57515 C -36.99 -2.57 -36.97 -2.57 -36.95004 -2.57312 C -36.93 -2.57 -36.91 -2.57 -36.88403 -2.57067 C -36.86 -2.57 -36.84 -2.57 -36.81581 -2.56782 C -36.79 -2.57 -36.77 -2.57 -36.74541 -2.56456 C -36.72 -2.56 -36.7 -2.56 -36.67285 -2.56089 C -36.62 -2.56 -36.57 -2.56 -36.52134 -2.55234 C -36.47 -2.55 -36.42 -2.55 -36.36144 -2.54217 L -36.36144 -3.05003" />
    <path d="M -35.00989 -2.45046 L -36.36144 -2.54217" />
    <path d="M -35.00989 -2.45046 C -34.95 -2.45 -34.9 -2.44 -34.83909 -2.43819 C -34.78 -2.43 -34.72 -2.43 -34.66032 -2.42433 C -34.6 -2.42 -34.54 -2.41 -34.47372 -2.40889 C -34.41 -2.4 -34.35 -2.4 -34.2794 -2.39188 C -34.21 -2.39 -34.15 -2.38 -34.07749 -2.37332 C -34.01 -2.37 -33.94 -2.36 -33.86809 -2.35322 C -33.8 -2.35 -33.72 -2.34 -33.65132 -2.3316 C -33.58 -2.32 -33.5 -2.32 -33.42728 -2.30846 C -33.35 -2.3 -33.27 -2.29 -33.19608 -2.28385 C -33.12 -2.28 -33.04 -2.27 -32.95785 -2.25776 C -32.88 -2.25 -32.8 -2.24 -32.7127 -2.23024 C -32.63 -2.22 -32.55 -2.21 -32.46078 -2.20131 C -32.38 -2.19 -32.29 -2.18 -32.20222 -2.171 C -32.16 -2.17 -32.11 -2.16 -32.07051 -2.15534 C -32.03 -2.15 -31.98 -2.14 -31.9372 -2.13935 C -31.89 -2.13 -31.85 -2.13 -31.80232 -2.12304 C -31.76 -2.12 -31.71 -2.11 -31.6659 -2.1064 C -31.62 -2.1 -31.57 -2.1 -31.52795 -2.08946 C -31.48 -2.08 -31.44 -2.08 -31.38851 -2.07221 C -31.34 -2.07 -31.3 -2.06 -31.25346 -2.05539 C -31.21 -2.05 -31.16 -2.04 -31.11658 -2.03824 C -31.07 -2.03 -31.02 -2.03 -30.97798 -2.02077 C -30.93 -2.01 -30.88 -2.01 -30.83776 -2.003 C -30.79 -2 -30.74 -1.99 -30.69602 -1.98495 C -30.65 -1.98 -30.6 -1.97 -30.55287 -1.96663 C -30.5 -1.96 -30.46 -1.95 -30.40841 -1.94806 C -30.36 -1.94 -30.31 -1.94 -30.26277 -1.92926 C -30.07 -1.9 -29.87 -1.88 -29.67057 -1.85212 C -29.47 -1.83 -29.27 -1.8 -29.06877 -1.77288 C -28.26 -1.67 -27.45 -1.56 -26.73521 -1.46421 L -26.73521 -1.96819" />
    <path d="M -26.57452 -1.44319 L -26.586 -1.44468 L -26.59748 -1.44617 L -26.60896 -1.44767 L -26.62044 -1.44916 L -26.63191 -1.45066 L -26.64339 -1.45216 L -26.65487 -1.45366 L -26.66635 -1.45516 L -26.67782 -1.45667 L -26.6893 -1.45817 L -26.70078 -1.45968 L -26.71225 -1.46119 L -26.72373 -1.4627 L -26.73521 -1.46421" />
    <path d="M -25.05615 -1.26122 A 125 94.73737 93.8817 0 1 -26.57452 -1.44319 L -26.57452 -1.94705 L -26.586 -1.94854 L -26.59748 -1.95004 L -26.60896 -1.95155 L -26.62044 -1.95305 L -26.63191 -1.95455 L -26.64339 -1.95606 L -26.65487 -1.95757 L -26.66635 -1.95908 L -26.67782 -1.9606 L -26.6893 -1.96211 L -26.70078 -1.96363 L -26.71225 -1.96514 L -26.72373 -1.96666 L -26.73521 -1.96819" />
    <path d="M 2.28061 0.59364 L -25.05615 -1.26122 L -25.05615 -1.76402 A 124.5 94.35842 93.8817 0 1 -26.57452 -1.94705" />
    <path d="M 2.28061 0.59364 A 125 94.73737 93.8817 0 1 0.76225 0.41167" />
    <path d="M 0.45522 0.37025 L 0.47715 0.37326 L 0.49907 0.37626 L 0.521 0.37925 L 0.54293 0.38223 L 0.56486 0.38521 L 0.58679 0.38818 L 0.60872 0.39114 L 0.63065 0.39409 L 0.65258 0.39704 L 0.67451 0.39998 L 0.69644 0.40291 L 0.71838 0.40584 L 0.74031 0.40876 L 0.76225 0.41167" />
    <path d="M 0.45522 0.37025 C 0.42 0.37 0.38 0.36 0.34695 0.35497 C 0.31 0.35 0.28 0.34 0.24212 0.33979 C 0.21 0.33 0.17 0.33 0.14075 0.32473 C 0.11 0.32 0.07 0.31 0.04285 0.3098 C 0.01 0.3 -0.02 0.3 -0.05156 0.295 C -0.08 0.29 -0.11 0.29 -0.1425 0.28036 C -0.17 0.28 -0.2 0.27 -0.22994 0.26587 C -0.26 0.26 -0.29 0.26 -0.31389 0.25155 C -0.34 0.25 -0.37 0.24 -0.39436 0.23741 C -0.42 0.23 -0.45 0.23 -0.47133 0.22346 C -0.5 0.22 -0.52 0.21 -0.54483 0.20971 C -0.57 0.21 -0.59 0.2 -0.61487 0.19617 C -0.64 0.19 -0.66 0.19 -0.68144 0.18285 C -0.7 0.18 -0.72 0.17 -0.74458 0.16976 C -0.77 0.17 -0.78 0.16 -0.8043 0.15691 C -0.82 0.15 -0.84 0.15 -0.86061 0.14431 C -0.88 0.14 -0.9 0.14 -0.91354 0.13196 C -0.93 0.13 -0.95 0.12 -0.96313 0.11987 C -0.98 0.12 -0.99 0.11 -1.00938 0.10806 C -1.02 0.1 -1.04 0.1 -1.05235 0.09653 C -1.07 0.09 -1.08 0.09 -1.09206 0.08529 C -1.1 0.08 -1.12 0.08 -1.12854 0.07435 C -1.14 0.07 -1.15 0.07 -1.16185 0.06371 C -1.17 0.06 -1.18 0.06 -1.19202 0.05337 C -1.2 0.05 -1.21 0.05 -1.21909 0.04336 C -1.23 0.04 -1.24 0.04 -1.24312 0.03366 C -1.25 0.03 -1.26 0.03 -1.26415 0.02429 C -1.27 0.02 -1.28 0.02 -1.28225 0.01524 C -1.3 0 -1.32 -0.01 -1.32641 -0.01756 C -1.33 -0.02 -1.33 -0.03 -1.3325 -0.03327 C -1.33 -0.04 -1.33 -0.04 -1.33084 -0.04092 C -1.33 -0.04 -1.33 -0.05 -1.32592 -0.04815 C -1.32 -0.05 -1.32 -0.05 -1.31778 -0.05495 C -1.31 -0.06 -1.31 -0.06 -1.3065 -0.06132 C -1.3 -0.06 -1.3 -0.07 -1.29214 -0.06727 C -1.29 -0.07 -1.28 -0.07 -1.27475 -0.07279 C -1.27 -0.07 -1.26 -0.08 -1.2544 -0.07789 C -1.25 -0.08 -1.24 -0.08 -1.23113 -0.08256 C -1.22 -0.08 -1.21 -0.09 -1.20501 -0.0868 C -1.2 -0.09 -1.19 -0.09 -1.17608 -0.09062 C -1.17 -0.09 -1.16 -0.09 -1.14439 -0.09402 C -1.13 -0.1 -1.12 -0.1 -1.10999 -0.09699 C -1.1 -0.1 -1.09 -0.1 -1.07293 -0.09954 C -1.06 -0.1 -1.05 -0.1 -1.03324 -0.10167 C -1.02 -0.1 -1.01 -0.1 -0.99099 -0.10338 C -0.98 -0.1 -0.96 -0.1 -0.94619 -0.10466 C -0.93 -0.11 -0.92 -0.11 -0.89891 -0.10553 C -0.88 -0.11 -0.87 -0.11 -0.84916 -0.10598 C -0.83 -0.11 -0.81 -0.11 -0.79699 -0.10602 C -0.78 -0.11 -0.76 -0.11 -0.74244 -0.10563 C -0.72 -0.11 -0.7 -0.11 -0.68554 -0.10484 C -0.67 -0.1 -0.65 -0.1 -0.62631 -0.10363 C -0.61 -0.1 -0.59 -0.1 -0.56479 -0.102 C -0.54 -0.1 -0.52 -0.1 -0.50102 -0.09997 C -0.48 -0.1 -0.46 -0.1 -0.43501 -0.09752 C -0.41 -0.1 -0.39 -0.1 -0.36679 -0.09467 C -0.34 -0.09 -0.32 -0.09 -0.29639 -0.09141 C -0.27 -0.09 -0.25 -0.09 -0.22383 -0.08774 C -0.17 -0.09 -0.12 -0.08 -0.07232 -0.07919 C -0.02 -0.08 0.03 -0.07 0.08758 -0.06902 L 0.08758 -0.57688" />
    <path d="M 1.43914 0.02269 L 0.08758 -0.06902" />
    <path d="M 1.43914 0.02269 C 1.49 0.03 1.55 0.03 1.60994 0.03496 C 1.67 0.04 1.73 0.04 1.7887 0.04882 C 1.85 0.05 1.91 0.06 1.9753 0.06426 C 2.04 0.07 2.1 0.08 2.16962 0.08127 C 2.24 0.09 2.3 0.09 2.37153 0.09983 C 2.44 0.11 2.51 0.11 2.58093 0.11993 C 2.65 0.13 2.72 0.13 2.7977 0.14155 C 2.87 0.15 2.95 0.16 3.02174 0.16468 C 3.1 0.17 3.17 0.18 3.25294 0.1893 C 3.33 0.2 3.41 0.21 3.49117 0.21539 C 3.57 0.22 3.65 0.23 3.73632 0.24291 C 3.82 0.25 3.9 0.26 3.98824 0.27184 C 4.07 0.28 4.16 0.29 4.2468 0.30215 C 4.29 0.31 4.33 0.31 4.37851 0.31781 C 4.42 0.32 4.47 0.33 4.51182 0.3338 C 4.56 0.34 4.6 0.34 4.6467 0.35011 C 4.69 0.36 4.74 0.36 4.78313 0.36675 C 4.83 0.37 4.87 0.38 4.92107 0.38369 C 4.97 0.39 5.01 0.4 5.06051 0.40094 C 5.11 0.41 5.15 0.41 5.19557 0.41776 C 5.24 0.42 5.29 0.43 5.33244 0.43491 C 5.38 0.44 5.42 0.45 5.47104 0.45238 C 5.52 0.46 5.56 0.46 5.61127 0.47014 C 5.66 0.48 5.71 0.48 5.75301 0.4882 C 5.8 0.49 5.85 0.5 5.89616 0.50652 C 5.94 0.51 5.99 0.52 6.04061 0.52509 C 6.09 0.53 6.14 0.54 6.18625 0.54389 C 6.38 0.57 6.58 0.59 6.77845 0.62103 C 6.98 0.65 7.18 0.67 7.38025 0.70027 C 8.19 0.81 9 0.91 9.71382 1.00894" />
    <path d="M 9.8745 1.02996 L 9.8745 0.5261 L 9.86302 0.52461 L 9.85154 0.52311 L 9.84007 0.5216 L 9.82859 0.5201 L 9.81711 0.51859 L 9.80563 0.51709 L 9.79415 0.51558 L 9.78268 0.51407 L 9.7712 0.51255 L 9.75972 0.51104 L 9.74825 0.50952 L 9.73677 0.50801 L 9.72529 0.50649 L 9.71382 0.50496" />
    <path d="M 35.68678 -0.76123 A 124.5 94.35842 93.8817 0 1 14.35241 0.97179 A 124.5 94.35842 93.8817 0 1 9.8745 0.5261" />
    <path d="M 35.68678 -0.25738 L 35.68678 -0.76123" />
    <path d="M 35.68678 -0.25738 A 125 94.73737 93.8817 0 1 22.78064 1.54572 A 125 94.73737 93.8817 0 1 31.24272 1.6208 L 27.33747 1.35582 A 125 94.73737 273.8817 0 0 26.24308 1.28995" />
    <path d="M 35.9938 -0.33164 L 35.97188 -0.32629 L 35.94995 -0.32095 L 35.92802 -0.31561 L 35.90609 -0.31028 L 35.88417 -0.30496 L 35.86224 -0.29964 L 35.84031 -0.29433 L 35.81838 -0.28903 L 35.79644 -0.28374 L 35.77451 -0.27845 L 35.75258 -0.27317 L 35.73065 -0.2679 L 35.70871 -0.26264 L 35.68678 -0.25738" />
    <path d="M 35.9938 -0.33164 C 36.02 -0.34 36.05 -0.35 36.07471 -0.35249 C 36.1 -0.36 36.13 -0.37 36.15389 -0.37346 C 36.18 -0.38 36.21 -0.39 36.2313 -0.39454 C 36.26 -0.4 36.28 -0.41 36.30692 -0.41572 C 36.33 -0.42 36.36 -0.43 36.3807 -0.43698 C 36.4 -0.44 36.43 -0.45 36.45264 -0.45832 C 36.48 -0.47 36.5 -0.47 36.52269 -0.47971 C 36.55 -0.49 36.57 -0.49 36.59083 -0.50115 C 36.61 -0.51 36.64 -0.52 36.65706 -0.52261 C 36.68 -0.53 36.7 -0.54 36.72134 -0.54409 C 36.74 -0.55 36.76 -0.56 36.78366 -0.56557 C 36.8 -0.57 36.82 -0.58 36.84401 -0.58703 C 36.86 -0.59 36.88 -0.6 36.90237 -0.60846 C 36.92 -0.62 36.94 -0.62 36.95874 -0.62985 C 36.98 -0.64 37 -0.64 37.0131 -0.65118 C 37.03 -0.66 37.05 -0.67 37.06546 -0.67243 C 37.09 -0.68 37.12 -0.7 37.14541 -0.70641 C 37.17 -0.72 37.2 -0.73 37.22023 -0.74011 C 37.24 -0.75 37.27 -0.76 37.28996 -0.77352 C 37.31 -0.78 37.33 -0.8 37.35471 -0.80661 C 37.38 -0.82 37.4 -0.83 37.41452 -0.83933 C 37.43 -0.85 37.45 -0.86 37.4695 -0.87168 C 37.49 -0.88 37.5 -0.89 37.5197 -0.90362 C 37.54 -0.91 37.55 -0.92 37.56522 -0.93514 C 37.58 -0.95 37.59 -0.96 37.60613 -0.9662 C 37.62 -0.98 37.63 -0.99 37.64253 -0.99678 C 37.65 -1.01 37.66 -1.02 37.67448 -1.02687 C 37.68 -1.04 37.69 -1.05 37.70208 -1.05644 C 37.74 -1.1 37.76 -1.13 37.77072 -1.1692 C 37.78 -1.19 37.78 -1.21 37.78152 -1.23227" />
    <path d="M -0.45522 -2.80479 L -0.46181 -2.80318 L -0.46841 -2.80157 L -0.475 -2.79996 L -0.48159 -2.79836 L -0.48818 -2.79675 L -0.49478 -2.79514 L -0.50137 -2.79354 L -0.50796 -2.79193 L -0.51456 -2.79033 L -0.52115 -2.78872 L -0.52774 -2.78712 L -0.53434 -2.78552 L -0.54093 -2.78392 L -0.54752 -2.78231" />
    <path d="M -0.45522 -2.80479 C -0.43 -2.81 -0.4 -2.82 -0.37431 -2.82564 C -0.35 -2.83 -0.32 -2.84 -0.29513 -2.84661 C -0.27 -2.85 -0.24 -2.86 -0.21772 -2.86769 C -0.19 -2.87 -0.17 -2.88 -0.1421 -2.88887 C -0.12 -2.9 -0.09 -2.9 -0.06832 -2.91013 C -0.04 -2.92 -0.02 -2.92 0.00361 -2.93147 C 0.03 -2.94 0.05 -2.95 0.07366 -2.95286 C 0.1 -2.96 0.12 -2.97 0.14181 -2.9743 C 0.16 -2.98 0.19 -2.99 0.20804 -2.99576 C 0.23 -3 0.25 -3.01 0.27232 -3.01724 C 0.29 -3.02 0.31 -3.03 0.33464 -3.03872 C 0.36 -3.05 0.38 -3.05 0.39499 -3.06018 C 0.41 -3.07 0.43 -3.07 0.45335 -3.08161 C 0.47 -3.09 0.49 -3.1 0.50972 -3.103 C 0.53 -3.11 0.55 -3.12 0.56408 -3.12433 C 0.58 -3.13 0.6 -3.14 0.61644 -3.14558 C 0.64 -3.16 0.67 -3.17 0.69639 -3.17955 C 0.72 -3.19 0.75 -3.2 0.7712 -3.21326 C 0.8 -3.22 0.82 -3.24 0.84094 -3.24667 C 0.86 -3.26 0.88 -3.27 0.90568 -3.27975 C 0.93 -3.29 0.95 -3.3 0.9655 -3.31248 C 0.98 -3.32 1 -3.33 1.02047 -3.34483 C 1.04 -3.36 1.05 -3.37 1.07068 -3.37677 C 1.09 -3.39 1.1 -3.4 1.1162 -3.40829 C 1.13 -3.42 1.14 -3.43 1.15711 -3.43934 C 1.17 -3.45 1.18 -3.46 1.1935 -3.46993 C 1.2 -3.48 1.22 -3.49 1.22546 -3.50002 C 1.24 -3.51 1.24 -3.52 1.25306 -3.52959 C 1.29 -3.57 1.31 -3.61 1.32169 -3.64235 C 1.33 -3.66 1.33 -3.68 1.3325 -3.70542" />
    <path d="M 27.60601 -0.1852 A 124.5 94.35842 93.8817 0 1 12.4016 0.81258" />
    <path d="M 8.75299 1.09208 L 8.75299 1.0856" />
    <path d="M 26.30426 0.02659 L 26.30426 -0.27353 L 26.30776 -0.2741 L 26.31125 -0.27468 L 26.31475 -0.27526 L 26.31825 -0.27584 L 26.32174 -0.27642 L 26.32524 -0.277 L 26.32874 -0.27758 L 26.33223 -0.27816 L 26.33573 -0.27874 L 26.33923 -0.27932 L 26.34272 -0.2799 L 26.34622 -0.28048 L 26.34972 -0.28107 L 26.35321 -0.28165" />
    <path d="M 26.30426 -0.27353 A 124.5 94.35842 93.8817 0 1 11.75213 0.74763" />
    <path d="M -8.84301 -2.65835 A 124.5 94.35842 93.8817 0 1 -23.03397 -1.62681" />
    <path d="M -27.69603 -1.38107 L -27.69603 -1.38755" />
    <path d="M -10.14476 -2.44656 L -10.14476 -2.74667 L -10.14127 -2.74725 L -10.13777 -2.74783 L -10.13427 -2.74841 L -10.13078 -2.74899 L -10.12728 -2.74957 L -10.12378 -2.75015 L -10.12029 -2.75073 L -10.11679 -2.75131 L -10.11329 -2.75189 L -10.1098 -2.75247 L -10.1063 -2.75305 L -10.1028 -2.75363 L -10.09931 -2.75421 L -10.09581 -2.7548" />
    <path d="M -10.14476 -2.74667 A 124.5 94.35842 93.8817 0 1 -24.33572 -1.71514" />
    <path d="M -26.64337 -1.95606 A 124.5 94.35842 273.8817 0 0 -9.8745 -3.85267 L -9.86302 -3.85527 L -9.85154 -3.85788 L -9.84007 -3.86048 L -9.82859 -3.86309 L -9.81711 -3.8657 L -9.80563 -3.86832 L -9.79415 -3.87093 L -9.78268 -3.87355 L -9.7712 -3.87616 L -9.75972 -3.87878 L -9.74825 -3.88141 L -9.73677 -3.88403 L -9.72529 -3.88665 L -9.71382 -3.88928" />
    <path d="M -37.78152 -3.01319 C -37.78 -3.02 -37.78 -3.02 -37.77987 -3.02091 C -37.78 -3.02 -37.78 -3.03 -37.77494 -3.0282 C -37.77 -3.03 -37.77 -3.03 -37.7668 -3.03506 C -37.76 -3.04 -37.76 -3.04 -37.75552 -3.0415 C -37.75 -3.04 -37.75 -3.05 -37.74116 -3.0475 C -37.74 -3.05 -37.73 -3.05 -37.72378 -3.05308 C -37.72 -3.05 -37.71 -3.06 -37.70343 -3.05823 C -37.7 -3.06 -37.69 -3.06 -37.68016 -3.06295 C -37.67 -3.06 -37.66 -3.07 -37.65404 -3.06725 C -37.64 -3.07 -37.64 -3.07 -37.62511 -3.07111 C -37.62 -3.07 -37.6 -3.07 -37.59342 -3.07455 C -37.58 -3.08 -37.57 -3.08 -37.55902 -3.07757 C -37.55 -3.08 -37.53 -3.08 -37.52196 -3.08016 C -37.51 -3.08 -37.5 -3.08 -37.48228 -3.08233 C -37.47 -3.08 -37.45 -3.08 -37.44002 -3.08407 C -37.43 -3.08 -37.41 -3.09 -37.39523 -3.0854 C -37.38 -3.09 -37.36 -3.09 -37.34794 -3.0863 C -37.33 -3.09 -37.32 -3.09 -37.2982 -3.08678 C -37.28 -3.09 -37.26 -3.09 -37.24603 -3.08684 C -37.23 -3.09 -37.21 -3.09 -37.19148 -3.08649 C -37.17 -3.09 -37.15 -3.09 -37.13457 -3.08571 C -37.12 -3.09 -37.1 -3.08 -37.07534 -3.08453 C -37.06 -3.08 -37.03 -3.08 -37.01383 -3.08292 C -36.99 -3.08 -36.97 -3.08 -36.95005 -3.08091 C -36.93 -3.08 -36.91 -3.08 -36.88404 -3.07848 C -36.86 -3.08 -36.84 -3.08 -36.81582 -3.07564 C -36.79 -3.07 -36.77 -3.07 -36.74542 -3.07239 C -36.72 -3.07 -36.7 -3.07 -36.67286 -3.06873 C -36.62 -3.07 -36.57 -3.06 -36.52134 -3.06019 C -36.47 -3.06 -36.42 -3.05 -36.36144 -3.05003" />
    <path d="M -35.00989 -2.45046 L -35.00989 -2.95832 C -34.95 -2.95 -34.9 -2.95 -34.83908 -2.94605 C -34.78 -2.94 -34.72 -2.94 -34.66031 -2.93217 C -34.6 -2.93 -34.54 -2.92 -34.47371 -2.91671 C -34.41 -2.91 -34.35 -2.91 -34.27939 -2.89967 C -34.21 -2.89 -34.15 -2.89 -34.07747 -2.88107 C -34.01 -2.87 -33.94 -2.87 -33.86807 -2.86092 C -33.8 -2.85 -33.72 -2.85 -33.65129 -2.83924 C -33.58 -2.83 -33.5 -2.82 -33.42725 -2.81604 C -33.35 -2.81 -33.27 -2.8 -33.19605 -2.79135 C -33.12 -2.78 -33.04 -2.77 -32.95782 -2.76519 C -32.88 -2.76 -32.8 -2.75 -32.71267 -2.73758 C -32.63 -2.73 -32.55 -2.72 -32.46075 -2.70855 C -32.38 -2.7 -32.29 -2.69 -32.2022 -2.67813 C -32.16 -2.67 -32.11 -2.67 -32.07049 -2.66242 C -32.03 -2.66 -31.98 -2.65 -31.93718 -2.64637 C -31.89 -2.64 -31.85 -2.64 -31.80231 -2.63 C -31.76 -2.62 -31.71 -2.62 -31.66589 -2.6133 C -31.62 -2.61 -31.57 -2.6 -31.52795 -2.59629 C -31.48 -2.59 -31.44 -2.58 -31.38851 -2.57898 C -31.34 -2.57 -31.3 -2.57 -31.25345 -2.56209 C -31.21 -2.56 -31.16 -2.55 -31.11656 -2.54488 C -31.07 -2.54 -31.02 -2.53 -30.97795 -2.52734 C -30.93 -2.52 -30.88 -2.52 -30.83773 -2.5095 C -30.79 -2.5 -30.74 -2.5 -30.69598 -2.49137 C -30.65 -2.49 -30.6 -2.48 -30.55282 -2.47298 C -30.5 -2.47 -30.46 -2.46 -30.40837 -2.45433 C -30.36 -2.45 -30.31 -2.44 -30.26272 -2.43545 C -30.07 -2.41 -29.87 -2.38 -29.67052 -2.35798 C -29.47 -2.33 -29.27 -2.31 -29.06871 -2.27839 C -28.26 -2.17 -27.45 -2.06 -26.73521 -1.96819" />
    <path d="M -35.00989 -2.95832 L -36.36144 -3.05003" />
    <path d="M -1.3325 -0.15432 L -25.05615 -1.76402" />
    <path d="M -1.3325 -0.54004 C -1.33 -0.54 -1.33 -0.55 -1.33084 -0.54776 C -1.33 -0.55 -1.33 -0.55 -1.32592 -0.55505 C -1.32 -0.56 -1.32 -0.56 -1.31778 -0.56191 C -1.31 -0.56 -1.31 -0.57 -1.3065 -0.56835 C -1.3 -0.57 -1.3 -0.57 -1.29214 -0.57435 C -1.29 -0.58 -1.28 -0.58 -1.27476 -0.57993 C -1.27 -0.58 -1.26 -0.58 -1.2544 -0.58508 C -1.25 -0.59 -1.24 -0.59 -1.23114 -0.5898 C -1.22 -0.59 -1.21 -0.59 -1.20502 -0.5941 C -1.2 -0.6 -1.19 -0.6 -1.17609 -0.59796 C -1.17 -0.6 -1.16 -0.6 -1.1444 -0.6014 C -1.13 -0.6 -1.12 -0.6 -1.11 -0.60442 C -1.1 -0.61 -1.09 -0.61 -1.07294 -0.60701 C -1.06 -0.61 -1.05 -0.61 -1.03326 -0.60918 C -1.02 -0.61 -1.01 -0.61 -0.991 -0.61092 C -0.98 -0.61 -0.96 -0.61 -0.94621 -0.61225 C -0.93 -0.61 -0.92 -0.61 -0.89892 -0.61315 C -0.88 -0.61 -0.87 -0.61 -0.84917 -0.61363 C -0.83 -0.61 -0.81 -0.61 -0.79701 -0.61369 C -0.78 -0.61 -0.76 -0.61 -0.74245 -0.61334 C -0.72 -0.61 -0.7 -0.61 -0.68555 -0.61256 C -0.67 -0.61 -0.65 -0.61 -0.62632 -0.61138 C -0.61 -0.61 -0.59 -0.61 -0.56481 -0.60977 C -0.54 -0.61 -0.52 -0.61 -0.50103 -0.60776 C -0.48 -0.61 -0.46 -0.61 -0.43502 -0.60533 C -0.41 -0.6 -0.39 -0.6 -0.3668 -0.60249 C -0.34 -0.6 -0.32 -0.6 -0.29639 -0.59924 C -0.27 -0.6 -0.25 -0.6 -0.22383 -0.59558 C -0.17 -0.59 -0.12 -0.59 -0.07232 -0.58704 C -0.02 -0.58 0.03 -0.58 0.08758 -0.57688" />
    <path d="M 1.43914 0.02269 L 1.43914 -0.48517 C 1.49 -0.48 1.55 -0.48 1.60994 -0.4729 C 1.67 -0.47 1.73 -0.46 1.78871 -0.45902 C 1.85 -0.45 1.91 -0.45 1.97532 -0.44356 C 2.04 -0.44 2.1 -0.43 2.16964 -0.42652 C 2.24 -0.42 2.3 -0.41 2.37155 -0.40792 C 2.44 -0.4 2.51 -0.39 2.58095 -0.38777 C 2.65 -0.38 2.72 -0.37 2.79773 -0.36609 C 2.87 -0.36 2.95 -0.35 3.02177 -0.34289 C 3.1 -0.33 3.17 -0.33 3.25297 -0.3182 C 3.33 -0.31 3.41 -0.3 3.49121 -0.29204 C 3.57 -0.28 3.65 -0.27 3.73635 -0.26443 C 3.82 -0.25 3.9 -0.25 3.98827 -0.2354 C 4.07 -0.23 4.16 -0.22 4.24682 -0.20498 C 4.29 -0.2 4.33 -0.19 4.37853 -0.18927 C 4.42 -0.18 4.47 -0.18 4.51184 -0.17322 C 4.56 -0.17 4.6 -0.16 4.64671 -0.15685 C 4.69 -0.15 4.74 -0.15 4.78314 -0.14015 C 4.83 -0.13 4.87 -0.13 4.92108 -0.12315 C 4.97 -0.12 5.01 -0.11 5.06051 -0.10583 C 5.11 -0.1 5.15 -0.09 5.19557 -0.08895 C 5.24 -0.08 5.29 -0.08 5.33246 -0.07173 C 5.38 -0.07 5.42 -0.06 5.47107 -0.05419 C 5.52 -0.05 5.56 -0.04 5.6113 -0.03635 C 5.66 -0.03 5.71 -0.02 5.75304 -0.01822 C 5.8 -0.01 5.85 -0.01 5.8962 0.00017 C 5.94 0.01 5.99 0.01 6.04066 0.01882 C 6.09 0.03 6.14 0.03 6.1863 0.0377 C 6.38 0.06 6.58 0.09 6.77851 0.11517 C 6.98 0.14 7.18 0.17 7.38031 0.19476 C 8.19 0.3 9 0.41 9.71382 0.50496" />
    <path d="M 1.43914 -0.48517 L 0.08758 -0.57688" />
    <path d="M 35.9938 -0.83573 L 35.97188 -0.83036 L 35.94995 -0.825 L 35.92802 -0.81965 L 35.90609 -0.8143 L 35.88417 -0.80896 L 35.86224 -0.80363 L 35.84031 -0.79831 L 35.81838 -0.79299 L 35.79644 -0.78768 L 35.77451 -0.78237 L 35.75258 -0.77708 L 35.73065 -0.77179 L 35.70871 -0.76651 L 35.68678 -0.76123" />
    <path d="M 35.9938 -0.83573 C 36.02 -0.84 36.05 -0.85 36.07471 -0.85664 C 36.1 -0.86 36.13 -0.87 36.15389 -0.87768 C 36.18 -0.88 36.21 -0.89 36.2313 -0.89883 C 36.26 -0.91 36.28 -0.91 36.30692 -0.92008 C 36.33 -0.93 36.36 -0.93 36.3807 -0.94141 C 36.4 -0.95 36.43 -0.96 36.45263 -0.96281 C 36.48 -0.97 36.5 -0.98 36.52269 -0.98427 C 36.55 -0.99 36.57 -1 36.59083 -1.00577 C 36.61 -1.01 36.64 -1.02 36.65706 -1.0273 C 36.68 -1.03 36.7 -1.04 36.72134 -1.04885 C 36.74 -1.06 36.76 -1.06 36.78366 -1.07039 C 36.8 -1.08 36.82 -1.08 36.84401 -1.09192 C 36.86 -1.1 36.88 -1.11 36.90237 -1.11341 C 36.92 -1.12 36.94 -1.13 36.95874 -1.13487 C 36.98 -1.14 37 -1.15 37.0131 -1.15626 C 37.03 -1.16 37.05 -1.17 37.06546 -1.17758 C 37.09 -1.19 37.12 -1.2 37.14541 -1.21165 C 37.17 -1.22 37.2 -1.23 37.22022 -1.24546 C 37.24 -1.26 37.27 -1.27 37.28996 -1.27897 C 37.31 -1.29 37.33 -1.3 37.3547 -1.31215 C 37.38 -1.32 37.4 -1.33 37.41452 -1.34498 C 37.43 -1.36 37.45 -1.37 37.46949 -1.37742 C 37.49 -1.39 37.5 -1.4 37.51969 -1.40946 C 37.54 -1.42 37.55 -1.43 37.56521 -1.44106 C 37.58 -1.45 37.59 -1.46 37.60613 -1.47221 C 37.62 -1.48 37.63 -1.49 37.64252 -1.50289 C 37.65 -1.51 37.66 -1.52 37.67448 -1.53306 C 37.68 -1.54 37.69 -1.55 37.70208 -1.56272 C 37.74 -1.6 37.76 -1.64 37.77072 -1.6758 C 37.78 -1.7 37.78 -1.72 37.78152 -1.73905 L 37.78152 -1.23227" />
    <path d="M 37.78152 -1.73905 C 37.78 -1.75 37.78 -1.76 37.77987 -1.76318 C 37.78 -1.77 37.78 -1.78 37.77494 -1.78676 C 37.77 -1.79 37.77 -1.8 37.7668 -1.80979 C 37.76 -1.82 37.76 -1.82 37.75552 -1.83227 C 37.75 -1.84 37.75 -1.85 37.74116 -1.85419 C 37.74 -1.86 37.73 -1.87 37.72378 -1.87555 C 37.72 -1.88 37.71 -1.89 37.70343 -1.89635 C 37.7 -1.9 37.69 -1.91 37.68016 -1.91658 C 37.67 -1.92 37.66 -1.93 37.65404 -1.93624 C 37.64 -1.94 37.64 -1.95 37.62511 -1.95533 C 37.62 -1.96 37.6 -1.97 37.59342 -1.97384 C 37.58 -1.98 37.57 -1.99 37.55902 -1.99177 C 37.55 -2 37.53 -2 37.52196 -2.00912 C 37.51 -2.01 37.5 -2.02 37.48228 -2.02589 C 37.47 -2.03 37.45 -2.04 37.44002 -2.04208 C 37.43 -2.05 37.41 -2.05 37.39523 -2.05768 C 37.38 -2.06 37.36 -2.07 37.34794 -2.0727 C 37.33 -2.08 37.32 -2.08 37.2982 -2.08713 C 37.28 -2.09 37.26 -2.1 37.24603 -2.10097 C 37.23 -2.11 37.21 -2.11 37.19148 -2.11422 C 37.17 -2.12 37.15 -2.12 37.13457 -2.12688 C 37.12 -2.13 37.1 -2.14 37.07534 -2.13895 C 37.06 -2.14 37.03 -2.15 37.01383 -2.15043 C 36.99 -2.15 36.97 -2.16 36.95005 -2.16131 C 36.93 -2.16 36.91 -2.17 36.88404 -2.17159 C 36.86 -2.17 36.84 -2.18 36.81582 -2.18129 C 36.79 -2.18 36.77 -2.19 36.74542 -2.19038 C 36.72 -2.19 36.7 -2.2 36.67285 -2.19888 C 36.62 -2.2 36.57 -2.21 36.52134 -2.21407 C 36.47 -2.22 36.42 -2.22 36.36144 -2.22685 L 35.00989 -2.31856 C 34.95 -2.32 34.9 -2.33 34.83908 -2.32821 C 34.78 -2.33 34.72 -2.33 34.66031 -2.33541 C 34.6 -2.34 34.54 -2.34 34.47371 -2.34016 C 34.41 -2.34 34.35 -2.34 34.27939 -2.34243 C 34.21 -2.34 34.15 -2.34 34.07747 -2.34223 C 34.01 -2.34 33.94 -2.34 33.86807 -2.33953 C 33.8 -2.34 33.72 -2.34 33.65129 -2.33432 C 33.58 -2.33 33.5 -2.33 33.42725 -2.32659 C 33.35 -2.32 33.27 -2.32 33.19605 -2.3163 C 33.12 -2.31 33.04 -2.31 32.95782 -2.30345 C 32.88 -2.3 32.8 -2.29 32.71267 -2.28802 C 32.63 -2.28 32.55 -2.28 32.46075 -2.26998 C 32.38 -2.26 32.29 -2.26 32.2022 -2.24933 C 32.16 -2.25 32.11 -2.24 32.07049 -2.23802 C 32.03 -2.23 31.98 -2.23 31.93718 -2.22604 C 31.89 -2.22 31.85 -2.22 31.80231 -2.21341 C 31.76 -2.21 31.71 -2.2 31.66589 -2.20011 C 31.62 -2.2 31.57 -2.19 31.52795 -2.18614 C 31.48 -2.18 31.44 -2.18 31.38851 -2.1715 C 31.34 -2.17 31.3 -2.16 31.25345 -2.15685 C 31.21 -2.15 31.16 -2.15 31.11656 -2.14151 C 31.07 -2.14 31.02 -2.13 30.97795 -2.12551 C 30.93 -2.12 30.88 -2.11 30.83773 -2.10884 C 30.79 -2.1 30.74 -2.1 30.69598 -2.0915 C 30.65 -2.09 30.6 -2.08 30.55282 -2.07351 C 30.5 -2.07 30.46 -2.06 30.40837 -2.05486 C 30.36 -2.05 30.31 -2.04 30.26272 -2.03557 C 30.07 -2.01 29.87 -1.98 29.67052 -1.95218 C 29.47 -1.92 29.27 -1.89 29.06871 -1.85939 C 28.26 -1.73 27.45 -1.58 26.73521 -1.41613" />
    <path d="M 26.57452 -1.37952 L 26.586 -1.38212 L 26.59748 -1.38473 L 26.60896 -1.38733 L 26.62044 -1.38994 L 26.63191 -1.39255 L 26.64339 -1.39517 L 26.65487 -1.39778 L 26.66635 -1.4004 L 26.67782 -1.40302 L 26.6893 -1.40563 L 26.70078 -1.40826 L 26.71225 -1.41088 L 26.72373 -1.4135 L 26.73521 -1.41613" />
    <path d="M 26.57452 -1.37952 A 124.5 94.35842 93.8817 0 1 25.05615 -1.04505 L -2.28061 -2.89991" />
    <path d="M -0.76225 -3.23438 A 124.5 94.35842 93.8817 0 1 -2.28061 -2.89991" />
    <path d="M -0.45522 -3.30888 L -0.47715 -3.30351 L -0.49907 -3.29815 L -0.521 -3.2928 L -0.54293 -3.28745 L -0.56486 -3.28211 L -0.58679 -3.27678 L -0.60872 -3.27146 L -0.63065 -3.26614 L -0.65258 -3.26083 L -0.67451 -3.25552 L -0.69644 -3.25023 L -0.71838 -3.24494 L -0.74031 -3.23966 L -0.76225 -3.23438" />
    <path d="M -0.45522 -3.30888 C -0.43 -3.32 -0.4 -3.32 -0.37431 -3.32979 C -0.35 -3.34 -0.32 -3.34 -0.29513 -3.35083 C -0.27 -3.36 -0.24 -3.36 -0.21772 -3.37198 C -0.19 -3.38 -0.17 -3.39 -0.14211 -3.39322 C -0.12 -3.4 -0.09 -3.41 -0.06832 -3.41456 C -0.04 -3.42 -0.02 -3.43 0.00361 -3.43596 C 0.03 -3.44 0.05 -3.45 0.07366 -3.45742 C 0.1 -3.46 0.12 -3.47 0.14181 -3.47892 C 0.16 -3.49 0.19 -3.49 0.20804 -3.50045 C 0.23 -3.51 0.25 -3.51 0.27232 -3.52199 C 0.29 -3.53 0.31 -3.54 0.33464 -3.54354 C 0.36 -3.55 0.38 -3.56 0.39499 -3.56507 C 0.41 -3.57 0.43 -3.58 0.45335 -3.58656 C 0.47 -3.59 0.49 -3.6 0.50972 -3.60802 C 0.53 -3.62 0.55 -3.62 0.56408 -3.62941 C 0.58 -3.64 0.6 -3.64 0.61644 -3.65073 C 0.64 -3.66 0.67 -3.67 0.69639 -3.6848 C 0.72 -3.7 0.75 -3.71 0.7712 -3.71861 C 0.8 -3.73 0.82 -3.74 0.84094 -3.75212 C 0.86 -3.76 0.88 -3.77 0.90568 -3.7853 C 0.93 -3.8 0.95 -3.81 0.96549 -3.81813 C 0.98 -3.83 1 -3.84 1.02047 -3.85057 C 1.04 -3.86 1.05 -3.87 1.07067 -3.88261 C 1.09 -3.89 1.1 -3.9 1.11619 -3.91421 C 1.13 -3.92 1.14 -3.94 1.15711 -3.94536 C 1.17 -3.96 1.18 -3.97 1.1935 -3.97603 C 1.2 -3.99 1.22 -4 1.22545 -4.00621 C 1.24 -4.02 1.24 -4.03 1.25306 -4.03586 C 1.29 -4.08 1.31 -4.11 1.32169 -4.14895 C 1.33 -4.17 1.33 -4.19 1.3325 -4.2122 L 1.3325 -3.70542" />
    <path d="M 1.3325 -4.2122 C 1.33 -4.22 1.33 -4.23 1.33084 -4.23633 C 1.33 -4.24 1.33 -4.25 1.32592 -4.25991 C 1.32 -4.27 1.32 -4.28 1.31778 -4.28294 C 1.31 -4.29 1.31 -4.3 1.3065 -4.30542 C 1.3 -4.31 1.3 -4.32 1.29214 -4.32734 C 1.29 -4.33 1.28 -4.34 1.27476 -4.3487 C 1.27 -4.36 1.26 -4.36 1.2544 -4.3695 C 1.25 -4.38 1.24 -4.38 1.23114 -4.38973 C 1.22 -4.4 1.21 -4.4 1.20502 -4.40939 C 1.2 -4.42 1.19 -4.42 1.17609 -4.42847 C 1.17 -4.43 1.16 -4.44 1.1444 -4.44699 C 1.13 -4.45 1.12 -4.46 1.11 -4.46492 C 1.1 -4.47 1.09 -4.48 1.07294 -4.48227 C 1.06 -4.49 1.05 -4.49 1.03326 -4.49904 C 1.02 -4.5 1.01 -4.51 0.991 -4.51523 C 0.98 -4.52 0.96 -4.53 0.94621 -4.53083 C 0.93 -4.54 0.92 -4.54 0.89892 -4.54585 C 0.88 -4.55 0.87 -4.56 0.84917 -4.56028 C 0.83 -4.56 0.81 -4.57 0.79701 -4.57412 C 0.78 -4.58 0.76 -4.58 0.74245 -4.58737 C 0.72 -4.59 0.7 -4.6 0.68555 -4.60003 C 0.67 -4.6 0.65 -4.61 0.62632 -4.6121 C 0.61 -4.62 0.59 -4.62 0.56481 -4.62358 C 0.54 -4.63 0.52 -4.63 0.50103 -4.63446 C 0.48 -4.64 0.46 -4.64 0.43501 -4.64474 C 0.41 -4.65 0.39 -4.65 0.36679 -4.65444 C 0.34 -4.66 0.32 -4.66 0.29639 -4.66353 C 0.27 -4.67 0.25 -4.67 0.22383 -4.67202 C 0.17 -4.68 0.12 -4.68 0.07232 -4.68722 C 0.02 -4.69 -0.03 -4.7 -0.08758 -4.7 L -1.43914 -4.79171 C -1.49 -4.8 -1.55 -4.8 -1.60994 -4.80136 C -1.67 -4.8 -1.73 -4.81 -1.78871 -4.80856 C -1.85 -4.81 -1.91 -4.81 -1.97532 -4.81331 C -2.04 -4.81 -2.1 -4.82 -2.16964 -4.81558 C -2.24 -4.82 -2.3 -4.82 -2.37155 -4.81538 C -2.44 -4.81 -2.51 -4.81 -2.58095 -4.81268 C -2.65 -4.81 -2.72 -4.81 -2.79773 -4.80747 C -2.87 -4.81 -2.95 -4.8 -3.02177 -4.79974 C -3.1 -4.8 -3.17 -4.79 -3.25297 -4.78945 C -3.33 -4.79 -3.41 -4.78 -3.49121 -4.7766 C -3.57 -4.77 -3.65 -4.77 -3.73635 -4.76117 C -3.82 -4.76 -3.9 -4.75 -3.98827 -4.74313 C -4.07 -4.74 -4.16 -4.73 -4.24682 -4.72248 C -4.29 -4.72 -4.33 -4.72 -4.37853 -4.71117 C -4.42 -4.71 -4.47 -4.7 -4.51184 -4.69919 C -4.56 -4.7 -4.6 -4.69 -4.64671 -4.68656 C -4.69 -4.68 -4.74 -4.68 -4.78314 -4.67325 C -4.83 -4.67 -4.87 -4.66 -4.92108 -4.65929 C -4.97 -4.65 -5.01 -4.65 -5.06051 -4.64465 C -5.11 -4.64 -5.15 -4.63 -5.19557 -4.62999 C -5.24 -4.62 -5.29 -4.62 -5.33246 -4.61466 C -5.38 -4.61 -5.42 -4.6 -5.47107 -4.59866 C -5.52 -4.59 -5.56 -4.59 -5.6113 -4.58199 C -5.66 -4.58 -5.71 -4.57 -5.75304 -4.56465 C -5.8 -4.56 -5.85 -4.55 -5.8962 -4.54665 C -5.94 -4.54 -5.99 -4.53 -6.04066 -4.52801 C -6.09 -4.52 -6.14 -4.52 -6.1863 -4.50872 C -6.38 -4.48 -6.58 -4.45 -6.77851 -4.42533 C -6.98 -4.4 -7.18 -4.36 -7.38031 -4.33254 C -8.19 -4.2 -9 -4.05 -9.71382 -3.88928" />
    <path d="M 27.69603 -0.20196 C 27.71 -0.2 27.72 -0.21 27.72783 -0.20862 C 27.74 -0.21 27.75 -0.21 27.75759 -0.2153 C 27.77 -0.22 27.78 -0.22 27.78528 -0.22198 C 27.79 -0.22 27.8 -0.23 27.81088 -0.22864 C 27.82 -0.23 27.83 -0.23 27.83437 -0.23527 C 27.84 -0.24 27.85 -0.24 27.85575 -0.24185 C 27.86 -0.24 27.87 -0.25 27.87501 -0.24838 C 27.88 -0.25 27.89 -0.25 27.89216 -0.25482 C 27.9 -0.26 27.9 -0.26 27.90719 -0.26118 C 27.91 -0.26 27.92 -0.27 27.92013 -0.26743 C 27.92 -0.27 27.93 -0.27 27.93099 -0.27356 C 27.93 -0.28 27.94 -0.28 27.9398 -0.27956 C 27.94 -0.28 27.94 -0.28 27.94658 -0.28542 C 27.95 -0.29 27.95 -0.29 27.95136 -0.29112 C 27.95 -0.29 27.95 -0.29 27.9542 -0.29665 C 27.95 -0.3 27.96 -0.3 27.95513 -0.30201 C 27.96 -0.3 27.95 -0.31 27.9541 -0.30751 C 27.95 -0.31 27.95 -0.31 27.95104 -0.31278 C 27.95 -0.32 27.95 -0.32 27.94068 -0.32172 C 27.94 -0.32 27.93 -0.33 27.92429 -0.32996 C 27.92 -0.33 27.91 -0.34 27.90217 -0.33748 C 27.89 -0.34 27.88 -0.34 27.87457 -0.34428 C 27.86 -0.35 27.85 -0.35 27.84176 -0.35034 C 27.83 -0.35 27.82 -0.35 27.80397 -0.35563 C 27.79 -0.36 27.78 -0.36 27.76142 -0.36016 C 27.75 -0.36 27.73 -0.36 27.71432 -0.3639 C 27.68 -0.37 27.64 -0.37 27.60158 -0.36915 C 27.58 -0.37 27.56 -0.37 27.53855 -0.37042 C 27.52 -0.37 27.49 -0.37 27.47137 -0.37077 C 27.45 -0.37 27.42 -0.37 27.40027 -0.37017 C 27.39 -0.37 27.38 -0.37 27.36332 -0.36951 C 27.35 -0.37 27.34 -0.37 27.32548 -0.36861 C 27.31 -0.37 27.3 -0.37 27.28679 -0.36747 C 27.27 -0.37 27.26 -0.37 27.24727 -0.36608 C 27.23 -0.37 27.22 -0.37 27.20697 -0.36444 C 27.19 -0.36 27.18 -0.36 27.16592 -0.36255 C 27.15 -0.36 27.13 -0.36 27.11716 -0.36002 C 27.1 -0.36 27.08 -0.36 27.06734 -0.35713 C 27.05 -0.36 27.03 -0.36 27.01661 -0.35388 C 27 -0.35 26.98 -0.35 26.96512 -0.35027 C 26.95 -0.35 26.93 -0.35 26.91306 -0.3463 C 26.9 -0.34 26.88 -0.34 26.86058 -0.34198 C 26.84 -0.34 26.83 -0.34 26.80787 -0.33732 C 26.79 -0.34 26.77 -0.33 26.75511 -0.33231 C 26.68 -0.33 26.61 -0.32 26.54717 -0.30915 C 26.48 -0.3 26.41 -0.29 26.35321 -0.28165" />
    <path d="M 27.69603 -0.20196 L 27.6896 -0.20076 L 27.68317 -0.19956 L 27.67674 -0.19836 L 27.67031 -0.19716 L 27.66388 -0.19596 L 27.65745 -0.19476 L 27.65102 -0.19356 L 27.64459 -0.19237 L 27.63816 -0.19117 L 27.63173 -0.18998 L 27.6253 -0.18878 L 27.61887 -0.18759 L 27.61244 -0.18639 L 27.60601 -0.1852" />
    <path d="M -8.75299 -2.67511 C -8.74 -2.68 -8.73 -2.68 -8.72119 -2.68177 C -8.71 -2.68 -8.7 -2.69 -8.69143 -2.68845 C -8.68 -2.69 -8.67 -2.69 -8.66375 -2.69513 C -8.65 -2.7 -8.65 -2.7 -8.63815 -2.70179 C -8.63 -2.7 -8.62 -2.71 -8.61465 -2.70842 C -8.61 -2.71 -8.6 -2.71 -8.59327 -2.715 C -8.59 -2.72 -8.58 -2.72 -8.57401 -2.72153 C -8.57 -2.72 -8.56 -2.73 -8.55686 -2.72797 C -8.55 -2.73 -8.55 -2.73 -8.54183 -2.73433 C -8.54 -2.74 -8.53 -2.74 -8.52889 -2.74058 C -8.52 -2.74 -8.52 -2.74 -8.51803 -2.74671 C -8.51 -2.75 -8.51 -2.75 -8.50922 -2.75271 C -8.51 -2.75 -8.5 -2.76 -8.50245 -2.75857 C -8.5 -2.76 -8.5 -2.76 -8.49766 -2.76427 C -8.5 -2.77 -8.5 -2.77 -8.49482 -2.7698 C -8.49 -2.77 -8.49 -2.77 -8.49389 -2.77516 C -8.49 -2.78 -8.49 -2.78 -8.49492 -2.78066 C -8.5 -2.78 -8.5 -2.78 -8.49798 -2.78593 C -8.5 -2.79 -8.5 -2.79 -8.50835 -2.79487 C -8.51 -2.8 -8.52 -2.8 -8.52473 -2.80311 C -8.53 -2.81 -8.54 -2.81 -8.54686 -2.81063 C -8.56 -2.81 -8.56 -2.82 -8.57445 -2.81743 C -8.58 -2.82 -8.6 -2.82 -8.60726 -2.82349 C -8.62 -2.83 -8.63 -2.83 -8.64505 -2.82878 C -8.66 -2.83 -8.67 -2.83 -8.6876 -2.83331 C -8.7 -2.83 -8.72 -2.84 -8.7347 -2.83705 C -8.77 -2.84 -8.81 -2.84 -8.84744 -2.8423 C -8.87 -2.84 -8.89 -2.84 -8.91047 -2.84357 C -8.93 -2.84 -8.95 -2.84 -8.97765 -2.84391 C -9 -2.84 -9.02 -2.84 -9.04876 -2.84332 C -9.06 -2.84 -9.07 -2.84 -9.0857 -2.84266 C -9.1 -2.84 -9.11 -2.84 -9.12354 -2.84176 C -9.14 -2.84 -9.15 -2.84 -9.16224 -2.84062 C -9.18 -2.84 -9.19 -2.84 -9.20175 -2.83923 C -9.22 -2.84 -9.23 -2.84 -9.24205 -2.83759 C -9.26 -2.84 -9.27 -2.84 -9.2831 -2.8357 C -9.3 -2.83 -9.32 -2.83 -9.33186 -2.83317 C -9.35 -2.83 -9.36 -2.83 -9.38168 -2.83028 C -9.4 -2.83 -9.42 -2.83 -9.43242 -2.82703 C -9.45 -2.83 -9.47 -2.82 -9.4839 -2.82342 C -9.5 -2.82 -9.52 -2.82 -9.53596 -2.81945 C -9.55 -2.82 -9.57 -2.82 -9.58844 -2.81513 C -9.61 -2.81 -9.62 -2.81 -9.64115 -2.81047 C -9.66 -2.81 -9.68 -2.81 -9.69391 -2.80546 C -9.76 -2.8 -9.83 -2.79 -9.90186 -2.7823 C -9.97 -2.77 -10.03 -2.76 -10.09581 -2.7548" />
    <path d="M -8.75299 -2.67511 L -8.75942 -2.67391 L -8.76585 -2.67271 L -8.77228 -2.67151 L -8.77871 -2.67031 L -8.78514 -2.66911 L -8.79157 -2.66791 L -8.798 -2.66671 L -8.80443 -2.66552 L -8.81086 -2.66432 L -8.81729 -2.66312 L -8.82372 -2.66193 L -8.83015 -2.66074 L -8.83658 -2.65954 L -8.84301 -2.65835" />
    <path d="M 35.9938 -0.33164 L 35.9938 -0.83573" />
    <path d="M -0.76225 -2.79688 L -0.76225 -3.23438" />
    <path d="M -0.45522 -2.80479 L -0.45522 -3.30888" />
    <path d="M -10.09581 -2.45409 L -10.09581 -2.7548" />
    <path d="M 26.35321 0.01906 L 26.35321 -0.28165" />
    <path d="M 31.24272 1.6208 A 125 94.73737 93.8817 0 1 35.68678 2.06148 L 35.68678 2.56533 L 35.69792 2.56681 L 35.70906 2.56829 L 35.7202 2.56976 L 35.73134 2.57125 L 35.74248 2.57273 L 35.75362 2.57421 L 35.76476 2.5757 L 35.7759 2.57719 L 35.78704 2.57868 L 35.79818 2.58017 L 35.80932 2.58166 L 35.82046 2.58316 L 35.8316 2.58465 L 35.84274 2.58615" />
    <path d="M 26.69528 1.31473 C 26.7 1.32 26.71 1.32 26.72224 1.31672" />
    <path d="M 37.78152 2.50642 C 37.78 2.51 37.78 2.51 37.78152 2.50599 C 37.78 2.5 37.78 2.5 37.77979 2.49822 C 37.78 2.5 37.78 2.49 37.7749 2.49002 C 37.77 2.49 37.77 2.48 37.76675 2.48141 C 37.76 2.48 37.76 2.48 37.75525 2.47237 C 37.75 2.47 37.75 2.47 37.74031 2.46292 C 37.73 2.46 37.73 2.46 37.72186 2.45306 C 37.72 2.45 37.71 2.45 37.69982 2.4428 C 37.69 2.44 37.68 2.44 37.67412 2.43214 C 37.66 2.43 37.66 2.42 37.64468 2.42108 C 37.63 2.42 37.62 2.41 37.61146 2.40964 C 37.6 2.41 37.59 2.4 37.57437 2.39782 C 37.56 2.39 37.55 2.39 37.53338 2.38563 C 37.52 2.38 37.5 2.38 37.48843 2.37308 C 37.47 2.37 37.46 2.36 37.43947 2.36018 C 37.42 2.36 37.4 2.35 37.38645 2.34695 C 37.37 2.34 37.35 2.34 37.32935 2.33338 C 37.31 2.33 37.29 2.32 37.26812 2.3195 C 37.25 2.31 37.23 2.31 37.20273 2.30532 C 37.18 2.3 37.16 2.3 37.13316 2.29084 C 37.11 2.29 37.08 2.28 37.05938 2.27609 C 37.03 2.27 37.01 2.27 36.98137 2.26107 C 36.95 2.26 36.93 2.25 36.89913 2.2458 C 36.87 2.24 36.84 2.24 36.81262 2.23028 C 36.78 2.23 36.75 2.22 36.72186 2.21454 C 36.69 2.21 36.66 2.2 36.62683 2.19859 C 36.59 2.19 36.56 2.19 36.52753 2.18244 C 36.49 2.18 36.46 2.17 36.42398 2.16611 C 36.39 2.16 36.35 2.16 36.31617 2.14961 C 36.17 2.13 36.01 2.1 35.84274 2.08218 L 35.84274 2.58615" />
    <path d="M 35.68678 2.06148 L 35.69792 2.06295 L 35.70906 2.06442 L 35.7202 2.06589 L 35.73134 2.06736 L 35.74248 2.06883 L 35.75362 2.07031 L 35.76476 2.07179 L 35.7759 2.07327 L 35.78704 2.07475 L 35.79818 2.07623 L 35.80932 2.07772 L 35.82046 2.0792 L 35.8316 2.08069 L 35.84274 2.08218" />
    <path d="M 9.8745 3.85267 A 124.5 94.35842 93.8817 0 1 31.20887 2.11965 A 124.5 94.35842 93.8817 0 1 35.68678 2.56533" />
    <path d="M 9.8745 3.34881 L 9.8745 3.85267" />
    <path d="M 9.8745 3.34881 A 125 94.73737 93.8817 0 1 22.78064 1.54572" />
    <path d="M 9.5486 3.4218 L 9.57188 3.41654 L 9.59515 3.41129 L 9.61843 3.40604 L 9.6417 3.4008 L 9.66498 3.39557 L 9.68826 3.39035 L 9.71153 3.38513 L 9.73481 3.37992 L 9.75809 3.37472 L 9.78137 3.36952 L 9.80465 3.36434 L 9.82794 3.35916 L 9.85122 3.35398 L 9.8745 3.34881" />
    <path d="M 9.5486 3.4218 C 9.49 3.44 9.42 3.45 9.36211 3.46182 C 9.3 3.48 9.24 3.49 9.17155 3.50154 C 9.11 3.51 9.04 3.53 8.97742 3.54085 C 8.91 3.55 8.85 3.57 8.78023 3.57968 C 8.71 3.59 8.65 3.61 8.58049 3.61792 C 8.51 3.63 8.45 3.64 8.37875 3.6555 C 8.31 3.67 8.24 3.68 8.17556 3.69231 C 8.11 3.7 8.04 3.72 7.97147 3.72829 C 7.92 3.74 7.86 3.75 7.80714 3.75654 C 7.75 3.77 7.7 3.78 7.64279 3.78417 C 7.59 3.79 7.53 3.8 7.47855 3.81117 C 7.42 3.82 7.37 3.83 7.31456 3.83752 C 7.26 3.85 7.21 3.85 7.15096 3.8632 C 7.1 3.87 7.04 3.88 6.98787 3.88822 C 6.93 3.9 6.88 3.9 6.82543 3.91254 C 6.77 3.92 6.72 3.93 6.66374 3.93617 C 6.61 3.94 6.56 3.95 6.50292 3.9591 C 6.45 3.97 6.4 3.97 6.34308 3.9813 C 6.29 3.99 6.24 4 6.18433 4.00279 C 6.13 4.01 6.08 4.02 6.02678 4.02354 C 5.97 4.03 5.92 4.04 5.8705 4.04355 C 5.82 4.05 5.77 4.06 5.71561 4.06283 C 5.66 4.07 5.61 4.08 5.56219 4.08135 C 5.51 4.09 5.46 4.09 5.41033 4.09913 C 5.36 4.11 5.31 4.11 5.25639 4.11656 C 5.21 4.12 5.15 4.13 5.1041 4.13322 C 5 4.14 4.9 4.15 4.8046 4.16422 C 4.61 4.18 4.41 4.2 4.22695 4.217 C 3.85 4.25 3.5 4.27 3.16332 4.28616 C 2.5 4.32 1.92 4.32 1.43914 4.28385 L 1.43914 4.79171 L 0.08758 4.7 C 0.03 4.7 -0.02 4.69 -0.07231 4.68722 C -0.12 4.68 -0.17 4.68 -0.22382 4.67203 C -0.27 4.67 -0.32 4.66 -0.36679 4.65444 C -0.39 4.65 -0.41 4.65 -0.43501 4.64474 C -0.46 4.64 -0.48 4.64 -0.50103 4.63446 C -0.52 4.63 -0.54 4.63 -0.56481 4.62358 C -0.59 4.62 -0.61 4.62 -0.62632 4.6121 C -0.65 4.61 -0.67 4.6 -0.68555 4.60003 C -0.7 4.6 -0.72 4.59 -0.74246 4.58737 C -0.76 4.58 -0.78 4.58 -0.79701 4.57412 C -0.81 4.57 -0.83 4.56 -0.84918 4.56028 C -0.87 4.56 -0.88 4.55 -0.89893 4.54585 C -0.92 4.54 -0.93 4.54 -0.94622 4.53083 C -0.96 4.53 -0.98 4.52 -0.99101 4.51523 C -1.01 4.51 -1.02 4.5 -1.03327 4.49904 C -1.05 4.49 -1.06 4.49 -1.07295 4.48227 C -1.09 4.48 -1.1 4.47 -1.11001 4.46491 C -1.12 4.46 -1.13 4.45 -1.14441 4.44698 C -1.16 4.44 -1.17 4.43 -1.17609 4.42847 C -1.19 4.42 -1.2 4.42 -1.20502 4.40939 C -1.21 4.4 -1.22 4.4 -1.23114 4.38973 C -1.24 4.38 -1.25 4.38 -1.25441 4.3695 C -1.26 4.36 -1.27 4.36 -1.27476 4.3487 C -1.28 4.34 -1.29 4.33 -1.29214 4.32734 C -1.3 4.32 -1.3 4.31 -1.3065 4.30542 C -1.31 4.3 -1.31 4.29 -1.31778 4.28294 C -1.32 4.28 -1.32 4.27 -1.32592 4.25991 C -1.33 4.25 -1.33 4.24 -1.33084 4.23633 C -1.33 4.23 -1.33 4.22 -1.3325 4.2122 L -1.3325 3.70542 C -1.33 3.7 -1.33 3.7 -1.3325 3.7041 C -1.33 3.7 -1.33 3.69 -1.33077 3.68046 C -1.33 3.67 -1.33 3.66 -1.32588 3.65624 C -1.32 3.65 -1.32 3.64 -1.31773 3.63146 C -1.31 3.62 -1.31 3.61 -1.30623 3.60612 C -1.3 3.6 -1.3 3.59 -1.29129 3.58026 C -1.29 3.57 -1.28 3.56 -1.27284 3.55388 C -1.27 3.54 -1.26 3.54 -1.2508 3.527 C -1.24 3.52 -1.23 3.51 -1.2251 3.49965 C -1.22 3.49 -1.21 3.48 -1.19566 3.47185 C -1.19 3.46 -1.17 3.45 -1.16243 3.44362 C -1.15 3.43 -1.14 3.42 -1.12535 3.41498 C -1.11 3.41 -1.1 3.4 -1.08436 3.38596 C -1.07 3.38 -1.06 3.37 -1.03941 3.35658 C -1.02 3.35 -1.01 3.34 -0.99045 3.32686 C -0.97 3.32 -0.96 3.31 -0.93743 3.29684 C -0.92 3.29 -0.9 3.28 -0.88033 3.26654 C -0.86 3.26 -0.84 3.25 -0.8191 3.23598 C -0.8 3.23 -0.78 3.22 -0.75371 3.2052 C -0.73 3.19 -0.71 3.18 -0.68414 3.17422 C -0.66 3.16 -0.64 3.15 -0.61036 3.14307 C -0.59 3.13 -0.56 3.12 -0.53235 3.11179 C -0.51 3.1 -0.48 3.09 -0.4501 3.0804 C -0.42 3.07 -0.39 3.06 -0.3636 3.04893 C -0.33 3.04 -0.3 3.03 -0.27283 3.01742 C -0.24 3.01 -0.21 3 -0.1778 2.98588 C -0.15 2.98 -0.11 2.96 -0.07851 2.95437 C -0.04 2.94 -0.01 2.93 0.02504 2.9229 C 0.06 2.91 0.1 2.9 0.13285 2.8915 C 0.28 2.85 0.44 2.81 0.60628 2.76734" />
    <path d="M 1.43914 4.28385 L 0.08758 4.19214 L 0.08758 4.7" />
    <path d="M 0.08758 4.19214 C 0.03 4.19 -0.02 4.18 -0.07231 4.17936 C -0.12 4.17 -0.17 4.17 -0.22382 4.16419 C -0.27 4.16 -0.32 4.15 -0.36678 4.14662 C -0.39 4.14 -0.41 4.14 -0.435 4.13694 C -0.46 4.13 -0.48 4.13 -0.50101 4.12667 C -0.52 4.12 -0.54 4.12 -0.56479 4.11581 C -0.59 4.11 -0.61 4.11 -0.62631 4.10435 C -0.65 4.1 -0.67 4.1 -0.68554 4.09231 C -0.7 4.09 -0.72 4.08 -0.74245 4.07967 C -0.76 4.08 -0.78 4.07 -0.797 4.06645 C -0.81 4.06 -0.83 4.06 -0.84917 4.05263 C -0.87 4.05 -0.88 4.04 -0.89892 4.03823 C -0.92 4.03 -0.93 4.03 -0.9462 4.02325 C -0.96 4.02 -0.98 4.01 -0.991 4.00768 C -1.01 4 -1.02 4 -1.03326 3.99153 C -1.05 3.99 -1.06 3.98 -1.07294 3.9748 C -1.09 3.97 -1.1 3.96 -1.11 3.95749 C -1.12 3.95 -1.13 3.95 -1.1444 3.9396 C -1.16 3.93 -1.17 3.93 -1.17608 3.92113 C -1.19 3.91 -1.2 3.91 -1.20502 3.9021 C -1.21 3.9 -1.22 3.89 -1.23114 3.88249 C -1.24 3.88 -1.25 3.87 -1.2544 3.86231 C -1.26 3.86 -1.27 3.85 -1.27475 3.84157 C -1.28 3.83 -1.29 3.83 -1.29214 3.82026 C -1.3 3.81 -1.3 3.81 -1.3065 3.7984 C -1.31 3.79 -1.31 3.78 -1.31778 3.77598 C -1.32 3.77 -1.32 3.76 -1.32592 3.753 C -1.33 3.75 -1.33 3.74 -1.33084 3.72948 C -1.33 3.72 -1.33 3.71 -1.3325 3.70542" />
    <path d="M 0.76225 2.73053 L 0.7511 2.73315 L 0.73996 2.73577 L 0.72882 2.73839 L 0.71768 2.74101 L 0.70654 2.74364 L 0.6954 2.74626 L 0.68426 2.74889 L 0.67312 2.75152 L 0.66198 2.75415 L 0.65084 2.75679 L 0.6397 2.75942 L 0.62856 2.76206 L 0.61742 2.7647 L 0.60628 2.76734" />
    <path d="M 0.76225 2.73053 A 125 94.73737 93.8817 0 1 1.45969 2.57331" />
    <path d="M -4.70603 1.92305 L -25.05615 0.54224 L -25.05615 1.04505" />
    <path d="M -26.57452 0.87567 A 125 94.73737 93.8817 0 1 -25.05615 0.54224" />
    <path d="M -26.90042 0.94865 L -26.87714 0.94339 L -26.85387 0.93814 L -26.8306 0.93289 L -26.80732 0.92765 L -26.78404 0.92242 L -26.76077 0.9172 L -26.73749 0.91198 L -26.71421 0.90677 L -26.69093 0.90157 L -26.66765 0.89637 L -26.64437 0.89119 L -26.62109 0.88601 L -26.5978 0.88083 L -26.57452 0.87567 L -26.57452 1.37952 A 124.5 94.35842 93.8817 0 1 -25.05615 1.04505" />
    <path d="M -26.90042 0.94865 C -26.96 0.96 -27.02 0.98 -27.08691 0.98867 C -27.15 1 -27.21 1.02 -27.27747 1.02839 C -27.34 1.04 -27.41 1.05 -27.4716 1.0677 C -27.54 1.08 -27.6 1.09 -27.6688 1.10653 C -27.73 1.12 -27.8 1.13 -27.86853 1.14477 C -27.94 1.16 -28 1.17 -28.07027 1.18235 C -28.14 1.19 -28.21 1.21 -28.27346 1.21916 C -28.34 1.23 -28.41 1.24 -28.47755 1.25514 C -28.53 1.26 -28.59 1.27 -28.64188 1.28339 C -28.7 1.29 -28.75 1.3 -28.80623 1.31102 C -28.86 1.32 -28.92 1.33 -28.97047 1.33802 C -29.03 1.35 -29.08 1.36 -29.13446 1.36437 C -29.19 1.37 -29.24 1.38 -29.29806 1.39005 C -29.35 1.4 -29.41 1.41 -29.46115 1.41507 C -29.52 1.42 -29.57 1.43 -29.6236 1.43939 C -29.68 1.45 -29.73 1.46 -29.78529 1.46302 C -29.84 1.47 -29.89 1.48 -29.9461 1.48595 C -30 1.49 -30.05 1.5 -30.10594 1.50815 C -30.16 1.52 -30.21 1.52 -30.26469 1.52964 C -30.32 1.54 -30.37 1.54 -30.42225 1.55039 C -30.47 1.56 -30.53 1.56 -30.57852 1.5704 C -30.63 1.58 -30.68 1.58 -30.73341 1.58968 C -30.78 1.6 -30.84 1.6 -30.88683 1.6082 C -30.94 1.61 -30.99 1.62 -31.0387 1.62598 C -31.09 1.63 -31.14 1.64 -31.19263 1.64341 C -31.24 1.65 -31.29 1.65 -31.34492 1.66007 C -31.45 1.67 -31.55 1.68 -31.64442 1.69107 C -31.84 1.71 -32.03 1.73 -32.22207 1.74385 C -32.6 1.77 -32.95 1.8 -33.2857 1.81302 C -33.95 1.84 -34.53 1.84 -35.00989 1.8107 L -35.00989 2.31856 L -36.36144 2.22685 C -36.42 2.22 -36.47 2.22 -36.52133 2.21407 C -36.57 2.21 -36.62 2.2 -36.67285 2.19888 C -36.72 2.19 -36.77 2.19 -36.81581 2.18129 C -36.84 2.18 -36.86 2.17 -36.88403 2.1716 C -36.91 2.17 -36.93 2.16 -36.95005 2.16131 C -36.97 2.16 -36.99 2.15 -37.01383 2.15043 C -37.03 2.15 -37.06 2.14 -37.07535 2.13895 C -37.1 2.14 -37.12 2.13 -37.13458 2.12688 C -37.15 2.12 -37.17 2.12 -37.19148 2.11422 C -37.21 2.11 -37.23 2.11 -37.24604 2.10097 C -37.26 2.1 -37.28 2.09 -37.2982 2.08713 C -37.32 2.08 -37.33 2.08 -37.34795 2.0727 C -37.36 2.07 -37.38 2.06 -37.39524 2.05768 C -37.41 2.05 -37.43 2.05 -37.44003 2.04208 C -37.45 2.04 -37.47 2.03 -37.48229 2.02589 C -37.5 2.02 -37.51 2.01 -37.52197 2.00912 C -37.53 2 -37.55 2 -37.55903 1.99176 C -37.57 1.99 -37.58 1.98 -37.59343 1.97383 C -37.6 1.97 -37.62 1.96 -37.62511 1.95532 C -37.64 1.95 -37.64 1.94 -37.65404 1.93624 C -37.66 1.93 -37.67 1.92 -37.68017 1.91658 C -37.69 1.91 -37.7 1.9 -37.70343 1.89635 C -37.71 1.89 -37.72 1.88 -37.72378 1.87555 C -37.73 1.87 -37.74 1.86 -37.74117 1.85419 C -37.75 1.85 -37.75 1.84 -37.75553 1.83227 C -37.76 1.82 -37.76 1.82 -37.7668 1.80979 C -37.77 1.8 -37.77 1.79 -37.77494 1.78676 C -37.78 1.78 -37.78 1.77 -37.77987 1.76318 C -37.78 1.76 -37.78 1.75 -37.78152 1.73905 L -37.78152 1.23227 C -37.78 1.23 -37.78 1.23 -37.78152 1.23095 C -37.78 1.22 -37.78 1.22 -37.77979 1.20731 C -37.78 1.2 -37.78 1.19 -37.7749 1.18309 C -37.77 1.17 -37.77 1.17 -37.76675 1.15831 C -37.76 1.15 -37.76 1.14 -37.75525 1.13297 C -37.75 1.12 -37.75 1.12 -37.74031 1.10711 C -37.73 1.1 -37.73 1.09 -37.72186 1.08073 C -37.72 1.07 -37.71 1.06 -37.69982 1.05385 C -37.69 1.04 -37.68 1.04 -37.67412 1.0265 C -37.66 1.02 -37.66 1.01 -37.64468 0.9987 C -37.63 0.99 -37.62 0.98 -37.61146 0.97047 C -37.6 0.96 -37.59 0.95 -37.57437 0.94183 C -37.56 0.93 -37.55 0.92 -37.53338 0.91281 C -37.52 0.9 -37.5 0.89 -37.48843 0.88343 C -37.47 0.87 -37.46 0.86 -37.43947 0.85371 C -37.42 0.84 -37.4 0.83 -37.38645 0.82369 C -37.37 0.81 -37.35 0.8 -37.32935 0.79339 C -37.31 0.78 -37.29 0.77 -37.26812 0.76283 C -37.25 0.75 -37.23 0.74 -37.20273 0.73205 C -37.18 0.72 -37.16 0.71 -37.13316 0.70107 C -37.11 0.69 -37.08 0.68 -37.05938 0.66992 C -37.03 0.66 -37.01 0.65 -36.98137 0.63864 C -36.95 0.63 -36.93 0.62 -36.89913 0.60725 C -36.87 0.6 -36.84 0.59 -36.81262 0.57578 C -36.78 0.57 -36.75 0.55 -36.72186 0.54427 C -36.69 0.53 -36.66 0.52 -36.62683 0.51273 C -36.59 0.5 -36.56 0.49 -36.52753 0.48122 C -36.49 0.47 -36.46 0.46 -36.42398 0.44975 C -36.39 0.44 -36.35 0.43 -36.31617 0.41835 C -36.17 0.38 -36.01 0.34 -35.84274 0.29419" />
    <path d="M -35.00989 1.8107 L -36.36144 1.71899 L -36.36144 2.22685" />
    <path d="M -36.36144 1.71899 C -36.42 1.72 -36.47 1.71 -36.52133 1.70621 C -36.57 1.7 -36.62 1.7 -36.67284 1.69104 C -36.72 1.69 -36.77 1.68 -36.8158 1.67347 C -36.84 1.67 -36.86 1.67 -36.88402 1.66379 C -36.91 1.66 -36.93 1.66 -36.95004 1.65352 C -36.97 1.65 -36.99 1.65 -37.01382 1.64266 C -37.03 1.64 -37.06 1.64 -37.07533 1.6312 C -37.1 1.63 -37.12 1.62 -37.13456 1.61916 C -37.15 1.62 -37.17 1.61 -37.19147 1.60652 C -37.21 1.6 -37.23 1.6 -37.24602 1.5933 C -37.26 1.59 -37.28 1.58 -37.29819 1.57948 C -37.32 1.57 -37.33 1.57 -37.34794 1.56509 C -37.36 1.56 -37.38 1.56 -37.39523 1.5501 C -37.41 1.55 -37.43 1.54 -37.44002 1.53453 C -37.45 1.53 -37.47 1.52 -37.48228 1.51838 C -37.5 1.51 -37.51 1.51 -37.52196 1.50165 C -37.53 1.5 -37.55 1.49 -37.55902 1.48434 C -37.57 1.48 -37.58 1.47 -37.59342 1.46645 C -37.6 1.46 -37.62 1.45 -37.62511 1.44798 C -37.64 1.44 -37.64 1.44 -37.65404 1.42895 C -37.66 1.42 -37.67 1.42 -37.68016 1.40934 C -37.69 1.4 -37.7 1.4 -37.70342 1.38916 C -37.71 1.38 -37.72 1.38 -37.72378 1.36842 C -37.73 1.36 -37.74 1.35 -37.74116 1.34711 C -37.75 1.34 -37.75 1.33 -37.75552 1.32525 C -37.76 1.32 -37.76 1.31 -37.7668 1.30283 C -37.77 1.3 -37.77 1.29 -37.77494 1.27985 C -37.78 1.27 -37.78 1.26 -37.77987 1.25634 C -37.78 1.25 -37.78 1.24 -37.78152 1.23227" />
    <path d="M -35.68678 0.25738 L -35.69792 0.26 L -35.70906 0.26262 L -35.7202 0.26524 L -35.73134 0.26786 L -35.74248 0.27049 L -35.75362 0.27311 L -35.76476 0.27574 L -35.7759 0.27837 L -35.78704 0.281 L -35.79818 0.28364 L -35.80932 0.28627 L -35.82046 0.28891 L -35.8316 0.29155 L -35.84274 0.29419" />
    <path d="M -34.98933 0.10016 A 125 94.73737 273.8817 0 0 -35.68678 0.25738" />
    <path d="M -26.40454 -0.21174 C -26.42 -0.21 -26.44 -0.21 -26.45137 -0.20496 C -26.47 -0.2 -26.48 -0.2 -26.49932 -0.19841 C -26.52 -0.2 -26.53 -0.19 -26.54822 -0.19211 C -26.56 -0.19 -26.58 -0.19 -26.5979 -0.18608 C -26.61 -0.18 -26.63 -0.18 -26.64819 -0.18032 C -26.67 -0.18 -26.68 -0.18 -26.69893 -0.17484 C -26.72 -0.17 -26.73 -0.17 -26.74995 -0.16967 C -26.77 -0.17 -26.78 -0.17 -26.80109 -0.1648 C -26.82 -0.16 -26.84 -0.16 -26.8522 -0.16024 C -26.87 -0.16 -26.89 -0.16 -26.90312 -0.15601 C -26.92 -0.15 -26.94 -0.15 -26.9537 -0.15211 C -26.97 -0.15 -26.99 -0.15 -27.0038 -0.14854 C -27.02 -0.15 -27.04 -0.15 -27.05326 -0.14531 C -27.07 -0.14 -27.09 -0.14 -27.10196 -0.14241 C -27.12 -0.14 -27.13 -0.14 -27.14975 -0.13985 C -27.17 -0.14 -27.18 -0.14 -27.19652 -0.13763 C -27.21 -0.14 -27.22 -0.14 -27.23516 -0.136 C -27.25 -0.14 -27.26 -0.14 -27.27309 -0.13461 C -27.3 -0.13 -27.32 -0.13 -27.3467 -0.13249 C -27.37 -0.13 -27.39 -0.13 -27.41714 -0.13126 C -27.44 -0.13 -27.46 -0.13 -27.48417 -0.13089 C -27.51 -0.13 -27.53 -0.13 -27.5476 -0.13137 C -27.57 -0.13 -27.59 -0.13 -27.60723 -0.13269 C -27.63 -0.13 -27.65 -0.13 -27.66286 -0.13483 C -27.68 -0.14 -27.7 -0.14 -27.71432 -0.13778 C -27.73 -0.14 -27.75 -0.14 -27.7636 -0.14172 C -27.78 -0.14 -27.79 -0.14 -27.80787 -0.14652 C -27.84 -0.15 -27.86 -0.15 -27.88037 -0.15864 C -27.92 -0.17 -27.95 -0.18 -27.95339 -0.19248 C -27.95 -0.19 -27.96 -0.2 -27.95513 -0.19957 C -27.96 -0.2 -27.95 -0.2 -27.95388 -0.20578 C -27.95 -0.21 -27.95 -0.21 -27.95006 -0.21223 C -27.95 -0.21 -27.95 -0.22 -27.94359 -0.2189 C -27.94 -0.22 -27.94 -0.22 -27.93441 -0.22578 C -27.93 -0.23 -27.93 -0.23 -27.92247 -0.23284 C -27.92 -0.24 -27.91 -0.24 -27.90774 -0.24007 C -27.9 -0.24 -27.9 -0.24 -27.89017 -0.24743 C -27.88 -0.25 -27.88 -0.25 -27.86977 -0.25492" />
    <path d="M -26.40454 -0.21174 L -26.39738 -0.21289 L -26.39022 -0.21404 L -26.38305 -0.21519 L -26.37589 -0.21633 L -26.36873 -0.21748 L -26.36156 -0.21862 L -26.3544 -0.21977 L -26.34724 -0.22091 L -26.34007 -0.22206 L -26.33291 -0.2232 L -26.32575 -0.22434 L -26.31859 -0.22548 L -26.31142 -0.22662 L -26.30426 -0.22776" />
    <path d="M -21.08659 -0.93168 A 125 94.73737 273.8817 0 0 -26.30426 -0.22776" />
    <path d="M 10.04448 2.26141 C 10.03 2.26 10.01 2.27 9.99765 2.26819 C 9.98 2.27 9.97 2.27 9.9497 2.27474 C 9.93 2.28 9.92 2.28 9.9008 2.28104 C 9.88 2.28 9.87 2.29 9.85112 2.28707 C 9.83 2.29 9.82 2.29 9.80083 2.29283 C 9.78 2.29 9.77 2.3 9.75009 2.29831 C 9.73 2.3 9.72 2.3 9.69907 2.30348 C 9.68 2.31 9.66 2.31 9.64793 2.30835 C 9.63 2.31 9.61 2.31 9.59682 2.31291 C 9.58 2.31 9.56 2.32 9.5459 2.31714 C 9.53 2.32 9.51 2.32 9.49532 2.32104 C 9.48 2.32 9.46 2.32 9.44522 2.32461 C 9.43 2.33 9.41 2.33 9.39576 2.32784 C 9.38 2.33 9.36 2.33 9.34706 2.33074 C 9.33 2.33 9.32 2.33 9.29927 2.3333 C 9.28 2.33 9.27 2.33 9.2525 2.33552 C 9.24 2.34 9.23 2.34 9.21387 2.33715 C 9.2 2.34 9.19 2.34 9.17594 2.33854 C 9.15 2.34 9.13 2.34 9.10232 2.34066 C 9.08 2.34 9.05 2.34 9.03188 2.34189 C 9.01 2.34 8.99 2.34 8.96485 2.34226 C 8.94 2.34 8.92 2.34 8.90142 2.34178 C 8.88 2.34 8.86 2.34 8.8418 2.34046 C 8.82 2.34 8.8 2.34 8.78616 2.33832 C 8.77 2.34 8.75 2.34 8.7347 2.33537 C 8.72 2.33 8.7 2.33 8.68542 2.33143 C 8.67 2.33 8.66 2.33 8.64116 2.32663 C 8.61 2.32 8.59 2.32 8.56865 2.31451 C 8.53 2.31 8.5 2.29 8.49563 2.28067 C 8.49 2.28 8.49 2.28 8.49389 2.27358 C 8.49 2.27 8.49 2.27 8.49514 2.26737 C 8.5 2.27 8.5 2.26 8.49897 2.26092 C 8.5 2.26 8.5 2.26 8.50543 2.25425 C 8.51 2.25 8.51 2.25 8.51461 2.24737 C 8.52 2.25 8.52 2.24 8.52655 2.24031 C 8.53 2.24 8.54 2.24 8.54129 2.23308 C 8.55 2.23 8.55 2.23 8.55885 2.22572 C 8.57 2.22 8.57 2.22 8.57925 2.21823" />
    <path d="M 10.04448 2.26141 L 10.05164 2.26026 L 10.05881 2.25911 L 10.06597 2.25796 L 10.07313 2.25682 L 10.0803 2.25567 L 10.08746 2.25453 L 10.09462 2.25338 L 10.10178 2.25224 L 10.10895 2.25109 L 10.11611 2.24995 L 10.12327 2.24881 L 10.13044 2.24767 L 10.1376 2.24653 L 10.14476 2.24539" />
    <path d="M 15.41295 1.53651 A 125 94.73737 273.8817 0 0 10.14476 2.24539" />
    <path d="M 8.84301 2.20508 L 8.84301 2.34049" />
    <path d="M -27.60601 -0.26807 L -27.60601 -0.13266" />
    <path d="M 26.90042 1.98998 L 26.8821 1.98753 L 26.86377 1.98508 L 26.84545 1.98264 L 26.82713 1.9802 L 26.80881 1.97777 L 26.79048 1.97534 L 26.77216 1.97291 L 26.75383 1.97049 L 26.73551 1.96807 L 26.71718 1.96566 L 26.69886 1.96326 L 26.68053 1.96085 L 26.6622 1.95846 L 26.64387 1.95606" />
    <path d="M 26.90042 1.98998 C 26.98 2 27.07 2.01 27.15148 2.02319 C 27.24 2.03 27.32 2.05 27.40824 2.05727 C 27.49 2.07 27.58 2.08 27.66978 2.09205 C 27.76 2.1 27.85 2.12 27.93524 2.12742 C 28.02 2.14 28.11 2.15 28.20372 2.16321 C 28.29 2.18 28.38 2.19 28.47439 2.1993 C 28.56 2.21 28.66 2.22 28.74641 2.23554 C 28.84 2.25 28.93 2.26 29.01897 2.27178 C 29.06 2.28 29.11 2.28 29.1552 2.28986 C 29.2 2.3 29.25 2.3 29.29127 2.3079 C 29.34 2.31 29.38 2.32 29.42708 2.32586 C 29.47 2.33 29.52 2.34 29.56253 2.34375 C 29.61 2.35 29.65 2.36 29.69754 2.36153 C 29.74 2.37 29.79 2.37 29.83202 2.3792 C 29.88 2.39 29.92 2.39 29.96586 2.39674 C 30.01 2.4 30.05 2.41 30.09899 2.41414 C 30.14 2.42 30.19 2.43 30.23131 2.43137 C 30.28 2.44 30.32 2.44 30.36274 2.44842 C 30.41 2.45 30.45 2.46 30.49319 2.46529 C 30.54 2.47 30.58 2.48 30.62258 2.48195 C 30.67 2.49 30.71 2.49 30.75083 2.4984 C 30.79 2.5 30.84 2.51 30.87786 2.51462 C 30.92 2.52 30.96 2.53 31.00358 2.53059 C 31.05 2.54 31.09 2.54 31.12793 2.54631 C 31.18 2.55 31.23 2.56 31.27817 2.56519 C 31.33 2.57 31.38 2.58 31.42679 2.58375 C 31.53 2.6 31.62 2.61 31.71908 2.61983 C 31.91 2.64 32.1 2.67 32.28291 2.68769 C 32.65 2.73 33 2.77 33.32171 2.80486 C 33.97 2.87 34.54 2.93 35.00989 2.95832" />
    <path d="M 36.36144 3.05003 L 35.00989 2.95832" />
    <path d="M 36.36144 3.05003 C 36.42 3.05 36.47 3.06 36.52133 3.06019 C 36.57 3.06 36.62 3.07 36.67285 3.06873 C 36.72 3.07 36.77 3.07 36.81581 3.07564 C 36.84 3.08 36.86 3.08 36.88403 3.07848 C 36.91 3.08 36.93 3.08 36.95005 3.08091 C 36.97 3.08 36.99 3.08 37.01383 3.08292 C 37.03 3.08 37.06 3.08 37.07535 3.08453 C 37.1 3.08 37.12 3.09 37.13458 3.08571 C 37.15 3.09 37.17 3.09 37.19148 3.08649 C 37.21 3.09 37.23 3.09 37.24604 3.08684 C 37.26 3.09 37.28 3.09 37.2982 3.08678 C 37.32 3.09 37.33 3.09 37.34795 3.0863 C 37.36 3.09 37.38 3.09 37.39524 3.0854 C 37.41 3.09 37.43 3.08 37.44003 3.08407 C 37.45 3.08 37.47 3.08 37.48229 3.08233 C 37.5 3.08 37.51 3.08 37.52197 3.08016 C 37.53 3.08 37.55 3.08 37.55903 3.07757 C 37.57 3.08 37.58 3.08 37.59343 3.07455 C 37.6 3.07 37.62 3.07 37.62511 3.07111 C 37.64 3.07 37.64 3.07 37.65404 3.06724 C 37.66 3.07 37.67 3.06 37.68017 3.06295 C 37.69 3.06 37.7 3.06 37.70343 3.05823 C 37.71 3.06 37.72 3.05 37.72378 3.05308 C 37.73 3.05 37.74 3.05 37.74117 3.0475 C 37.75 3.05 37.75 3.04 37.75553 3.0415 C 37.76 3.04 37.76 3.04 37.7668 3.03506 C 37.77 3.03 37.77 3.03 37.77494 3.0282 C 37.78 3.03 37.78 3.02 37.77987 3.02091 C 37.78 3.02 37.78 3.02 37.78152 3.01319 L 37.78152 2.50642" />
    <path d="M 37.78152 3.01319 C 37.78 3.01 37.78 3.01 37.78152 3.01276 C 37.78 3.01 37.78 3.01 37.77979 3.00492 C 37.78 3 37.78 3 37.7749 2.99666 C 37.77 2.99 37.77 2.99 37.76675 2.98798 C 37.76 2.99 37.76 2.98 37.75524 2.97887 C 37.75 2.98 37.75 2.97 37.74031 2.96935 C 37.73 2.97 37.73 2.96 37.72186 2.95941 C 37.72 2.96 37.71 2.95 37.69981 2.94907 C 37.69 2.95 37.68 2.94 37.67411 2.93833 C 37.66 2.93 37.66 2.93 37.64467 2.92719 C 37.63 2.92 37.62 2.92 37.61144 2.91567 C 37.6 2.91 37.59 2.91 37.57436 2.90376 C 37.56 2.9 37.55 2.9 37.53337 2.89149 C 37.52 2.89 37.5 2.88 37.48841 2.87885 C 37.47 2.87 37.46 2.87 37.43945 2.86587 C 37.42 2.86 37.4 2.86 37.38643 2.85254 C 37.37 2.85 37.35 2.84 37.32933 2.83889 C 37.31 2.83 37.29 2.83 37.2681 2.82492 C 37.25 2.82 37.23 2.82 37.20271 2.81064 C 37.18 2.81 37.16 2.8 37.13314 2.79607 C 37.11 2.79 37.08 2.79 37.05936 2.78122 C 37.03 2.78 37.01 2.77 36.98135 2.76611 C 36.95 2.76 36.93 2.76 36.8991 2.75074 C 36.87 2.75 36.84 2.74 36.8126 2.73513 C 36.78 2.73 36.75 2.72 36.72183 2.71929 C 36.69 2.71 36.66 2.71 36.62681 2.70325 C 36.59 2.7 36.56 2.69 36.52751 2.687 C 36.49 2.68 36.46 2.68 36.42396 2.67057 C 36.39 2.67 36.35 2.66 36.31616 2.65397 C 36.17 2.63 36.01 2.61 35.84274 2.58615" />
    <path d="M 9.5486 3.92589 L 9.57188 3.92061 L 9.59515 3.91534 L 9.61843 3.91008 L 9.6417 3.90482 L 9.66498 3.89958 L 9.68826 3.89434 L 9.71153 3.8891 L 9.73481 3.88388 L 9.75809 3.87866 L 9.78137 3.87345 L 9.80465 3.86824 L 9.82794 3.86304 L 9.85122 3.85785 L 9.8745 3.85267" />
    <path d="M 9.5486 3.92589 C 9.49 3.94 9.42 3.95 9.36211 3.96604 C 9.3 3.98 9.24 3.99 9.17155 4.00589 C 9.11 4.02 9.04 4.03 8.97742 4.04534 C 8.91 4.06 8.85 4.07 8.78023 4.0843 C 8.71 4.1 8.65 4.11 8.58049 4.12268 C 8.51 4.14 8.45 4.15 8.37876 4.16038 C 8.31 4.17 8.24 4.19 8.17556 4.19733 C 8.11 4.21 8.04 4.22 7.97147 4.23344 C 7.92 4.24 7.86 4.25 7.80715 4.26179 C 7.75 4.27 7.7 4.28 7.6428 4.28952 C 7.59 4.3 7.53 4.31 7.47856 4.31662 C 7.42 4.33 7.37 4.33 7.31458 4.34307 C 7.26 4.35 7.21 4.36 7.15098 4.36885 C 7.1 4.38 7.04 4.39 6.98789 4.39396 C 6.93 4.4 6.88 4.41 6.82545 4.41838 C 6.77 4.43 6.72 4.43 6.66376 4.4421 C 6.61 4.45 6.56 4.46 6.50294 4.46511 C 6.45 4.47 6.4 4.48 6.3431 4.48741 C 6.29 4.49 6.24 4.5 6.18435 4.50898 C 6.13 4.52 6.08 4.52 6.02679 4.52982 C 5.97 4.54 5.92 4.54 5.87052 4.54992 C 5.82 4.56 5.77 4.56 5.71562 4.56927 C 5.66 4.58 5.61 4.58 5.5622 4.58788 C 5.51 4.59 5.46 4.6 5.41033 4.60573 C 5.36 4.61 5.31 4.62 5.2564 4.62324 C 5.21 4.63 5.15 4.63 5.10411 4.63997 C 5 4.65 4.9 4.66 4.80462 4.67111 C 4.61 4.69 4.41 4.71 4.22699 4.72414 C 3.85 4.76 3.5 4.78 3.16336 4.7937 C 2.5 4.82 1.92 4.82 1.43914 4.79171" />
    <path d="M 0.54554 2.78218 L -0.84142 2.68807" />
    <path d="M -4.87379 2.41447 L -25.05615 1.04505" />
    <path d="M -26.90042 1.45274 L -26.87714 1.44746 L -26.85387 1.44219 L -26.8306 1.43693 L -26.80732 1.43168 L -26.78404 1.42643 L -26.76077 1.42119 L -26.73749 1.41595 L -26.71421 1.41073 L -26.69093 1.40551 L -26.66765 1.4003 L -26.64437 1.39509 L -26.62109 1.38989 L -26.5978 1.3847 L -26.57452 1.37952" />
    <path d="M -26.90042 1.45274 C -26.96 1.47 -27.02 1.48 -27.08691 1.49289 C -27.15 1.51 -27.21 1.52 -27.27747 1.53274 C -27.34 1.55 -27.41 1.56 -27.4716 1.57219 C -27.54 1.59 -27.6 1.6 -27.66879 1.61115 C -27.73 1.62 -27.8 1.64 -27.86853 1.64953 C -27.94 1.66 -28 1.67 -28.07027 1.68723 C -28.14 1.7 -28.21 1.71 -28.27346 1.72418 C -28.34 1.74 -28.41 1.75 -28.47755 1.76029 C -28.53 1.77 -28.59 1.78 -28.64187 1.78864 C -28.7 1.8 -28.75 1.81 -28.80622 1.81637 C -28.86 1.83 -28.92 1.83 -28.97046 1.84347 C -29.03 1.85 -29.08 1.86 -29.13445 1.86992 C -29.19 1.88 -29.24 1.89 -29.29804 1.8957 C -29.35 1.9 -29.41 1.91 -29.46113 1.92081 C -29.52 1.93 -29.57 1.94 -29.62357 1.94523 C -29.68 1.95 -29.73 1.96 -29.78526 1.96895 C -29.84 1.98 -29.89 1.98 -29.94608 1.99196 C -30 2 -30.05 2.01 -30.10592 2.01426 C -30.16 2.02 -30.21 2.03 -30.26467 2.03583 C -30.32 2.04 -30.37 2.05 -30.42223 2.05667 C -30.47 2.06 -30.53 2.07 -30.5785 2.07677 C -30.63 2.08 -30.68 2.09 -30.7334 2.09612 C -30.78 2.1 -30.84 2.11 -30.88683 2.11473 C -30.94 2.12 -30.99 2.13 -31.0387 2.13258 C -31.09 2.14 -31.14 2.14 -31.19262 2.15009 C -31.24 2.16 -31.29 2.16 -31.34491 2.16682 C -31.45 2.18 -31.55 2.19 -31.6444 2.19796 C -31.84 2.22 -32.03 2.24 -32.22204 2.25099 C -32.6 2.28 -32.95 2.31 -33.28566 2.32055 C -33.95 2.35 -34.53 2.35 -35.00989 2.31856" />
    <path d="M 9.5486 3.4218 L 9.5486 3.92589" />
    <path d="M -26.90042 0.94865 L -26.90042 1.45274" />
    <path d="M -27.65239 -0.26576 L -27.65239 -0.13435" />
    <path d="M 8.79663 2.20739 L 8.79663 2.33879" />
    <path d="M -41.32549 -0.12277 A 0.5 0.32489 267.14485 0 1 -41.02495 -0.60007 L -26.69528 -1.31473" />
    <path d="M -41.02495 -0.60007 A 0.5 0.32489 267.14485 0 1 -40.97514 0.39869 L -25.38987 -0.3786" />
    <path d="M -40.97514 0.39869 A 0.5 0.32489 267.14485 0 1 -41.32549 -0.12277" />
    <path d="M 4.87379 -2.41447 A 0.5 0.32489 87.14485 0 0 4.52612 -2.87184" />
    <path d="M -4.52612 2.87184 L 11.05915 2.09455" />
    <path d="M 26.69162 1.31492 L 41.02495 0.60007" />
    <path d="M -4.57593 1.87308 L 9.75374 1.15842" />
    <path d="M 15.52533 0.87057 L 22.22544 0.53641" />
    <path d="M 34.98933 -0.10016 L 40.97514 -0.39869" />
    <path d="M 14.31856 1.47064 L 10.41331 1.20566" />
    <path d="M 9.11156 1.11733 L -26.03571 -1.26749" />
    <path d="M -27.33747 -1.35582 L -31.24272 -1.6208" />
    <path d="M -37.78152 -3.01319 L -37.78152 -2.50642" />
    <path d="M -1.3325 -0.54004 L -1.3325 -0.03327" />
    <path d="M -20.92369 -1.60258 L -14.22358 -1.93673" />
    <path d="M 0.84142 -2.68807 L 4.52612 -2.87184" />
</svg>